<svg id="Layer_1" data-name="Layer 1" xmlns="http://www.w3.org/2000/svg" xmlns:xlink="http://www.w3.org/1999/xlink" viewBox="0 0 445.74 403.06"><defs><style>.cls-1{fill:none;}.cls-2{clip-path:url(#clip-path);}.cls-3{fill:#ba2027;}.cls-4,.cls-5{fill:#fff;}.cls-5{font-size:60px;font-family:ArialMT, Arial;}.cls-6{font-family:Consolas;}.cls-7,.cls-8{font-family:NotoSansCJKtc-DemiLight-B5pc-H, Noto Sans CJK TC;}.cls-8{font-size:48px;}</style><clipPath id="clip-path" transform="translate(-81 -57.33)"><rect class="cls-1" width="597.02" height="469.51"/></clipPath></defs><title>jothon_logo_text_white2</title><g class="cls-2"><path class="cls-3" d="M277.94,247.12c-6,20.13-39.66,11.33-39.66,11.33v30.71c9.69,4.48,14.91,5.22,33.1,3.73,18.19-1.34,46.07-16.55,46.36-45.77-6,.3-12.37.6-19.08.6-7.3,0-14.16-.3-20.72-.6" transform="translate(-81 -57.33)"/><path class="cls-4" d="M398.1,115.92c-12.22-12.22-34.59-23.55-80.21-26.09v32.36c25.2,2.08,39.36,8.05,46.52,15.2,7,7,11.18,15.21,11.18,31.16s-4,24.6-10.88,31.61c-7.16,7.15-21.32,13-46.67,14.76-5.81.44-12.07.74-19.23.74s-13.72-.3-19.68-.89c-25.2-2.24-39.51-8.5-46.22-15.36-6.56-6.56-11.18-14.91-11.18-31s4-24.6,10.89-31.6S253.93,124,279.13,122V89.83c-44,2.69-67.68,13.72-80.06,26.09-12.82,12.83-19.83,28.78-19.83,52.63s7,39.51,19.83,52.48c12.08,12.08,35,23.41,78.87,26.09,6.41.45,13.27.6,20.72.6,6.86,0,13.12-.15,19.08-.6,44.88-2.53,68-13.72,80.21-25.94,12.82-12.82,19.83-28.78,19.83-52.63,0-24-6.86-39.8-19.68-52.63" transform="translate(-81 -57.33)"/><path class="cls-3" d="M279,57.33V214.62a195.81,195.81,0,0,0,19.68.89c7.16,0,13.42-.29,19.23-.74V57.33Z" transform="translate(-81 -57.33)"/><text class="cls-5" transform="translate(0 340.18)">g<tspan class="cls-6" x="33.37" y="0">0</tspan><tspan x="66.36" y="0">v</tspan><tspan class="cls-7" x="96.36" y="0"> </tspan><tspan class="cls-8" x="109.74" y="0">零時政府揪松團</tspan></text></g></svg>