<svg xmlns="http://www.w3.org/2000/svg" viewBox="0 0 120.09 44.78"><defs><style>.cls-1{fill:#fff;}</style></defs><title>AIT_white</title><g id="圖層_2" data-name="圖層 2"><g id="圖層_1-2" data-name="圖層 1"><path class="cls-1" d="M62.78,42.58H59.7c-.45,1-1.55,1.67-3.28,1.94l-.34-.65c1.53-.27,2.47-.69,2.82-1.29H56.27V42h2.84a2.73,2.73,0,0,0,0-.5h.7c0,.2,0,.36,0,.5h2.94Zm.16-1.28H56.11v-.55h3v-.49h-2.4v-.54h2.4v-.46H56.43v-.55h6.16v.55H59.87v.46h2.39v.54H59.87v.49h3.07Zm-4.09-2.85-.73.19a4,4,0,0,0-.58-.66l.71-.22A4.44,4.44,0,0,1,58.85,38.45ZM63,44l-.43.54a12.1,12.1,0,0,0-2.94-1.17l.43-.56A12.8,12.8,0,0,1,63,44Zm-1.44-6.08a5.09,5.09,0,0,1-.54.7l-.77-.19a5.15,5.15,0,0,0,.58-.67Z"/><path class="cls-1" d="M74.06,44.46h-.7v-.3H68.47v.3h-.69V37.92h6.28Zm-.7-.89v-5H68.47v5Zm-2.35-1a17.14,17.14,0,0,1-2.31.68l-.09-.61A14.55,14.55,0,0,0,71,41.94Zm2.25-.3c-.13.75-.4,1.12-.82,1.12-.26,0-.49-.17-.69-.52a3.61,3.61,0,0,1-.71.63L70.58,43a5.48,5.48,0,0,0,.89-.86,10.08,10.08,0,0,1-.39-2.35H68.74v-.54H71c0-.09,0-.29,0-.58l.64,0a4,4,0,0,0,0,.6h.89a3,3,0,0,0-.68-.28l.38-.38a3.59,3.59,0,0,1,.72.32l-.34.34h.44v.54H71.72A8.59,8.59,0,0,0,72,41.43,8.2,8.2,0,0,0,72.54,40l.56.26a6.71,6.71,0,0,1-.92,2,1,1,0,0,0,.15.31c.07.07.11.11.13.11s.09-.07.14-.22a2.22,2.22,0,0,0,.15-.66Zm-2.47-.4H68.91V40.2h1.88Zm-.65-.54v-.52h-.6v.52Z"/><path class="cls-1" d="M85.76,44.2h-5v.27h-.71v-3a6,6,0,0,1-.75.63l-.48-.55a7.14,7.14,0,0,0,2-2H79.08v-.65h2.1a10.39,10.39,0,0,0,.49-1.13l.69.17c-.12.35-.25.67-.38,1h3.66v.65h-4a11,11,0,0,1-.84,1.22v2.78h2V41.76H81.18v-.64h1.59V39.9h.73v1.22h1.72v.64H83.5v1.78h2.26Z"/><path class="cls-1" d="M97.23,40.56l-.61.48a7.63,7.63,0,0,0-.49-.67q-3,.35-5.62.42l-.17-.64a5.41,5.41,0,0,0,2.46-2.41l.79.15a10.28,10.28,0,0,1-1.86,2.19c1,0,2.32-.14,3.89-.3a10.82,10.82,0,0,0-1.19-1.07l.61-.45A12.44,12.44,0,0,1,97.23,40.56Zm-.69,3.89h-.72V44.1H91.68v.35H91V41.3h5.58Zm-.72-1V42H91.68v1.49Z"/><path class="cls-1" d="M103.84,40.27h-.7v4.19h-.69V40.27h-.74V39.6h.74V37.8h.69v1.8h.7Zm2.1,1a17,17,0,0,1-.09,1.76,6.82,6.82,0,0,1-.16,1,.48.48,0,0,1-.21.25,1.23,1.23,0,0,1-.53.08h-.33l-.22-.62a2.31,2.31,0,0,0,.37,0,.54.54,0,0,0,.34-.07,2.17,2.17,0,0,0,.11-.58c0-.35.06-.77.07-1.27h-.52a5.25,5.25,0,0,1-1,2.6l-.51-.33a4.67,4.67,0,0,0,.85-2.27h-.56v-.61h.61a3.66,3.66,0,0,0,0-.57h.6a4,4,0,0,1,0,.57Zm2.38-2.93a9.1,9.1,0,0,1-.16,1.53.74.74,0,0,1-.39.52,3.68,3.68,0,0,1-1.3.11l-.19-.6.6,0a.88.88,0,0,0,.59-.13,1.77,1.77,0,0,0,.11-.83h-1.29a3.2,3.2,0,0,1-2,1.58L104,40a3.13,3.13,0,0,0,1.58-1H104v-.63h1.73a4.67,4.67,0,0,0,.06-.6h.68c0,.19,0,.39,0,.6Zm.19,2.93c0,.71,0,1.32-.07,1.84a3.5,3.5,0,0,1-.15,1,.55.55,0,0,1-.25.27,1.57,1.57,0,0,1-.57.08h-.25l-.17-.63.5,0a.16.16,0,0,0,.16-.09,3.25,3.25,0,0,0,.11-.69c0-.41.05-.79.05-1.14h-.5a5.05,5.05,0,0,1-.89,2.61l-.53-.33a4.62,4.62,0,0,0,.81-2.28h-.56v-.61h.62a5.59,5.59,0,0,0,0-.58h.62c0,.18,0,.38,0,.58Z"/><path class="cls-1" d="M120.09,39.13l-.28.61a15.74,15.74,0,0,1-2-.63v.28h-2.57V39.1a12.86,12.86,0,0,1-1.93.65L113,39.2a8.79,8.79,0,0,0,3.42-1.48l.77.18a.92.92,0,0,1-.14.14A9.87,9.87,0,0,0,120.09,39.13Zm-.72,2.54h-5.62v-2h5.62ZM119,44.44h-.69v-.27h-3.53v.27h-.71V42H119Zm-2.82-3.3v-.9h-1.77v.9Zm-.35-.38-.49.31a5.06,5.06,0,0,0-.66-.45l.49-.33A5.09,5.09,0,0,1,115.86,40.76Zm2.48,2.07v-.31h-3.53v.31Zm0,.81v-.33h-3.53v.33Zm-1-4.77-.77-.43a4.36,4.36,0,0,1-.74.43Zm1.37,2.27v-.9H116.9v.9Zm-.3-.54a5.8,5.8,0,0,1-.66.44l-.49-.32a6.91,6.91,0,0,0,.64-.41Z"/><path class="cls-1" d="M63.47,7.81H61.82a11.23,11.23,0,0,0-1-2.53H56.33a10.51,10.51,0,0,0-1,2.53H53.78A37.3,37.3,0,0,1,55.8,4a25.09,25.09,0,0,0,2-4h1.82a25.5,25.5,0,0,0,1.92,3.92A26.08,26.08,0,0,1,63.47,7.81Zm-3-3.32A33.73,33.73,0,0,1,58.64.75h-.08a37.94,37.94,0,0,1-1.9,3.74Z"/><path class="cls-1" d="M72,7.81H71c0-.61,0-1.49-.17-2.64s-.17-1.84-.17-2.07h-.06A30.9,30.9,0,0,1,69.24,6a7.53,7.53,0,0,0-.82,1.82H67.7A7.78,7.78,0,0,0,66.94,6c-.51-1-.83-1.74-1-2.1s-.22-.6-.27-.75h-.06c0,.38-.08,1.13-.21,2.26a24.15,24.15,0,0,0-.19,2.45h-.92s.13-.78.37-2.25a22.78,22.78,0,0,0,.36-3.08h1.4a8.06,8.06,0,0,0,.85,2.25,8.66,8.66,0,0,1,.85,2.18h.06a8.37,8.37,0,0,1,1-2.18,7.83,7.83,0,0,0,1-2.25h1.37q0,.87.24,3.06C71.9,7,72,7.76,72,7.81Z"/><path class="cls-1" d="M78.19,7.19l0,.62H73.87c0-.85.07-1.78.07-2.8s0-1.8-.07-2.53h4l0,.61c-1,0-2,0-3.11,0,0,.43,0,1,0,1.72.94,0,1.78,0,2.52,0v.61c-.79,0-1.63,0-2.52,0,0,.7,0,1.36,0,2C76,7.25,77.12,7.23,78.19,7.19Z"/><path class="cls-1" d="M84.79,7.81h-1A14,14,0,0,0,83,6.25a1.44,1.44,0,0,0-.68-.61,3.3,3.3,0,0,0-1.07-.11h-.8q0,1.32.06,2.28h-1C79.6,7,79.62,6,79.62,5s0-1.8-.08-2.53h2.2c1.56,0,2.33.41,2.33,1.23s-.43,1.17-1.31,1.45v0a1.58,1.58,0,0,1,.95.62A17.41,17.41,0,0,1,84.79,7.81ZM83.16,4c0-.65-.57-1-1.71-1a9.7,9.7,0,0,0-1,0c0,.47,0,1.12,0,1.94h.61C82.46,5,83.16,4.65,83.16,4Z"/><path class="cls-1" d="M87.16,7.81h-1c0-.89.08-1.82.08-2.8s0-1.81-.08-2.53h1c0,.75-.07,1.59-.07,2.53S87.11,6.93,87.16,7.81Z"/><path class="cls-1" d="M93.86,7.16l-.07.61a6.47,6.47,0,0,1-1.43.15,4.22,4.22,0,0,1-2.75-.77,2.39,2.39,0,0,1-.92-1.89,2.56,2.56,0,0,1,1-2,4.26,4.26,0,0,1,2.77-.84,5.28,5.28,0,0,1,1,.11l-.15.65A4.64,4.64,0,0,0,92.25,3a2.81,2.81,0,0,0-2,.62,2,2,0,0,0-.66,1.5,1.93,1.93,0,0,0,.76,1.54,3.21,3.21,0,0,0,2.13.65A7.26,7.26,0,0,0,93.86,7.16Z"/><path class="cls-1" d="M100.81,7.81H99.69A7.63,7.63,0,0,0,99,6.09H95.94a6.79,6.79,0,0,0-.65,1.72H94.21a25,25,0,0,1,1.37-2.62A16.56,16.56,0,0,0,97,2.48h1.23A16.42,16.42,0,0,0,99.5,5.15,18.25,18.25,0,0,1,100.81,7.81Zm-2-2.26A25.17,25.17,0,0,1,97.52,3h-.06a26.5,26.5,0,0,1-1.29,2.55Z"/><path class="cls-1" d="M107.22,7.81h-.75s-.58-.7-1.75-2a18.27,18.27,0,0,1-2.08-2.5h0c.06.65.1,1.21.1,1.68,0,.92,0,1.84.07,2.78h-.89c.06-.89.09-1.82.09-2.8s0-1.8-.09-2.53h1a16,16,0,0,0,1.61,1.87,13.16,13.16,0,0,1,1.92,2.39h0c-.06-.66-.09-1.23-.09-1.69,0-1,0-1.86-.07-2.57h.91c-.06.73-.09,1.57-.09,2.53S107.16,6.92,107.22,7.81Z"/><path class="cls-1" d="M58.7,20.12H57.22c.07-1.3.11-2.67.11-4.11s0-2.65-.11-3.7H58.7c-.07,1.09-.11,2.33-.11,3.7S58.63,18.83,58.7,20.12Z"/><path class="cls-1" d="M66.52,20.12h-.74c0-.05-.59-.7-1.76-2A17.85,17.85,0,0,1,62,15.66h-.06a16,16,0,0,1,.1,1.69c0,.91,0,1.84.08,2.77h-.9c.06-.89.09-1.82.09-2.8s0-1.8-.09-2.52h1a17.25,17.25,0,0,0,1.62,1.86,12.91,12.91,0,0,1,1.91,2.39h.06a15.86,15.86,0,0,1-.09-1.69c0-1,0-1.86-.08-2.56h.91q-.09,1.08-.09,2.52C66.43,18.3,66.46,19.23,66.52,20.12Z"/><path class="cls-1" d="M72.57,18.74c0,1-.91,1.51-2.74,1.51A8.78,8.78,0,0,1,68,20.08l.2-.65a6.5,6.5,0,0,0,1.69.24c1.21,0,1.82-.26,1.82-.79a.8.8,0,0,0-.48-.67A7.19,7.19,0,0,0,70,17.7a5.5,5.5,0,0,1-1.36-.6,1.17,1.17,0,0,1,0-2,3.06,3.06,0,0,1,1.74-.42,7.38,7.38,0,0,1,1.73.13L72,15.5a7.31,7.31,0,0,0-1.72-.2c-.91,0-1.37.23-1.37.71a.65.65,0,0,0,.4.56,7.42,7.42,0,0,0,1.12.44,6.06,6.06,0,0,1,1.44.62A1.33,1.33,0,0,1,72.57,18.74Z"/><path class="cls-1" d="M78.53,14.8l0,.57c-.71,0-1.43,0-2.18,0,0,.52,0,1.18,0,2s0,1.82.05,2.8h-1c0-.93.06-1.87.06-2.8s0-1.45,0-2c-.53,0-1.26,0-2.21.05l0-.58Z"/><path class="cls-1" d="M80.66,20.12h-1c0-.89.08-1.82.08-2.8s0-1.81-.08-2.52h1c0,.74-.07,1.58-.07,2.52S80.61,19.24,80.66,20.12Z"/><path class="cls-1" d="M87.1,14.8l0,.57c-.71,0-1.44,0-2.18,0,0,.52,0,1.18,0,2s0,1.82.06,2.8H84c0-.93.07-1.87.07-2.8s0-1.45,0-2c-.52,0-1.26,0-2.21.05l0-.58Z"/><path class="cls-1" d="M93.78,14.8q0,.77,0,1.44c0,.44,0,.86,0,1.25,0,1.83-.93,2.74-2.81,2.74a4.6,4.6,0,0,1-1.26-.16,2.08,2.08,0,0,1-.86-.5,2,2,0,0,1-.5-.84,4.25,4.25,0,0,1-.16-1.2c0-.4,0-.83,0-1.28s0-.94,0-1.45h1q-.06,1.54-.06,2.43a6.24,6.24,0,0,0,.09,1.17,1.72,1.72,0,0,0,.32.74,1.26,1.26,0,0,0,.58.42,2.86,2.86,0,0,0,.9.13,3,3,0,0,0,.93-.13,1.21,1.21,0,0,0,.58-.41,2,2,0,0,0,.32-.74,6.26,6.26,0,0,0,.09-1.19c0-.28,0-.63,0-1s0-.87,0-1.39Z"/><path class="cls-1" d="M100.1,14.8l0,.57c-.7,0-1.43,0-2.17,0,0,.52,0,1.18,0,2s0,1.82.06,2.8H97c0-.93.07-1.87.07-2.8s0-1.45,0-2c-.52,0-1.26,0-2.21.05l0-.58Z"/><path class="cls-1" d="M105.54,19.5l0,.62h-4.29c0-.85.07-1.78.07-2.8s0-1.8-.07-2.52h4l0,.6c-1,0-2-.05-3.1-.05,0,.43,0,1,0,1.72.94,0,1.78,0,2.52-.05v.61c-.78,0-1.63,0-2.52,0,0,.7,0,1.36,0,2C103.35,19.56,104.48,19.54,105.54,19.5Z"/><path class="cls-1" d="M110.27,20.12h-1c0-.89.07-1.82.07-2.8s0-1.81-.07-2.52h1c0,.74-.07,1.58-.07,2.52S110.22,19.24,110.27,20.12Z"/><path class="cls-1" d="M117.62,20.12h-.75c0-.05-.58-.7-1.74-2a18.71,18.71,0,0,1-2.09-2.5H113a16,16,0,0,1,.1,1.69c0,.91,0,1.84.08,2.77h-.9c.06-.89.09-1.82.09-2.8s0-1.8-.09-2.52h1a17.73,17.73,0,0,0,1.61,1.86,12.69,12.69,0,0,1,1.92,2.39h.05c-.06-.66-.08-1.22-.08-1.69,0-1,0-1.86-.08-2.56h.91q-.09,1.08-.09,2.52C117.53,18.3,117.56,19.23,117.62,20.12Z"/><path class="cls-1" d="M62.12,25l0,.84c-1,0-2.09-.06-3.19-.06,0,.77,0,1.74,0,2.92s0,2.67.08,4.1H57.52c.06-1.36.09-2.73.09-4.1,0-1.16,0-2.13,0-2.92-.77,0-1.86,0-3.25.07l0-.85Z"/><path class="cls-1" d="M69,32.75H67.83A7.29,7.29,0,0,0,67.16,31H64.09a6.58,6.58,0,0,0-.66,1.71H62.35a25.56,25.56,0,0,1,1.37-2.61,16.56,16.56,0,0,0,1.38-2.71h1.23a17,17,0,0,0,1.31,2.67A17.25,17.25,0,0,1,69,32.75Zm-2-2.25A24.22,24.22,0,0,1,65.66,28H65.6q0,.12-1.29,2.55Z"/><path class="cls-1" d="M71,32.75H70c.06-.88.08-1.81.08-2.79s0-1.81-.08-2.53h1C71,28.18,71,29,71,30S71,31.87,71,32.75Z"/><path class="cls-1" d="M81.63,27.43a15.53,15.53,0,0,1-1.15,2.67,15.91,15.91,0,0,0-1.15,2.65h-.7a8.48,8.48,0,0,0-.83-2.08,14.27,14.27,0,0,1-1-2.41h-.08a15.6,15.6,0,0,1-.91,2.46,10.62,10.62,0,0,0-.75,2h-.7A12.27,12.27,0,0,0,73.2,30a24.6,24.6,0,0,1-1.12-2.53h1a16.86,16.86,0,0,0,.81,2.12,9.85,9.85,0,0,1,.8,2.39h.06a9.46,9.46,0,0,1,.82-2.37,13.36,13.36,0,0,0,.82-2.14h.93a13.23,13.23,0,0,0,.86,2.27A14.78,14.78,0,0,1,79,31.94h.06a9.41,9.41,0,0,1,.77-2.27,10.16,10.16,0,0,0,.78-2.24Z"/><path class="cls-1" d="M88.14,32.75H87A7.29,7.29,0,0,0,86.34,31H83.27a7,7,0,0,0-.66,1.71H81.53a24.67,24.67,0,0,1,1.38-2.61,16.94,16.94,0,0,0,1.37-2.71h1.24a16.37,16.37,0,0,0,1.3,2.67A18,18,0,0,1,88.14,32.75Zm-2-2.25A22.74,22.74,0,0,1,84.85,28h-.06a28.38,28.38,0,0,1-1.3,2.55Z"/><path class="cls-1" d="M94.54,32.75H93.8s-.59-.7-1.75-1.95A16.75,16.75,0,0,1,90,28.29h-.06A16.18,16.18,0,0,1,90,30c0,.92,0,1.84.08,2.77H89.2c0-.88.09-1.81.09-2.79s0-1.81-.09-2.53h1a14.45,14.45,0,0,0,1.61,1.86,12.72,12.72,0,0,1,1.91,2.4h.06A16,16,0,0,1,93.71,30c0-1,0-1.87-.08-2.57h.91c-.06.72-.09,1.57-.09,2.53S94.48,31.87,94.54,32.75Z"/><path class="cls-1" d="M42.16,37.44c2.44-4.25,5.43-8.79,7.67-12.46V15.77C41.88,26.56,35.45,34.62,34.45,36.12c-.38.56-3.68,6-5.27,8.66h9.28C39.67,42.41,40.66,40.07,42.16,37.44Z"/><path class="cls-1" d="M45.12,44.78h4.71V32.56C48.25,36.57,46.64,41.08,45.12,44.78Z"/><path class="cls-1" d="M27.54,35.62c2.68-3.49,14.31-15.83,22.29-24.91V4.09C40.76,12.9,26.59,26.27,24.94,28c-1.31,1.4-9.39,11.19-13.83,16.75h10C23.31,41.79,26.72,36.68,27.54,35.62Z"/><path class="cls-1" d="M0,.13V44.76L7.56,38C12.87,32.74,18.1,27.48,19.8,25.84c2.86-2.76,14.86-12.68,23.36-19.72l6.7-6ZM9.3,28.3,7.45,26.85,5.59,28.3l.81-2.21L4.45,24.78l2.34.08.66-2.25.64,2.25,2.35-.08L8.49,26.09ZM8.49,16.38l.81,2.21L7.45,17.14,5.59,18.59l.81-2.21L4.45,15.07l2.34.08.66-2.26.64,2.26,2.35-.08Zm0-8.86L9.3,9.73,7.45,8.28,5.59,9.73,6.4,7.52,4.45,6.21l2.34.08L7.45,4l.64,2.25,2.35-.08Zm14,11.07-1.86-1.45-1.84,1.45.81-2.21-1.95-1.31,2.34.08.64-2.26.65,2.26,2.35-.08-2,1.31ZM21.72,7.52l.81,2.21L20.68,8.28,18.83,9.73l.81-2.21L17.69,6.21,20,6.29,20.68,4l.65,2.25,2.34-.08ZM35.77,9.73,33.92,8.28,32.06,9.73l.81-2.21L30.92,6.21l2.35.08L33.92,4l.64,2.25,2.35-.08L35,7.52Z"/></g></g></svg>