<svg xmlns="http://www.w3.org/2000/svg" viewBox="0 0 307.66 124.63"><defs><style>.cls-1{fill:#fff;}.cls-2{fill:#dcdddd;}.cls-3{fill:#ffe100;}.cls-4{fill:#e60012;}.cls-5{fill:#45b035;}.cls-6{fill:#004ea2;}.cls-7{fill:#231815;}</style></defs><title>資產 4</title><g id="圖層_2" data-name="圖層 2"><g id="圖層_1-2" data-name="圖層 1"><path class="cls-1" d="M31.42,53.13a1.4,1.4,0,0,0-.4-.21v0l-.28-.26a3,3,0,0,0,0-.31,2,2,0,0,0-.2-1,1.21,1.21,0,0,0-.72-.57s0-.06-.06-.08l-.05,0A.57.57,0,0,0,29.3,50l-.22-.09v-.17c0-.38-.14-.36-.44-.59l-.4-.3a1.27,1.27,0,0,0-.8-.67,1.3,1.3,0,0,0-.37-.19L27,48l-.06,0v-.39a.83.83,0,0,0-.39-.76.32.32,0,0,1,0-.07,1.14,1.14,0,0,0-.18-.42v-.1a.9.9,0,0,0-.37-.75l0,0v-.2a.89.89,0,0,0-.36-.76L25.5,44c-.08-.31-.18-.34-.45-.52l-.07,0c0-.12,0-.29,0-.29a.78.78,0,0,0-.68-.8c-.06,0-.08-.09-.15-.11l-.29-.11-.13-.21a.73.73,0,0,0-.64-.38,1.61,1.61,0,0,0-.38-.16,1.36,1.36,0,0,0-.43-.29,1.18,1.18,0,0,0-.47-.41l-.44-.1c-.17-.34-.21-.5-.63-.53l-.33,0c-.07,0-.09-.1-.16-.13h-.05a.8.8,0,0,0-.74-.46c-.06-.26-.07-.36-.44-.42l-.57-.09-.29-.4c-.22-.29-.14-.36-.5-.4l-.32,0a1.19,1.19,0,0,0-.79-.28l-.42,0h-.32a3.17,3.17,0,0,0-.87.14l-.18.09-.23.12a1.09,1.09,0,0,0-.51.55,1.35,1.35,0,0,0-.51.44l0,.06a1.33,1.33,0,0,0-.92,1.09,1.32,1.32,0,0,0-.54.64,1.56,1.56,0,0,0-1,1l0,.11a1.45,1.45,0,0,0-.26.29,1.58,1.58,0,0,0-.16.35A1.42,1.42,0,0,0,9.4,44.17a1.48,1.48,0,0,0,0,.21v0a1.36,1.36,0,0,0,1.13,1.42h.1l.76.11a1.44,1.44,0,0,0,.93-.21.24.24,0,0,0,0,.08s-.05.07-.06.1-.12.09-.16.14a1.23,1.23,0,0,0-.88.28h0a1.27,1.27,0,0,0-.76.76.82.82,0,0,0-.56.25l-.81.09a1.2,1.2,0,0,0-.53.22H8.39c-.54,0-.73.34-.9.85L7.3,49a1.14,1.14,0,0,0-.07.41,1.26,1.26,0,0,0,.2.62.89.89,0,0,0-.17.54,4.52,4.52,0,0,0,.11.8l-.11-.5V51l.11,1.18c0,.46.23.5.63.62a1.12,1.12,0,0,0,.34.38c0,.25.09.51.09.51a1.28,1.28,0,0,0,.54.48,1.22,1.22,0,0,0,.38.43l.22.19a1.53,1.53,0,0,0,.31.57l0,.35a.71.71,0,0,0,.27.52.91.91,0,0,0,.11.52c-.08.28-.17.63-.19.71a1.37,1.37,0,0,0,.34.9,1.31,1.31,0,0,0,.91.48h.28a1.05,1.05,0,0,0,.6-.22,1.5,1.5,0,0,0,.76.19,1,1,0,0,0,.3.33,2,2,0,0,0,1.13.31l.07.11c.22.33.21.46.61.49l.25,0a.75.75,0,0,0,.67.42h.58a.7.7,0,0,0,.55.29l.36,0a1.3,1.3,0,0,0,.74.43l.26.31.43,0a1.51,1.51,0,0,0,1.33.45s.08,0,.12-.05a.56.56,0,0,0,.56.37h.21a1,1,0,0,0,.64.26h.12a1.14,1.14,0,0,0,.48.2l.2,0a1.28,1.28,0,0,0,.59-.05.45.45,0,0,0,.11,0,2.91,2.91,0,0,0,1.34-.29,1.45,1.45,0,0,0,.51-.38l.23-.24a1.31,1.31,0,0,0,.35.12,2,2,0,0,0,1.34-.24l-.28.05c.51-.1,1.21-.34,1.31-.85,0,0,.06-.28.1-.52a1.31,1.31,0,0,0,.29-.53,2.43,2.43,0,0,0,.14-.2l.08,0a.81.81,0,0,0,.58-.63l.24-.18a.92.92,0,0,0,.14-.13c.28-.07.41-.1.47-.49,0,0,0-.23.07-.43a1.35,1.35,0,0,0,.26-.57l.29-.23h0l0-.06a5.47,5.47,0,0,0,.26-.94,1.32,1.32,0,0,0,.37-.58,1.25,1.25,0,0,0,.47-1v-.39A1.29,1.29,0,0,0,31.42,53.13Z"/><path class="cls-1" d="M47.7,28.58a1.21,1.21,0,0,0-.19-.52v-.79a.38.38,0,0,0,0-.1l0,0a2.26,2.26,0,0,0,0-.26,1.52,1.52,0,0,0-.22-.78,1.47,1.47,0,0,0,0-.16,5,5,0,0,0,.05-.6,2.83,2.83,0,0,0-.07-.63,1.32,1.32,0,0,0-.31-.49c-.07-.28-.17-.72-.17-.72a2.79,2.79,0,0,0-.31-.28,1.25,1.25,0,0,0-.18-.45s0-.87,0-.88a1,1,0,0,0-.27-.69c0-.05-.12-1.06-.12-1.06a1.08,1.08,0,0,0-.21-.54c0-.2,0-.4,0-.4a.93.93,0,0,0-.19-.52,1,1,0,0,0-.24-.58c0-.25-.07-.52-.07-.52v-.06h0s0,0-.05,0l-.88-.76-.05,0L44,16.25a.64.64,0,0,0-.69-.35,1.49,1.49,0,0,0-1-.82,1.47,1.47,0,0,0-.21-.22l-.26-.17-.16-.11a1.27,1.27,0,0,0-1.3-.11l-.09,0-.45.06a1.17,1.17,0,0,0-.89.68.9.9,0,0,0,0,.16,1.25,1.25,0,0,0-.66.58l-.18.12c-.09.06-.13.15-.2.22a1.24,1.24,0,0,0-.59.34,1.29,1.29,0,0,0-.3.55,1.53,1.53,0,0,0-.17.27l-.23.17-.14.14a2.08,2.08,0,0,0-.2.21,1.3,1.3,0,0,0-.48.45,1.24,1.24,0,0,0-.39.4,1.18,1.18,0,0,0-.56.88,1.1,1.1,0,0,0-.25.7v.07l0,.4,0-.18a1.15,1.15,0,0,0,0,.26,1.33,1.33,0,0,0,.27.83,1.47,1.47,0,0,0,.51.41v.23a1.16,1.16,0,0,0-.14.34,1.33,1.33,0,0,0-.65.57h-.09a1.12,1.12,0,0,0-.32.12c-.23,0-.36,0-.51.32l-.43.89a1.27,1.27,0,0,0-.5.64l-.09.13a.88.88,0,0,0-.37.73v.24l-.11.15a.83.83,0,0,0-.46.75l0,.67h0a.87.87,0,0,0-.37.73,1.06,1.06,0,0,1,0,.15.65.65,0,0,0-.37.6s0,.38,0,.68a1.22,1.22,0,0,0-.12.19,1,1,0,0,0-.25.57L30.41,32v0l-.09,0-.16.24a1.26,1.26,0,0,0-.56.62,1.19,1.19,0,0,0,0,1.07,1.25,1.25,0,0,0-.28.77V35a1.34,1.34,0,0,0,.22.7l0,.21a1,1,0,0,0,0,.18,1.51,1.51,0,0,0-.07.37,1.19,1.19,0,0,0-.18.43,3.3,3.3,0,0,0-.07.77c0,.15,0,.29,0,.43a1.35,1.35,0,0,0-.16.49,1.85,1.85,0,0,0,0,.23,2.74,2.74,0,0,0,0,.43,1.55,1.55,0,0,0,0,.21s0,1,0,1c0,.3,0,.61,0,.89,0,.06,0,.1,0,.16a1.23,1.23,0,0,0-.25.72v.49a1.6,1.6,0,0,0,.13.62,1.45,1.45,0,0,0-.27,1.35v-.26a2.34,2.34,0,0,0,.15.65,1.72,1.72,0,0,0-.37,1,1.49,1.49,0,0,0,.17.58c0,.26,0,.81,0,.81a1.24,1.24,0,0,0,.38.9v0a1.58,1.58,0,0,0-.16.35,1.6,1.6,0,0,0-.43,1.35V50a1.6,1.6,0,0,0,.12.68,2.06,2.06,0,0,0-.13.94v.07l0-.15a1.38,1.38,0,0,0,.11.69.14.14,0,0,1,0,.06,1.53,1.53,0,0,0,0,.3,1.36,1.36,0,0,0,.16.62c-.05.11-.09.23-.16.36a.49.49,0,0,0-.05.24,1.49,1.49,0,0,0,.14.55l-.15-.31,0,.44v.06a1.72,1.72,0,0,0,0,.24,1.35,1.35,0,0,0-.09.33,1.51,1.51,0,0,0,.05.28v.07a2,2,0,0,0,0,.24,1.24,1.24,0,0,0-.24.93V57a1.59,1.59,0,0,0,.07.38,1.3,1.3,0,0,0-.26,1.2.93.93,0,0,0,.11.28,1.53,1.53,0,0,0,.18.49,1.19,1.19,0,0,0-.29.78v.39c0,.14,0,.26,0,.36s0,0,0,.06a.9.9,0,0,0,0,.23,1.42,1.42,0,0,0,0,.2c0,.05,0,.08,0,.13v.39a1.24,1.24,0,0,0,.25.76c0,.05,0,.11,0,.17l-.09.73-.08.55a1.64,1.64,0,0,0,0,.22,1.45,1.45,0,0,0,.56,1.18,1.58,1.58,0,0,0-.26.31,2.21,2.21,0,0,0-.16.84A2.07,2.07,0,0,0,28.75,68c0,.06-.05.2-.06.21v0a1.28,1.28,0,0,0,.18.63,1.12,1.12,0,0,0-.18.28,1.42,1.42,0,0,0-.13.12,1.31,1.31,0,0,0-.2.71,1.4,1.4,0,0,0,.11.53,1.5,1.5,0,0,0,.07.17s0,0,0,0v.1a1.34,1.34,0,0,0,.19.55,2.48,2.48,0,0,0-.19.88,1.93,1.93,0,0,0,0,.24,1.11,1.11,0,0,0,.19.43,2.5,2.5,0,0,0,0,.54v0a1.38,1.38,0,0,0,.34,1,1.42,1.42,0,0,0,.61.39c.05.29.11.6.11.6a1.07,1.07,0,0,0,.12.33s0,.1,0,.16l0,.16a1.79,1.79,0,0,0,.15.31,1.17,1.17,0,0,0,.11.33v0a1.69,1.69,0,0,0,.21.82,1.4,1.4,0,0,0,.76.63c0,.11.06.2.06.2a.38.38,0,0,0,.12.21.25.25,0,0,0,0,.08A1.39,1.39,0,0,0,32,80a1.29,1.29,0,0,0,.68.39,1,1,0,0,0,.39,0l.16,0,.28,0a1.18,1.18,0,0,0,.92-.35,1.24,1.24,0,0,0,.37-.94v-.18s0-.07,0-.12a1.22,1.22,0,0,0,0-.17,2,2,0,0,0,.36-.18,1.48,1.48,0,0,0,.57-1.15v.13c0-.17,0-.77,0-.77a1.18,1.18,0,0,0-.06-.27,1.28,1.28,0,0,0,.73-.64l.29,0,.12,0a1.2,1.2,0,0,0,1.1.85l.1.14a.94.94,0,0,0,1,.41.69.69,0,0,0,.31-.15h.09a1,1,0,0,0,1.18-.8l.13-.44a1.19,1.19,0,0,0,.26-.33,1.63,1.63,0,0,0,.12-.59.43.43,0,0,1,0,0,1.14,1.14,0,0,0,.19-.57v-.06s0-.62,0-.66l.05,0c.33-.23.5-.3.52-.71l.05-.82a1.36,1.36,0,0,0,.12-.45,1.7,1.7,0,0,0,.53-.21A1.58,1.58,0,0,0,43.13,70s0-.05,0-.08a1.25,1.25,0,0,0,.74-.61,1.78,1.78,0,0,0,.17-.84c0-.1,0-.19,0-.28a1.43,1.43,0,0,0,.14-.5v0c0-.07.09-.48.12-.65a1.29,1.29,0,0,0,.29-.57,2.6,2.6,0,0,0,0-.46,1.44,1.44,0,0,0-.05-.31s0-.07,0-.12,0-.49,0-.63a1.29,1.29,0,0,0,.21-.67v-.39a1.15,1.15,0,0,0-.16-.58,1.21,1.21,0,0,0,.16-.59V61a1.26,1.26,0,0,0,.2-.58v-.2a3.12,3.12,0,0,0-.08-.69,2,2,0,0,0,.08-.35s.13-3.41.16-4.14a1.16,1.16,0,0,0,.23-.65V52.22a1.33,1.33,0,0,0,.19-.65v-.39a.44.44,0,0,0,0-.1.29.29,0,0,0,0-.09v-1.7a1.13,1.13,0,0,0,.2-.64c0-.07,0-.16-.06-.24s0-.12.05-.19l.11-1.42,0-.52a1.2,1.2,0,0,0,.25-.68v-1a1.42,1.42,0,0,1,0-.15,1.12,1.12,0,0,0,.2-.62s0-.93,0-.93c0-.28,0-.56,0-.81,0,0,0-.05,0-.08a1.15,1.15,0,0,0,.22-.53l.12-.91s0-.09,0-.12a1.23,1.23,0,0,0,.27-.59,17.9,17.9,0,0,0,.14-2.31s0-.57,0-1.06a1.14,1.14,0,0,0,.22-.66s0-.65,0-.91a1.18,1.18,0,0,0,.18-.6V32.85a1.22,1.22,0,0,0,.19-.62l0-1.13c0-.4,0-.81,0-1.22S47.74,29,47.7,28.58Z"/><path class="cls-1" d="M78.32,13.35l.1-.22a.94.94,0,0,0,.1-.4c0-.09-.08-.19-.11-.28a1.75,1.75,0,0,0,0-.24,2.26,2.26,0,0,0,0-.35,1.31,1.31,0,0,0-.19-.51s0-.09,0-.09a1,1,0,0,0-.25-.65c0-.24,0-.49,0-.49a1.31,1.31,0,0,0-.56-.58,2.07,2.07,0,0,0-.3-1.11V8.32a1.23,1.23,0,0,0-.2-.68V7.39A1.05,1.05,0,0,0,76.77,7a1.15,1.15,0,0,0,.1-.35.19.19,0,0,0,0-.08V6.5a1.27,1.27,0,0,0-.21-.59V5.76a1,1,0,0,0-.5-.86,1.17,1.17,0,0,0-.45-.58l-.19-.13-.4-.89c-.15-.32-.29-.37-.53-.37a.48.48,0,0,0-.19-.13,1.18,1.18,0,0,0-.51-.61,1.24,1.24,0,0,0,0-.27,1.33,1.33,0,0,0-.8-1.25,1.79,1.79,0,0,0-.43-.08,1.22,1.22,0,0,0-1-.59h-.78a1.12,1.12,0,0,0-.58.16,2.11,2.11,0,0,0-.94.15,1.24,1.24,0,0,0-.62.76,1.18,1.18,0,0,0-.37.43,1.94,1.94,0,0,0-.82.71L67,2.44s0,.19-.12.42a1.08,1.08,0,0,0-.38.23A1.75,1.75,0,0,0,66,4.38a1.79,1.79,0,0,0,.18.79,1.65,1.65,0,0,0,1.81.9,1.6,1.6,0,0,0,.52-.22l0,0a1.26,1.26,0,0,0-.53.71,1.38,1.38,0,0,0-.2.38l0,0-.12.18-.48.07a1,1,0,0,0-.52.22l-.43,0-.29.31a1.25,1.25,0,0,0-.91.59l-.59.16c-.3.09-.2.12-.37.37V9a1.29,1.29,0,0,0-.81.38,1.19,1.19,0,0,0-.3.52,2,2,0,0,0-.18.48.71.71,0,0,0-.74.69l-.06.56a1.19,1.19,0,0,0-.24.52l-.07.47a.93.93,0,0,0-.32.73s0,.17,0,.33a1.19,1.19,0,0,0-.17.44,1,1,0,0,0-.21.56s0,.39,0,.7a1,1,0,0,0-.19.57s0,.23,0,.46a1.11,1.11,0,0,0-.18.49l-.1.87a1,1,0,0,0-.29.69s0,.84,0,.94a.91.91,0,0,0-.11.16,1,1,0,0,0-.25.54l-.15,1.34s0,.11,0,.18a1.32,1.32,0,0,0-.23.53,1,1,0,0,0-.2.57s0,.27,0,.52a1.12,1.12,0,0,0-.18.48s-.09.63-.1.72a1,1,0,0,0-.27.57s-.09.58-.13.86a1.26,1.26,0,0,0-.46.7,1.37,1.37,0,0,0-.05.39,1.32,1.32,0,0,0,.05.26.45.45,0,0,0,0,.11l-.09,1.19s0,.23,0,.44a1,1,0,0,0-.25.64v.49a1.25,1.25,0,0,0-.38.63,2.43,2.43,0,0,0-.06.51,1.55,1.55,0,0,0,.09.51,2.55,2.55,0,0,0-.07.59v.17a1.3,1.3,0,0,0-.14.39.88.88,0,0,0-.21.57s0,.68,0,.94a1.17,1.17,0,0,0-.19.52s-.12,1.35-.13,1.48a1.06,1.06,0,0,0-.26.67v.69a1.21,1.21,0,0,0-.17.46,1.07,1.07,0,0,0-.22.61l0,.88V40a1.89,1.89,0,0,0,.05.23,1,1,0,0,0-.12.43s0,.07,0,.1-.06.08-.07.14-.15.84-.18,1a1.21,1.21,0,0,0-.3.77v.06a1.09,1.09,0,0,0-.16.49l-.11,1.44v.22c0,.14,0,.26,0,.38a1.51,1.51,0,0,0-.2.35,1.57,1.57,0,0,0-.29,1c0,.13,0,.26,0,.39a1.29,1.29,0,0,0,.24.66l-.25.11-.3,1.12a1.78,1.78,0,0,0,.1.5s0,.06,0,.1a1.38,1.38,0,0,0,.16.59c0,.43-.07.78-.08.86a1.28,1.28,0,0,0-.24.62.92.92,0,0,0,0,.16,1.36,1.36,0,0,0-.3.82,1.94,1.94,0,0,0,0,.24l0,.08a2,2,0,0,0-.07.23,1.29,1.29,0,0,0-.25.56,2,2,0,0,0,0,.33,1.29,1.29,0,0,0,.08.4.79.79,0,0,0-.06.22v.19a.71.71,0,0,0,0,.2v0a1.1,1.1,0,0,0-.2.5l-.09.66-.06.33a2.11,2.11,0,0,0,0,.26,2.54,2.54,0,0,0,0,.29h0a.24.24,0,0,1,0-.08h0a.19.19,0,0,0,0,.07,1,1,0,0,0-.05.12,1.89,1.89,0,0,0-.07.51h0s0,.06,0,.08a1.29,1.29,0,0,0-.65.67,1.82,1.82,0,0,0-.11.59,1.59,1.59,0,0,0,.21.71s0,0,0,.06a1.42,1.42,0,0,0,.07.42,1.12,1.12,0,0,0,0,.27v.4a1.45,1.45,0,0,0-.28.7v0a1.46,1.46,0,0,0-.17.68,1.49,1.49,0,0,0,.07.47,1.3,1.3,0,0,0,.08.17,1,1,0,0,0-.23.41,0,0,0,0,1,0,0,0,0,0,0,0,0,0,.75.75,0,0,0,0,.16,2,2,0,0,0-.07.46,1.42,1.42,0,0,0,0,.22,1.27,1.27,0,0,0-.4.93v.39a1.17,1.17,0,0,0,.12.52l0,.22v0a1.24,1.24,0,0,0-.31.7v0a1.33,1.33,0,0,0-.51.76h0c0,.1,0,.87,0,.87v.17a1.45,1.45,0,0,0,.1.41c0,.06,0,.11,0,.17a1.22,1.22,0,0,0,.05.37V69.4a1.83,1.83,0,0,0,.14.67c0,.2,0,.4,0,.58l0,.47a1.79,1.79,0,0,1,0,.24,1.28,1.28,0,0,0-.52.67,2.08,2.08,0,0,0-.07.51,1.54,1.54,0,0,0,.23.75s0,.07,0,.11h0a1.94,1.94,0,0,0-.19.68v.2a1.34,1.34,0,0,0,.1.38.94.94,0,0,0-.06.28,1.05,1.05,0,0,0-.21.59l0,.62a1.38,1.38,0,0,0-.41,1.21s0-.32,0-.32a1.52,1.52,0,0,0,.22.93l-.18.08s-.33,1.21-.35,1.27h0a1.38,1.38,0,0,0,.3.86v1.08a1.35,1.35,0,0,0-.18.62V82a1.09,1.09,0,0,0,.24.59,1.17,1.17,0,0,0-.09.42v.24a1.45,1.45,0,0,0-.1.41,1.24,1.24,0,0,0-.45.37,1.33,1.33,0,0,0-.24,1.17s0-.45,0-.45a1.56,1.56,0,0,0,.16.71,1.24,1.24,0,0,0-.48,1v.28a1.13,1.13,0,0,0,.21.62,1.89,1.89,0,0,0-.18.62A1.5,1.5,0,0,0,49,89.24a1.94,1.94,0,0,0,0,.24v.36a1.19,1.19,0,0,0,0,.26.8.8,0,0,0,0,.21v.1a2.19,2.19,0,0,0,0,.27.91.91,0,0,0-.14.48l0,.65s0-.25,0-.25a2.44,2.44,0,0,0,0,.27,1.86,1.86,0,0,0,.06.48.57.57,0,0,0-.32.53l-.05.54a1.6,1.6,0,0,0-.35.51,2.29,2.29,0,0,0-.37,1.23,1.52,1.52,0,0,0,.5,1.17.76.76,0,0,0,0,.15v.39a1.21,1.21,0,0,0,.15.57,1.25,1.25,0,0,0-.15.46c0,.17,0,.33,0,.49a9.48,9.48,0,0,0,.07,1.08c0,.28.06.61.06.88,0,0,0,.07,0,.11a1.64,1.64,0,0,0-.46.82.9.9,0,0,0,0,.28,1.25,1.25,0,0,0,.29.8l-.07.56a1,1,0,0,0,0,.17,1.29,1.29,0,0,0,.17.6,1.26,1.26,0,0,0-.17.6v.2c0,.07,0,.12.06.19a1.43,1.43,0,0,0-.07.28v.22a1.26,1.26,0,0,0,.21.55v.55a1.2,1.2,0,0,0,.14.5,1.72,1.72,0,0,0-.13.62v.69s0,.53,0,.54a.78.78,0,0,0,0,.22,2.33,2.33,0,0,0,0,.46s0-.25,0-.25a1.5,1.5,0,0,0,.2.9,2.15,2.15,0,0,0,0,.52,1.33,1.33,0,0,0,0-.24,1.39,1.39,0,0,0,.53,1.28,1.53,1.53,0,0,0,.6.26v.33a.77.77,0,0,0,0,.15,1.12,1.12,0,0,0-.22.16,2.17,2.17,0,0,0-.51,1.55,2.38,2.38,0,0,0,0,.47.53.53,0,0,0,.11.21.92.92,0,0,0,0,.16,2.64,2.64,0,0,0,.22,1,1.24,1.24,0,0,0,.42.56,1.25,1.25,0,0,0-.59.5,1.27,1.27,0,0,0-.06,1.25l.14.28a1.17,1.17,0,0,0,1.15.7h.29l-.39-.08a1.72,1.72,0,0,0,.84,0,1.26,1.26,0,0,0,1.08-1,1.41,1.41,0,0,0,0-.28c0-.05,0-.08,0-.12s0,0,0,0a1.43,1.43,0,0,0,0-.29.26.26,0,0,0-.05-.09l.24-.08a1.24,1.24,0,0,0,.81-1.19v-.28a1.46,1.46,0,0,0,.08-.5v0a1.3,1.3,0,0,0,.17-.61v-.2a1.26,1.26,0,0,0-.19-.64v-1.26a1.26,1.26,0,0,0,.19-.64v-.2a1.11,1.11,0,0,0-.16-.45,1.07,1.07,0,0,0,.21-.51,1,1,0,0,0-.05-.3l-.13-.43a1.17,1.17,0,0,0,.13-.4v-.06a.76.76,0,0,0,0-.21s0,0,0,.07l0-.44v0a1.08,1.08,0,0,0,0-.19,1,1,0,0,0,0-.15v-1.9a1.18,1.18,0,0,0,.2-.64v-.2a1.12,1.12,0,0,0-.17-.46,1,1,0,0,0,.21-.51,1.17,1.17,0,0,0,0-.3s-.06-.24-.12-.44a1.22,1.22,0,0,0,.13-.45,1.8,1.8,0,0,0,0-.22s0-.21-.07-.41a.85.85,0,0,0,.25-.63v-.32c.45-.11,1.39-.4,1.47-1.31,0,.05,0,.09,0,.13a1.2,1.2,0,0,0,.11.12v.06a.52.52,0,0,1-.1-.11c0,.07.07.14.11.2a1.19,1.19,0,0,0,.11.26,1.12,1.12,0,0,0,0,.36,1.37,1.37,0,0,0,.23.43,1.57,1.57,0,0,0-.35.61,1.74,1.74,0,0,0-.05.39,1.35,1.35,0,0,0,.43,1,1.48,1.48,0,0,0,1.51.3,1.81,1.81,0,0,0,.27.06,1.53,1.53,0,0,0,.34,0,1.27,1.27,0,0,0,.73-.17,1.25,1.25,0,0,0,.59-1.11V101.9a1.51,1.51,0,0,0-.37-1,1.79,1.79,0,0,0-.25-.22s0-.25,0-.47a1.27,1.27,0,0,0,1-1.23v-.27a1.41,1.41,0,0,0,.38-.84,1.22,1.22,0,0,0,.2-.65v-.09h.14l-.14,0v0a2.06,2.06,0,0,0,1.47-1.52l-.19.93A1.33,1.33,0,0,0,61.68,95a1.29,1.29,0,0,0-.87-.67.43.43,0,0,0,0-.11s0-.58,0-.75a1.12,1.12,0,0,0,.2-.58v-.1a1.22,1.22,0,0,0,.2-.53c0-.1,0-.19,0-.27s0-.06,0-.1a1.22,1.22,0,0,0,.14-.35l.15-.69v0c.15-.27.32-.55.32-.55s0-.12,0-.18a1.76,1.76,0,0,0-.1-.5,1.3,1.3,0,0,0,.43-.72,2.81,2.81,0,0,0,.06-.56,2,2,0,0,0-.24-1,1.18,1.18,0,0,0,.33-.61c.07-.12.19-.2.22-.34a1.79,1.79,0,0,0,.07-.51c0-.07,0-.12,0-.19a1.11,1.11,0,0,0,.41-.85V84.7c0-.07.12-.12.15-.21a1.72,1.72,0,0,0,.06-.44,1.42,1.42,0,0,0,0-.2c0-.14.16-.49.16-.49a1.23,1.23,0,0,0,.07-.42s0-.08,0-.12,0-.06,0-.1h0a1.23,1.23,0,0,0,.2-.6V81.2a.66.66,0,0,0,0-.15s0,0,0-.07a1.5,1.5,0,0,0,0-.2,2.49,2.49,0,0,0-.1-.61v0h0l.05,0c.06-.11.16-.18.2-.31a.86.86,0,0,1-.14.25l.46-.46a.18.18,0,0,1,.07,0s0,0,0-.05v-.13a1.57,1.57,0,0,0,.37-.3l.14-.16-.41.21a1.82,1.82,0,0,0,.93-1.29s0-.2,0-.24a1.92,1.92,0,0,0-.08-.47,2.3,2.3,0,0,0,.1-.35,1.33,1.33,0,0,0,.34-.84.74.74,0,0,0,0-.14,1,1,0,0,0,.07-.25v-.19a.19.19,0,0,0,0-.08.53.53,0,0,0,0-.12v-.39a1.5,1.5,0,0,0,0-.22c0-.12,0-.2.07-.37a.88.88,0,0,0,.3-.69v0a1,1,0,0,0,.2-.55s0-.47,0-.75a1.34,1.34,0,0,0,.07-.27,1.17,1.17,0,0,0,.06-.2s0-.08,0-.12v0s0-.08,0-.13,0-.44,0-.61a1,1,0,0,0,.26-.29.88.88,0,0,0,.3-.66l0-.73a1.11,1.11,0,0,0,.14-.35s0-.28.1-.52a1.16,1.16,0,0,0,.26-.39,1,1,0,0,0,.25-.54L67.78,66s0-.07,0-.09a1.17,1.17,0,0,0,.21-.45,1.3,1.3,0,0,0,.26-.63,1.48,1.48,0,0,0,0-.21,1.34,1.34,0,0,0-.22-.73v-.16c0-.25,0-.51,0-.74h0a1.27,1.27,0,0,0,.2-.44h0a1.19,1.19,0,0,0,.24-.72,1.13,1.13,0,0,0,0-.3.42.42,0,0,0,0-.12v-.17a.94.94,0,0,0,.19-.56v-.5a1.23,1.23,0,0,0,.36-.55,1.63,1.63,0,0,0,0-.4s0,0,0-.06a.88.88,0,0,0,.12-.21,2,2,0,0,0,.12-.74v-.07a1.34,1.34,0,0,0,.15-.48c0-.15,0-.29,0-.44a4.92,4.92,0,0,0-.29-1.69,1.34,1.34,0,0,0-.44-.58.3.3,0,0,1,0-.08l.33-.27a2,2,0,0,1,.21-.21c.08,0,.12-.12.19-.17a1.23,1.23,0,0,0,.8-.64,2,2,0,0,0,.18-.87c0-.14,0-.26,0-.38a1.08,1.08,0,0,0,.15-.47s.12-1,.12-1.06a1,1,0,0,0,.27-.66s0-.39,0-.66a1,1,0,0,0,.19-.58s0-.11,0-.18a1,1,0,0,0,.19-.59v-.4a1,1,0,0,0,.19-.58v-.09a1.31,1.31,0,0,0,.21-.58v-.13a1.55,1.55,0,0,0,0-.32,1.07,1.07,0,0,0,.2-.32,1.94,1.94,0,0,0,.06-.45c0-.05,0-.1,0-.15a1.32,1.32,0,0,0,.64-.52,1.26,1.26,0,0,0,.22-.69,1.44,1.44,0,0,0-.46-1c0-.29.06-.65.06-.65s0-.17,0-.31a1,1,0,0,0,.27-.66,1.08,1.08,0,0,0,.19-.51l.15-1.66,0-.26a1,1,0,0,0,.2-.55h0a.43.43,0,0,0,.23-.39,1.68,1.68,0,0,0,0-.2s0-.21-.08-.37a.88.88,0,0,0,.25-.54,1.33,1.33,0,0,0,.42-.7,1.66,1.66,0,0,0,0-.32,1.54,1.54,0,0,0-.21-.74,2.07,2.07,0,0,1,0-.21,1.36,1.36,0,0,0,.12-.27l0-.19a.86.86,0,0,0,.39-.74l0-.78a1.23,1.23,0,0,0,.19-.47s.11-.84.12-.94a1,1,0,0,0,.28-.69v-.94a.88.88,0,0,0,.17-.53s0-.16,0-.28a1.1,1.1,0,0,0,.21-.58h0a1.26,1.26,0,0,0,.17-.46s.08-.66.1-.85a1.15,1.15,0,0,0,.25-.46,1.22,1.22,0,0,0,.25-.51,2,2,0,0,0,0-.4,1.22,1.22,0,0,0-.06-.3,1,1,0,0,0,0-.18s0-.38,0-.6a1.2,1.2,0,0,0,.17-.47s.11-.8.13-.93a.94.94,0,0,0,.27-.67v-.3a1.21,1.21,0,0,0,.38-.63,1.32,1.32,0,0,0,0-.3.8.8,0,0,0,0-.15.25.25,0,0,0,0-.07L77.33,20s0-.18,0-.29,0,0,.08-.06A1.07,1.07,0,0,0,77.7,19a1,1,0,0,0-.06-.31l-.11-.32a.87.87,0,0,0,.07-.17s.05-.29.1-.54A.92.92,0,0,0,78,17s0-.43,0-.72a1.12,1.12,0,0,0,.2-.59v-.27a1.13,1.13,0,0,0,.19-.51v-.07a2.29,2.29,0,0,0,0-.25c0-.07,0-.11,0-.17a2.49,2.49,0,0,0,.07-.53A2,2,0,0,0,78.32,13.35Z"/><path class="cls-1" d="M105.61,60.16v-.74a1,1,0,0,0-.18-.56v-.15a1.17,1.17,0,0,0-.19-.57,1.38,1.38,0,0,0,.2-.64v-.71a1.1,1.1,0,0,0-.28-.71,1.19,1.19,0,0,0-.12-.22s0,0,0,0,0,0,0-.07a1.3,1.3,0,0,0-.27-.75,1.26,1.26,0,0,0-.61-.75l-.12-.19h0a1.16,1.16,0,0,0,0-.18,1.41,1.41,0,0,0-.07-.45h0a1.2,1.2,0,0,0,.06-.32V53l0-.38v-.17s-.06.19-.08.28v0a2.23,2.23,0,0,0,0-.36,1.31,1.31,0,0,0-.23-.79c0-.06-.12-.11-.17-.18a1.86,1.86,0,0,0-.58-.75s-.06,0-.09,0a1.52,1.52,0,0,0-.31-.31c0-.12,0-.25-.05-.39a1.74,1.74,0,0,0,.29-.25,1.29,1.29,0,0,0,.24-.75,1.4,1.4,0,0,0-.06-.41c0-.08-.08-.11-.11-.18a1.39,1.39,0,0,0,.18-.7,2,2,0,0,0,0-.23,1.26,1.26,0,0,0-.3-.66,1.34,1.34,0,0,0-.12-.3c.1-.16.22-.33.22-.33a1.49,1.49,0,0,0,.32-.8,1,1,0,0,0,0-.23,1,1,0,0,0-.63-.73l-.4-.16a1.52,1.52,0,0,0-.34-.33h0l-.13-.13-.15-.11a.63.63,0,0,0-.62-.69l-.44-.07-.12-.08a.84.84,0,0,0-.73-.38l-.51,0a.57.57,0,0,0-.54-.33l-.63,0a1.1,1.1,0,0,0-.58-.21h-.12a1.28,1.28,0,0,0-.43-.19,4.89,4.89,0,0,0-1.2-.05,1.19,1.19,0,0,0-.41-.15,1.31,1.31,0,0,0-1,.21l-.14,0a1.09,1.09,0,0,0-.43-.18,4.46,4.46,0,0,0-1.2-.06,1.33,1.33,0,0,0-.9-.14,1.38,1.38,0,0,0-.53.26,8.77,8.77,0,0,1-.9,0l-.84-.05a1.15,1.15,0,0,0-.7.2H87.16a1.17,1.17,0,0,0-.78.28l-.34,0a1.42,1.42,0,0,0-.65.6l-.26,0-.18.13a1.28,1.28,0,0,0-.52-.12H84a1.29,1.29,0,0,0-1.08.62,1.25,1.25,0,0,0-.58,1l0,.05-.13.06a1.37,1.37,0,0,0-.41-.1,1.46,1.46,0,0,0-1.18.49,2.84,2.84,0,0,0-.59,0,2,2,0,0,0-.34-.13l-.57-.1a1,1,0,0,0-.68-.31l-.85,0a.87.87,0,0,0-.52-.17h-.47a.94.94,0,0,0-.53-.19,1,1,0,0,0-.54-.19h0a1,1,0,0,0-.53-.19l-.81,0a1.17,1.17,0,0,0-.67-.2h-.8a1.73,1.73,0,0,0-1.28.62l-.09.13A1.25,1.25,0,0,0,70.64,45v.39a1.32,1.32,0,0,0,.14.56s0,.08,0,.11a1.24,1.24,0,0,0,.6.94l.16.12a1.16,1.16,0,0,0-.28.73v1a1.12,1.12,0,0,0-.36.36,2,2,0,0,0-.29,1.06.73.73,0,0,0-.19.2,1.25,1.25,0,0,0-.61.37,1.29,1.29,0,0,0-.31.75l-.36.06a1.38,1.38,0,0,0-.17.08,1.83,1.83,0,0,0-.88.15,1.25,1.25,0,0,0-.57.59,4.19,4.19,0,0,0-.43.47L67,53l-.45.3A1.27,1.27,0,0,0,66,54a3.91,3.91,0,0,0-.1,1A3,3,0,0,0,66,56a1.23,1.23,0,0,0,.49.63l.09.05a1,1,0,0,0,0,.18,1.15,1.15,0,0,0-.1.46v1A1.85,1.85,0,0,0,67,59.38a1.43,1.43,0,0,0,1.36,1.16h.15l.73,0,.09,0h0a.84.84,0,0,0,.39.15,1,1,0,0,0,.7.41.88.88,0,0,0,.43.15l.34,0a1.23,1.23,0,0,0,.38.19,1,1,0,0,0,.21.14l0,.11c.08.27.09.18.32.35l.33.24a1.24,1.24,0,0,0,.79.9c.07.16.17.35.17.35.16.35.31.35.58.34a1.31,1.31,0,0,0,.53.29l.3.39a.59.59,0,0,0,.54.27,1.12,1.12,0,0,0,.24.13l.33.38c.15.16.17.16.22.14a1.26,1.26,0,0,0,.68.45l.07.1c.23.34.37.52.78.54l1,0H79a1.34,1.34,0,0,0,.52-.14l1.09.14a1.09,1.09,0,0,0,.26,0,1.07,1.07,0,0,0,1,.4h.89a1,1,0,0,0,.55.17h.3l0,0a1.29,1.29,0,0,0,1,.57,2.5,2.5,0,0,0,1.75-.64l.13-.1h0s0,0,0,0h.07a.8.8,0,0,0,.64.5l1.18.17h0a1.25,1.25,0,0,0,.53.4,2,2,0,0,0,.67.1.94.94,0,0,0,.7.17l1.13-.17.18-.06a1.23,1.23,0,0,0,.41-.21l.49,0a.45.45,0,0,0,.38-.14l.25,0h.24l-.22-.06a1.43,1.43,0,0,0,1.15-.1,1.81,1.81,0,0,0,.43-.39,1.12,1.12,0,0,0,.3-.47,8,8,0,0,0,1-.2,1.09,1.09,0,0,0,.36-.28.73.73,0,0,0,.52,0l.77-.32a3.51,3.51,0,0,0,.66-.49l.67,0a1,1,0,0,0,.61-.19h1.22a1.16,1.16,0,0,0,1-.47,1,1,0,0,0,.46-.66,1.54,1.54,0,0,0,.29-.21,2.22,2.22,0,0,0,.6-.07,1.3,1.3,0,0,0,.69-.55,1,1,0,0,0,.58-.72l.13-.72a1.07,1.07,0,0,0,.15-.22l.46-.17a.76.76,0,0,0,.48-.82A3.67,3.67,0,0,0,105.61,60.16Z"/><path class="cls-1" d="M110.36,81H81.15V86a7.57,7.57,0,0,0-2.34-3c-1.85-1.42-4-1.93-8-1.93H58.32v27.74h9.27V99.63H70.1c3.75,0,5.68-.31,7.63-1.26a7.32,7.32,0,0,0,3.42-3.75v14.16h30.5V81ZM68.18,92.38h-.59V88.52h1.3c3.21,0,3.21.9,3.21,1.86C72.1,91.54,72.1,92.38,68.18,92.38ZM90.41,101V98.46h11V90.83h-11V88.75h11.78V101Z"/><path class="cls-1" d="M47.69,81v21.75L38,81H28.19l-2.6,6V81H0v7.71H8.07v20H25.79l1.92-4.91h10.1l2.07,4.91H57.17V81H47.69ZM17.52,88.75h7.31l-7.31,16.77ZM30.6,96.39c.6-1.52,1.2-3,2.08-5.24l2.1,5.24Z"/><path class="cls-2" d="M90.05,113.29h-5.3l-.08-.36h5.38v-1l1,.17a.19.19,0,0,1,.18.23q-.21.24-.39.48v.15h3.54l.82-.82,1,.8-.17.38H90.83v1h2.41l.83-.81,1,.8-.17.37H86.09l-.08-.36h4Zm-2.37,3.88a.34.34,0,0,1-.09.24,1.13,1.13,0,0,1-.31.06.93.93,0,0,1-.31-.06.35.35,0,0,1-.08-.27V115l.72.44h5.66l.44-.36.66.45a.22.22,0,0,1,.09.23.32.32,0,0,1-.22.24.15.15,0,0,0-.14.16v1.19q0,.11-.18.12l-.46,0q-.17,0-.15-.09V117H87.68Zm5.63-.55v-.87H87.68v.87h5.63Zm-8.23,3.1a.65.65,0,0,1-.45.15.34.34,0,0,1-.27-.15c-.15-.22-.07-.46.26-.7a2.21,2.21,0,0,0,.84-1.59h.24v.36h9.56l.55-.49.76.6c.16.1.23.22.19.36s-.17.24-.39.22a.36.36,0,0,0-.31.13c-.31.45-.59.83-.84,1.15l-.25-.13a6.17,6.17,0,0,0,.45-1.47H85.67A2.64,2.64,0,0,1,85.08,119.72Zm4.86,3H86.25l-.08-.36h3.77v-1l-3.37.22c-.06,0-.1.06-.11.17s-.1.27-.27.27-.24-.1-.28-.31-.14-.65-.2-1c.72.08,1.43.12,2.16.13a5.84,5.84,0,0,0,.73-1.48H86.46l-.08-.37h6.23l.79-.76.95.75-.17.38h-4.7a9.11,9.11,0,0,1-1.12,1.48,26.71,26.71,0,0,0,4.37-.43,2.19,2.19,0,0,0-.83-.31l.09-.29a5.69,5.69,0,0,1,1.31.29,3.06,3.06,0,0,1,1.07.62.76.76,0,0,1,.16.36.41.41,0,0,1-.08.32.58.58,0,0,1-.3.11.61.61,0,0,1-.28-.13,4.8,4.8,0,0,0-.66-.63c-.74.17-1.57.33-2.48.49v1.07H93l.79-.76,1,.75-.18.37H90.73V124h3.8l.83-.82,1,.8-.18.38H84.64l-.08-.36h5.38Z"/><path class="cls-2" d="M102,116.23H98.39l-.09-.36H102V112l.92.15c.21,0,.32.11.33.22s-.07.25-.24.31a.32.32,0,0,0-.22.28v11.46a.15.15,0,0,1-.14.15,4.62,4.62,0,0,1-.57.07c-.07,0-.09,0-.08-.14v-3.26a17.63,17.63,0,0,1-2.64,1.33c-.48.16-.72.29-.71.37s0,.31-.13.37-.27,0-.36-.2-.26-.62-.43-1a11.43,11.43,0,0,0,4.27-1.29h0Zm7.3-2.24c.25.19.48.37.71.53a.24.24,0,0,1,.1.22.21.21,0,0,1-.13.21.66.66,0,0,1-.23,0,.17.17,0,0,0-.16,0,8.12,8.12,0,0,1-3.54,2.3v5.62a1.43,1.43,0,0,0,0,.43.44.44,0,0,0,.31.21,5.57,5.57,0,0,0,1.18.08c.56,0,1,0,1.25-.08a.47.47,0,0,0,.26-.15c.2-.12.4-.63.59-1.52H110c0,.86,0,1.32.14,1.38a.45.45,0,0,1,.29.4c0,.23-.19.4-.56.51a9,9,0,0,1-2.26.24,15.2,15.2,0,0,1-1.69-.12,1.07,1.07,0,0,1-.54-.4,1.41,1.41,0,0,1-.15-.7V111.9l1,.18c.17,0,.25.14.25.28s-.12.22-.32.27a.14.14,0,0,0-.09.14v4.13h0A8.16,8.16,0,0,0,109.28,114Z"/><path class="cls-3" d="M30.2,72.87c-.32-.07-.16.53-.19.78h.39C30.24,73,30.45,72.92,30.2,72.87Z"/><path class="cls-3" d="M30.2,71.7v-.2c-.19,0-.42.59-.39.78H30v.39a2,2,0,0,1,.39-.19,2.33,2.33,0,0,1,0-.59C30.12,71.75,30.2,72.09,30.2,71.7Z"/><path class="cls-3" d="M29.62,69.94s.36.72.19.78c.58.12.49-.51.2-.39a2.32,2.32,0,0,0,0-.59c-.29-.22-.17.18-.2.2Z"/><path class="cls-3" d="M29.62,61.54h-.2v.39h.39c0-.35.17-.69-.19-.78s-.25.19,0,.19Z"/><path class="cls-3" d="M30,51.77a2.9,2.9,0,0,0,0-.59c-.31-.15-.17.41-.2.59Z"/><path class="cls-3" d="M30,49.62c-.33-.07-.16.34-.2.58h.39C30,49.61,30.28,49.67,30,49.62Z"/><path class="cls-3" d="M30,44.73h.39c0-.16-.36-.31-.2-.39.37-.19.32-.52.25-.6a1.58,1.58,0,0,1-.25.21C29.79,44.27,30.16,44.2,30,44.73Z"/><path class="cls-3" d="M30.4,43.76l0,0S30.41,43.72,30.4,43.76Z"/><path class="cls-3" d="M46.42,32.23a34.44,34.44,0,0,0,0-3.52h-.2c0-.44,0-.91,0-1.37H46V27h.19a.34.34,0,0,0-.19-.39c-.12-.5.12-1,0-1.56h-.2c-.17-.39,0-.59-.19-1,0-.07-.29-.14-.39-.19v-.39h-.2a10.44,10.44,0,0,1,0-1.37h-.19c-.13-.83-.09-1-.2-1.76h-.19c-.07-.31.07-.49,0-.78h-.2a2.91,2.91,0,0,0,0-.59h-.2c0-.24.11-.58,0-.78,0,0-.76-.57-.78-.59s-.09-.3-.19-.39h-.39v.2a3.81,3.81,0,0,1-.59.19c-.09-.34.13-.84,0-1.17-.06-.14-.43-.1-.59-.19V16a4.21,4.21,0,0,1-.58-.39c-.48.23-.2.05-.78.2.14.25.07.23.19.58h.2v.39h.19a2.75,2.75,0,0,0,.2.39h.39l.19.39h.2V18h-.39s-.18-.39-.2-.4c-.39-.14-.94,0-1.17-.19a3.64,3.64,0,0,0-.19-.78h-.39v.19l-.59.39v.39c-.15.07-.48-.1-.59,0V18H38v.19c-.44.21-.53.56-1,.78v.2h-.2v.39h-.39v.19l-.39.2v.19c.11-.3.2.2.2.2a2.79,2.79,0,0,1-.39.2,2.81,2.81,0,0,1,0,.58A3.29,3.29,0,0,0,37,20.9c-.12.6-.09.88-.2,1.56h-.19c0,.25.09.55,0,.78h-.2c-.08.24,0,.44-.19.59s-.55.08-.59.19v.39c-.28.2-.44.09-.78.2v.19H34.5c-.07.06-.08.6-.19.79l-.4.19v.39h-.19v.39h-.2c-.05.17.06.43,0,.59h-.19v.39l-.14.06-.06.13h-.19c-.1.32.1.68,0,1h-.2v.39h-.19c0,.18.06.42,0,.59l-.39.19c-.09.28.07.69,0,1H32v.39h-.19c-.16.64,0,1-.2,1.56,0,.07-.32.13-.39.2s-.14.36-.2.39h-.19a.27.27,0,0,0,.19.39,5.48,5.48,0,0,1-.19,1h-.2V35c.33.17.09.18.2.59H31a4,4,0,0,1,0,1h-.19a5.61,5.61,0,0,1,0,.58h-.2a9.15,9.15,0,0,0,0,1.57H30.4a1.32,1.32,0,0,0,.19.78H30.4a16.59,16.59,0,0,1,0,2.73h-.2c0,.13,0,.48,0,.59.16,0,.55.08.59.19.09.33,0,.11-.2.2a.58.58,0,0,1,0,.14.34.34,0,0,1,.17.06c.08,0-.17.32-.2.39.22.1.22.06.39.19-.08.33,0,.09-.19.39h-.2a7.49,7.49,0,0,0,0,1.57c-.56,0-.34-.23-.78,0a.5.5,0,0,1,0,.15s.07,0,.18,0a9.14,9.14,0,0,0,0,1.17c.21-.08.27-.33.58-.19v.39h.2v.39l-.39.2c-.09.31,0,.29.19.39L30.4,49h-.2c-.14.07.37.37.39.39a3,3,0,0,0,0,1.37c-1.05-.06-.44.62-.19.59,0,.35,0,.07-.2.19a.56.56,0,0,1,0,.15s.08,0,.17.05a1.88,1.88,0,0,0,0,.58s-.78.11-.39.39h.19V53c-.14,0-.09.08,0,.12v0h.05c.06,0,.12,0,.13,0h0c.14.29.07.12.19.4-.22.19-.09,0-.19.39-.18,0-.44-.08-.59,0a2.24,2.24,0,0,1,0,.58h.39v.39H30c-.26.2-.27.27-.2.27v.32h.39a3.19,3.19,0,0,0,.2.78c-.28.18-.1,0-.2.39-.17,0-.43-.08-.58,0V57a2.91,2.91,0,0,1,1-.19c-.17.35-.09.53-.19,1H30c-.11.22.1.36,0,.59h-.2a2.32,2.32,0,0,1,0-.59s-.81.54-.19.59a2.07,2.07,0,0,1,.06.24,1.66,1.66,0,0,1,.33.15,3.57,3.57,0,0,0,0,1h.39v.39H30v.39c-.37,0,0-.48-.59-.39v.39c.07.06.11.08.13.07a1.41,1.41,0,0,0,.07.32,1.71,1.71,0,0,1,.39-.19,2.25,2.25,0,0,1,0,.58,2.75,2.75,0,0,1,.39.2c0,.06,0,.25,0,.19s-.19.2-.2.2a.61.61,0,0,0-.19,0c0,.22.28.69.19,1H30v.4c-.14-.08-.22-.26-.39-.2a12.59,12.59,0,0,1-.2,1.37c.21.13.2-.36.59-.2l.19.59h.2c.3.12-.39.39-.39.39.09.27.29.19.19.59H30a4,4,0,0,0,0,.78.33.33,0,0,1-.2-.39c-.35,0-.24,1.06,0,1,0,0,.09-.67.2-.39l0,.14a.64.64,0,0,1,.15.06c0,.26,0,.54,0,.81a.1.1,0,0,0-.08,0c-.26,0-.12.34-.14.55h.27c0-.1,0-.24,0-.34h.14c0,.37,0,.78,0,1.17h-.2v.19c.55.27-.16,1.09.39,1.37v.19c-.2.19-.1,0-.19.4h-.2c0,.16.39.39.39.39a4.17,4.17,0,0,1,0,1.17c.12.06.17,0,.19,0a1.39,1.39,0,0,0,0,.17h-.2c.14.27.16.09.2.4-.21.1-.26-.18-.2.19h.2A9.83,9.83,0,0,0,31,75h.2v.39h.19c.1.31,0,.11-.19.2.14.47,0,.18.19.19v.39h.2c.06.24-.12.57,0,.78s.43.08.59.2,0,.33.19.58l.39.2c.09.24-.25.86,0,1s.22.07.2.19c0-.08.49,0,.58,0v-.39h-.19c0-.35,0-.08.19-.19-.09-.3.08-.49,0-.79h-.19v-.39h-.2c-.08-.3.09-.48,0-.78.18.12.6.07.78.2s0,.34.2.58c0,0,.35.16.39.2-.06-.25.06-.35,0-.59h-.19v-.39a.42.42,0,0,0-.16,0s0-.08,0-.14.32.08.2-.2l-.59-.39v-.39l-.39-.2v-.39c.33.08.85-.08,1.17,0,.07,0,.18.5.78.39V75a2.75,2.75,0,0,0,.39-.2v-.39a6.41,6.41,0,0,1,1,0,.3.3,0,0,0,.39.2c.27-.1-.3-.37.2-.2v.2h.39c0,.11.12.35.19.39H38v.39a2.25,2.25,0,0,0,.58,0,2.32,2.32,0,0,0,.2.39,2.9,2.9,0,0,1,.59,0,7.43,7.43,0,0,0,.19-.78h.2c.11-.28-.31-.16-.2-.59l.39-.19a4.84,4.84,0,0,1,0-1.37l.59-.39a4,4,0,0,0,0-1c.11-.06.16,0,.18,0a1.26,1.26,0,0,1,0-.16c-.24-.13-.22.16-.19-.2h.19s-.13-.31-.19-.2c.21-.4,0,0,.19-.19v-.39c.08-.07.75-.09.82-.15s.15.16.16.15c.26-.19,0-.86,0-1.17h.39s.15-.31.2-.39h.39a3.57,3.57,0,0,0,0-1c.11-.06.16-.05.18,0a1.39,1.39,0,0,1,0-.17h-.19V67.4h.19c.15-.55.08-.61.2-1.17h.19c.06-.34,0-.49-.19-.59v-.2h.19a7.62,7.62,0,0,1,0-1.17h.2v-.39h-.2c0-.39,0-.79,0-1.17h.2V60.36h.19c0-.67-.2-.73-.19-1.17h.19c0-1.88.2-3.08.2-4.88h.19c.07-.91-.06-1.82,0-2.74h.2v-.39c0,.36-.2-.19-.2-.19h.2V48.64h.2s-.23-.38-.2-.58h.2c.13-1,.07-1.51.19-2.54h.2c0-.45,0-.92,0-1.37h-.2c.17-.14.07-.38.39-.39a17.94,17.94,0,0,1,0-2.54h.2c.13-.72.06-.78.19-1.57h.2c.2-1.43.06-2.45.19-3.9H46c0-.54,0-1,0-1.57h.19c.06-.63,0-1.31,0-2Z"/><path class="cls-3" d="M33.19,27.6c.08-.28-.27.08,0,0Z"/><path class="cls-3" d="M30.23,51.72c-.1,0,0,.17,0,0Z"/><path class="cls-3" d="M30.05,67c-.14,0,0,.16,0,0Z"/><path class="cls-3" d="M30.62,43.31c-.1,0,0,.16,0,0Z"/><path class="cls-3" d="M40.74,71.47c0,.06,0,0,0,0Z"/><path class="cls-3" d="M29.68,58.65c-.41-.12.09.48,0,0Z"/><path class="cls-3" d="M42.89,67.76c0,.06,0,0,0,0Z"/><path class="cls-3" d="M29.83,46.06c-.06,0,0,.1,0,0Z"/><path class="cls-4" d="M12.3,42.58v.14h.28c0-.23.12-.54-.14-.55S12.09,42.77,12.3,42.58Z"/><path class="cls-4" d="M11.89,43.26v.14c.38.06.47-.38,0-.41C11.73,43,11.62,43.26,11.89,43.26Z"/><path class="cls-4" d="M11.65,44.62v-.14c.09-.07.46-.18.14-.27,0,0-.13-.25-.14-.28a5.61,5.61,0,0,0-.82,0c-.25,0-.11.32-.14.55A8.9,8.9,0,0,1,11.65,44.62Z"/><path class="cls-4" d="M11.48,57.1c-.26,0-.1.21-.14.41h.28C11.58,57.31,11.73,57.1,11.48,57.1Z"/><path class="cls-4" d="M14.18,40.83c0-.11-.2-.39-.2-.39-.3-.07-.14.2-.19.39Z"/><path class="cls-4" d="M29.81,53.92c-.09-.08,0-.47,0-.59a2.75,2.75,0,0,0-.39-.2,3.53,3.53,0,0,0,0-1.17H29v-.19l-.59-.39V51c-.16-.14-.45,0-.58-.2s.05-.43,0-.59l-.78-.58v-.2h-.39v-.19h-.4V49l-.58-.39c-.12-.21.06-.54,0-.78h-.2c-.19-.46-.05-.32-.19-.78h-.2c-.07-.16,0-.41,0-.59h-.19V46.1h-.2c-.09-.23.06-.36,0-.58h-.19c-.12-.46,0-.6-.2-1l-.59-.39c-.08-.16.06-.42,0-.59h-.19v-.19c-.12-.07-.48-.13-.59-.2l-.19-.39h-.39v-.2H22a2,2,0,0,1-.2-.39h-.39s-.18-.38-.2-.39c-.35-.19-.43,0-.78-.19l-.19-.39c-.17-.07-.43.08-.59,0V41a3.59,3.59,0,0,0-.58-.19v-.2c-.21-.05-.41.1-.59,0l-.2-.59c-.13-.09-.42.07-.58,0l-.59-.78c-.21-.1-.37.05-.58,0v-.19a5.35,5.35,0,0,1-1,0l-.39.19v.2c.5-.34,0,.58,0,.58-.19-.09-.28.14-.2-.19h-.39c-.12.19,0,.76,0,1l-.39.19v.2a3.45,3.45,0,0,0-1,.19s.33.67.39.78h.59V42c.23,0,.2.19.78.19a3.72,3.72,0,0,1,0-.58s-.43-.23-.19-.39.71-.06,1-.2v.2h.39v.19c.31.15.45.5.79.59v.39a7.75,7.75,0,0,0-1.18,0s.18-.91.2-1h-.39c-.08.28-.07,1-.2,1.37H15v.39a3.74,3.74,0,0,0-.58,0,9,9,0,0,1,0,1.37c.26.14.47-.12.39.39l-.59.19a2.33,2.33,0,0,0,0,.59l-.13,0a.61.61,0,0,1-.07.15h-.39c-.19.3.34.48.2.58H13.4a.6.6,0,0,0,0,.16s-.07,0-.18,0c0,.21.09.6,0,.78a5,5,0,0,1-1.17-.2v.2h-.39v.39s.67,0-.2.2v.19c-.2.1-.37,0-.58,0v.2c-.69.14-.87.08-1.57.19v.2c-.24,0-.34-.06-.58,0l-.2.58H8.9s.18.36.2.39c.4-.33.34.36.39.39-.19.11-.32.35-.39.4-.24.14-.4,0-.59.19.11.2-.1.57,0,.78l.59.2v.39a2.86,2.86,0,0,1,.39.19c.06.17-.09.45,0,.59s.46.08.59.19v.4h.19v.19a1.76,1.76,0,0,1,.39.2c.05.07.11.53.2.58h.19c.07.17-.08.43,0,.59h.39s.27,1.1,0,.59v.19a2.33,2.33,0,0,0,.59,0v.2h.2v.39l.39.19c.13.35-.14.42.19.59v.19c.16.13.57-.06.78,0v.2H14V58c.33.21.8,0,1.18.2l.39.58c.18.07.41-.07.58,0l.2.39c.41.11,1-.14,1.37,0v.39c.16.08.42-.06.58,0v.2h.2V60h.39c.05,0,.15.37.2.39s.42-.06.58,0c0,0,.15.44.39.4,0,0-.18-.56.39-.4v.2c.34.18.44,0,.78.2a3.6,3.6,0,0,1,.2.39c.22.08.35-.06.59,0v.19a2.81,2.81,0,0,0,.58,0v.2l.25,0c-.13,0-.39-.12,0-.24a2.25,2.25,0,0,1,.58,0v.2a2.09,2.09,0,0,0,.78-.2,3.22,3.22,0,0,1,.59-.58v-.2h.39v-.2c.39-.07.37.19.39.2h.39v.2c.55.08.53-.24,1-.2.14-.4,0-.57.2-1h.19v-.39h.2V58.8c.1-.15.44-.11.58-.19v-.2l.39-.19v-.4l.59-.19c.07-.12,0-.44,0-.59h.2v-.39c.09,0,.34-.11.39-.19a3.2,3.2,0,0,0,.19-1.37h.39V54.5h.39v-.39C30.39,53.94,29.93,54,29.81,53.92Z"/><path class="cls-5" d="M55.31,49h.27c0-.19.12-.41-.14-.41S55.34,48.82,55.31,49Z"/><path class="cls-5" d="M55.58,61.48s.12-.24.14-.28h.13c-.05-.19.14-.75-.27-.54h-.14a3.24,3.24,0,0,0,0,.54C55.23,61.11,55.23,61.65,55.58,61.48Z"/><path class="cls-5" d="M55.17,62.44s-.05.31.14.13c0,0,.61-1.35.13-1h-.13a2.44,2.44,0,0,1,0,.54L55,62.3S55.08,62.68,55.17,62.44Z"/><path class="cls-5" d="M57.63,62.16V62c.16.07.24-.14,0-.14v-.14C57.42,61.77,57.42,62.15,57.63,62.16Z"/><path class="cls-5" d="M58.46,61.75c-.25,0-.4.46-.14.28v.13a1.87,1.87,0,0,1,.41,0C58.49,62,59,61.75,58.46,61.75Z"/><path class="cls-5" d="M55.31,63.26v-.14c.17,0,.24-.2,0-.14S55.05,63.31,55.31,63.26Z"/><path class="cls-5" d="M56.68,65.45a2.29,2.29,0,0,0,.13-.27s-.49,0-.13-.14c-.25,0-.08,0-.14.27C56.27,65.25,56.42,65.54,56.68,65.45Z"/><path class="cls-5" d="M57.36,65.31v.14h.14V65C57.26,65,57.09,65.5,57.36,65.31Z"/><path class="cls-5" d="M53.94,70.79h.27c0-.22.12-.69-.14-.68s-.08.08-.13.27C53.74,70.23,53.84,70.76,53.94,70.79Z"/><path class="cls-5" d="M54.07,71.48v.27a1.22,1.22,0,0,1,.28.14v.27c.06-.06.46,0,.55,0V70.79c-.2-.1-.12.15-.14-.14a1.36,1.36,0,0,1-.27.14,2.53,2.53,0,0,1,0,.55Z"/><path class="cls-5" d="M50.92,77.36s.35-.17.14-.27S51,77.27,50.92,77.36Z"/><path class="cls-5" d="M53.15,77.77c.37,0,.1,0,0,0Z"/><path class="cls-5" d="M53.11,77.78c-.38,0,0,.1.14.13-.15-.07-.15-.11-.1-.14Z"/><path class="cls-5" d="M56.4,78.19q.09,0,.12,0C56.87,78.05,55.28,78.38,56.4,78.19Z"/><path class="cls-5" d="M56,78.73c.12.09,0,.14.28.14,0-.24,0-.08.27-.14,0-.13.05-.4,0-.51a1.4,1.4,0,0,1-.25.1C56,78.4,55.57,78.42,56,78.73Z"/><path class="cls-5" d="M50.92,79.42c0-.21.12-.55-.13-.55s-.12.34-.14.55Z"/><path class="cls-5" d="M53.11,80.1c-.06-.27.09-.3-.13-.41v-.13c-.31-.08,0,0-.14.13H52.7c0,.19,0,.83.14.41v.14C52.9,80.21,53.05,80.06,53.11,80.1Z"/><path class="cls-5" d="M52.57,80.65v.28c.51,0,.46-.37,0-.42C52.36,80.49,52.36,80.65,52.57,80.65Z"/><path class="cls-5" d="M55.14,84c.08,0,0-.12,0,0Z"/><path class="cls-5" d="M54.62,84.21c.31-.08.36,0,.55-.13a.3.3,0,0,1,0-.11.22.22,0,0,1-.11,0,3.37,3.37,0,0,0,0-.55H54.9v-.13c-.1,0-.23.24-.41.13.07-.53,0-.68.13-1.23-.21-.06-.24.13-.27-.14a1.41,1.41,0,0,1,.41,0v-.27a1.78,1.78,0,0,0-.55.14v-.14c-.05-.25-.27.27-.27.27.24-.16.05.1.13.14.08-.25.21.2.14.41h-.27a8.46,8.46,0,0,0,0,1.51h.13c0,.08,0,.32,0,.41h-.13c-.1.31,0,.22-.14.54a2.28,2.28,0,0,1,.69,0,1.41,1.41,0,0,1,.13-.41h-.13v-.27C54.67,84.26,54.59,84.47,54.62,84.21Z"/><path class="cls-5" d="M50.24,87.36h.27v.14h.14c.12.38-.08,1,0,1.37h.14a2.8,2.8,0,0,0,0,.41c-.1,0-.2-.1-.28-.14v.14a1.38,1.38,0,0,0-.27.14v.41h.14a5,5,0,0,1,0,.55h-.14c0,.25.14.27.14.27a2.8,2.8,0,0,1,0,.41h-.14c0,.08,0,.33,0,.41H50.1c0,.12,0,.28,0,.41s.46.08.55.14.09.26.14.27.25-.07.41,0a2.44,2.44,0,0,1,0-.54c-.05.24-.14-.14-.14-.14-.08.25-.14-.14-.14-.14l.28-.14a2.44,2.44,0,0,1,0-.54h.41c0,.34-.17.53,0,.68.08,0,.32,0,.41,0l.14-.41H52v-.27h-.14c0-.09-.13-.55-.13-.55l-.41-.14a1.94,1.94,0,0,1,0-.68H51.2a8.85,8.85,0,0,0,.14-1c.25-.07.17.11.27-.14H52a8.44,8.44,0,0,0,.14,1.1c0,.06.25.1.36.22a5.74,5.74,0,0,0-.09.74c.2.13.06,0,.14.27h.27a2.53,2.53,0,0,0,0-.55c.26.15,0-.09.14-.13.2.17.12-.37.13-.42-.24-.08-.23,0-.41-.13v-.28A1.22,1.22,0,0,1,53,89v-.28c-.1,0-.21.12-.14-.13H52.7v-.28c.63,0,.41-.27.41-.27s-.32,0-.41,0a.32.32,0,0,1-.41.13L52,87.77a2.21,2.21,0,0,1,.41-.13V87.5a3.37,3.37,0,0,1-.55,0v.27a1.63,1.63,0,0,1-.54,0v-.13c0-.27,0-.06.13-.14a2.8,2.8,0,0,1,0-.41h-.13c0-.17-.07-.25,0-.41l.27-.14c.11-.28,0-.66,0-1h.14a3.86,3.86,0,0,1,0-.68,3.7,3.7,0,0,0-.55-.14v-.14c.06-.06.46,0,.55,0v-.68h.13c0-.25,0-.07-.13-.14v-.41h.13c.06-.34-.11-.77,0-1.09H52c.08-.18.09-.09.14-.28a2.8,2.8,0,0,0-.41,0h0c.16,0,.26,0-.12.14a2.53,2.53,0,0,1-.55,0,5.61,5.61,0,0,1,0,.82h-.14v.28c.14.06.17-.13.14.13h-.14v.28h-.13a3.25,3.25,0,0,1,0,.54h.27v.14h-.27a2.53,2.53,0,0,1,0,.55h.41V85a5.59,5.59,0,0,1-.55.28V87h-.27v-.27h-.14c-.08-.16-.06-.13-.14-.28h-.27v.28l.27.14A2.8,2.8,0,0,1,50.24,87.36Z"/><path class="cls-5" d="M51.73,82c-.24,0-.63.11,0,0Z"/><path class="cls-5" d="M53.11,83.94c-.26,0-.08.08-.13.27C53,84.21,54.24,83.94,53.11,83.94Z"/><path class="cls-5" d="M54.9,84.49c-.15,0-.28.46,0,.41C54.9,84.9,55.25,84.39,54.9,84.49Z"/><path class="cls-5" d="M50.1,85s1.11-.27.14-.27C50,84.76,50.15,84.85,50.1,85Z"/><path class="cls-5" d="M52.29,85.72v.14c.39.06.47-.38,0-.42C52.13,85.43,52,85.72,52.29,85.72Z"/><path class="cls-5" d="M53,85.44c-.25,0-.38.45-.14.28v.14h.27C53.08,85.64,53.24,85.46,53,85.44Z"/><path class="cls-5" d="M52.7,86.68h-.27c-.1-.32,0-.33-.14-.69h-.13c-.4.31-.17.5-.14,1.1.45,0,.26-.21.68,0s-.13.14-.13.14v.27a2,2,0,0,1,.54,0,10.09,10.09,0,0,1,0-1.1C52.64,86.46,52.85,86.6,52.7,86.68Z"/><path class="cls-5" d="M53.66,87.91c0-.21.11-.55-.13-.55s-.12.34-.14.55Z"/><path class="cls-5" d="M50.1,88.32v-.14h.14s-.24-.49-.14-.54C49.82,87.72,49.67,88.6,50.1,88.32Z"/><path class="cls-5" d="M54.07,87.64c-.27,0-.09.08-.13.27C53.94,87.91,55.25,87.64,54.07,87.64Z"/><path class="cls-5" d="M55.31,87.77c-.27,0-.09.09-.14.28C55.17,88.05,56.17,87.77,55.31,87.77Z"/><path class="cls-5" d="M53.94,88.18c-.44.19-.33.42-.55.83.09,0,.21-.12.14.13h.27V89h.14C54,88.84,54.22,88.06,53.94,88.18Z"/><path class="cls-5" d="M53.66,89.42c-.31,0-.37.55,0,.55v.13C54,90.14,54.09,89.48,53.66,89.42Z"/><path class="cls-5" d="M52,90.1c-.22-.11-.11.18-.14.28S52.23,90.2,52,90.1Z"/><path class="cls-5" d="M52.84,92a2.23,2.23,0,0,1,.14-.27h-.14c-.09-.08.14-.26-.14-.14a5,5,0,0,1,0-.55l-.1,0s0,0,0-.1h-.14a2.81,2.81,0,0,0,0,.41h-.14l.14.69A1.87,1.87,0,0,1,52.84,92Z"/><path class="cls-5" d="M52,91.88c.25.14.13-.3-.27-.27s-.11.2-.14.41c.08,0,.33,0,.41,0Z"/><path class="cls-5" d="M53.94,92.7v-.27a2,2,0,0,1-.55,0L53.11,92c-.38-.1.08,0-.13.14-.23-.2-.09.11-.14.13H53v.28a1.41,1.41,0,0,1,.41,0c0,.21.16.89-.28.68,0,0,.07.51.14.28,0,0,.17.27.14.27s.26-.1.27-.14c.1-.25-.07-.56,0-.82Z"/><path class="cls-5" d="M52.43,92.16c-.24-.12-.11.18-.14.27S52.64,92.26,52.43,92.16Z"/><path class="cls-5" d="M52.7,93.25c-.24-.06-.17.14,0,.14v.14C53,93.58,52.85,93.29,52.7,93.25Z"/><path class="cls-5" d="M52.43,93.66v-.27C52.23,93.43,52,93.77,52.43,93.66Z"/><path class="cls-5" d="M54.07,94.76c-.07-.07-.3,0-.41,0v-.14c-.39-.2.33-.45-.41-.41-.26,0-.1.2-.14.41h.28v.14h-.28c.06,0,0,.26-.13.55.34,0,.22-.13.27-.14.35-.09.38.12.82.14C54,95.23,54.16,94.83,54.07,94.76Z"/><path class="cls-5" d="M52.7,94.76c-.3-.09-.26,0-.54-.14H52v.28h.14l.27.41C52.85,95.46,52.64,95,52.7,94.76Z"/><path class="cls-5" d="M60.24,95.58c-.28,0-.09.07-.14.27a1.87,1.87,0,0,1,.41,0C60.31,95.74,60.87,95.55,60.24,95.58Z"/><path class="cls-5" d="M52,96c.1.09.12.61,0,.69.12,0,.28,0,.41,0s-.24-.23.14-.14a5.3,5.3,0,0,1,0-.69c-.14-.06-.16.1-.14-.13Z"/><path class="cls-5" d="M53.25,95.72h-.14A2.29,2.29,0,0,1,53,96H52.7a1.87,1.87,0,0,1,0,.41h.14v.14c.08,0,.17-.19.27-.14v.28h.28s.27.4.27.41.24-.13.28-.14c-.09-.26.1-.57,0-.82,0,0-.37,0-.41,0s0-.37,0-.41Z"/><path class="cls-5" d="M52.29,97.5v-.14c-.22,0-.39.45-.13.27v.14C52.7,97.66,52.44,97.43,52.29,97.5Z"/><path class="cls-5" d="M52.29,97.91c-.28,0-.07,0-.13.27H52a1.83,1.83,0,0,0,.14.28h.27v-.14C52.54,98.38,52.76,97.83,52.29,97.91Z"/><path class="cls-5" d="M53.11,99.28c-.25,0-.1.21-.13.41h.27C53.21,99.49,53.37,99.28,53.11,99.28Z"/><path class="cls-5" d="M53.11,100.1c-.56.05.28,0-.13.14H52.7c.24.06-.44.25.55.27C53.22,100.33,53.38,100.07,53.11,100.1Z"/><path class="cls-5" d="M53.53,100.37c-.27,0-.09.09-.14.28C53.39,100.65,54.6,100.37,53.53,100.37Z"/><path class="cls-5" d="M50.24,114.07h.14c.08.24,0,.22.13.41h.28a2.81,2.81,0,0,1,0-.41c-.07,0-.1,0-.12,0s0-.05,0-.11h-.14v-.14c.3.11,0-.05.14-.13h.14v-.14a1.5,1.5,0,0,0-.41-.14C50.32,113.05,50.22,114,50.24,114.07Z"/><path class="cls-5" d="M50.65,114.62c-.29-.15,0,.07-.14.13-.31-.25,0,.55,0,.55h.28C50.77,115.19,50.86,114.47,50.65,114.62Z"/><path class="cls-5" d="M51.88,115.85a5,5,0,0,1,0-.55C51.51,115.45,51.23,116.11,51.88,115.85Z"/><path class="cls-5" d="M50.92,117.49h-.68l.14.28a1.13,1.13,0,0,1,.41,0v-.14C51.27,117.7,50.62,117.64,50.92,117.49Z"/><path class="cls-5" d="M50,110.12c-.29-.15-.16.26-.2.39S50.26,110.26,50,110.12Z"/><path class="cls-5" d="M49.78,108.94c-.29-.14-.16.27-.19.39S50.07,109.08,49.78,108.94Z"/><path class="cls-5" d="M57,102.69c-.33.07-.54.58,0,.39C57,103.08,57.6,102.55,57,102.69Z"/><path class="cls-5" d="M57.8,101.72c0,.12,0,.48,0,.58h-.2s0,1.3.2.59c0,.35,0,.07.19.19a10.29,10.29,0,0,1,0-1.36Z"/><path class="cls-5" d="M57,100.93c-.12-.09-.43.39,0,.39v.4C57.51,102.07,57,100.93,57,100.93Z"/><path class="cls-5" d="M53.11,98.39c-.17,0-.79.58,0,.39v.39C53.78,99.36,53.48,98.51,53.11,98.39Z"/><path class="cls-5" d="M49.39,95.27c.12-.11-.12-.7,0-.79C49.07,94.64,49,95.63,49.39,95.27Z"/><path class="cls-5" d="M50.42,94.74c0-.2-.18,0,0,0Z"/><path class="cls-5" d="M52.52,101.32h-.2v.2h-.39l-.19.39h-.39V98.2h.19c0-.39,0-.79,0-1.18h-.19c-.07-.59,0-1.15,0-1.75h.19c-.12-.79-.08-1.21-.19-2l-.39.2v.39h-.39c-.1.17,0,.57,0,.78l-.15.06a1.3,1.3,0,0,1-.05.14c-.1-.08-.46-.42-.59-.4v-.39c-.37-.13-.08.45-.39.2,0,.17.39.39.39.39a6.48,6.48,0,0,1,0,1.76h-.19v.39h.19a5.72,5.72,0,0,1,0,1.17h-.19c-.1.94.3,2.24,0,3.13,0,.05-.32.08-.39.39h.39c-.06.57-.09.9-.2,1.56h.2c0,.38,0,.79,0,1.17h-.2v.2c.22.11.21.09.2.39-.24.12-.23-.17-.2.2h.2a11.41,11.41,0,0,1,0,1.17c.1.05.15.05.18,0a1.1,1.1,0,0,0,0,.16c.65,0-.2-.11.2-.19.7-.15-.26,0,.2.19.22.08.34-.05.58,0v.39h-.19v.4h-.2v.19h-.19a3.86,3.86,0,0,1,0-.59h-.4c-.05.2.17.49-.19.4a10.29,10.29,0,0,1,0,1.36h.19c-.11.57.48-.17.2-.39.06,0,.86.07.59.2a3.49,3.49,0,0,0,.39.19v.2h.19c-.06,0-.14.51-.58.39a5.6,5.6,0,0,1,0,.58h.19c0,.26-.09.55,0,.79l.39.19a5.35,5.35,0,0,1,0,1H51v.39h.19a4,4,0,0,1,0,1H51v.19c.36.19.15.84.19,1.37h.2c.25.13-.22,0-.2.59a2.55,2.55,0,0,0,.78,0c.1-.07-.14-.62.2-.78v-.2h-.2v-2.54h.2v-.2c-.18.14-.42-1.17,0-1.17,0-.24-.48-.74,0-1a2.8,2.8,0,0,1,0-.58h-.39v-.2c.32-.06.1,0,.39-.19v-2.54h.19v-.2c-.18.16-.4-1.17,0-1.17,0-.24-.45-.75,0-1,0,0-.2-1.13-.19-1.17h.19v-.39h.2C52.57,101.67,52.44,101.56,52.52,101.32Z"/><path class="cls-5" d="M50.57,93.31c-.24.06-.35.66,0,.59C50.57,93.9,51.1,93.17,50.57,93.31Z"/><path class="cls-5" d="M50,93.7h.2c0-.24-.08-.35,0-.58l-.4.19a2.91,2.91,0,0,0,0,.78H50Z"/><path class="cls-5" d="M55.65,82.18c-.3-.15-.17.26-.2.39S55.91,82.31,55.65,82.18Z"/><path class="cls-5" d="M52.32,82.76h.2v-.19a3.7,3.7,0,0,1,.78-.2c0-.13.08-.8-.19-.59v-.19a3.08,3.08,0,0,1-.4.19v.4h-.39A2.81,2.81,0,0,0,52.32,82.76Z"/><path class="cls-5" d="M54.54,81.37l.22.1c.09,0,.05-.17.14-.41.26.1.25-.38-.28-.27-.21,0-.15.22-.13.42h0c-.29-.15-.16.27-.19.39A.81.81,0,0,0,54.54,81.37Z"/><path class="cls-5" d="M53.3,80.61c-.29-.14-.18.77-.19,1,.08,0,.34-.23.39-.2S53.14,80.67,53.3,80.61Z"/><path class="cls-5" d="M54.28,80v.39h.19l.2-.59h-.2a5.78,5.78,0,0,1,0-.59,3.74,3.74,0,0,1-.58,0c0,.11-.37.12-.59.2a2.55,2.55,0,0,1,0,.78c.18,0,.53.44.39-.19A3.87,3.87,0,0,0,54.28,80Z"/><path class="cls-5" d="M52.71,79.24a1.67,1.67,0,0,1,.59,0c-.26-.15.45-.42-.39-.39C52.55,78.87,52.78,79,52.71,79.24Z"/><path class="cls-5" d="M54.47,78.85h.39c-.08-.42.16-.61-.19-.78v-.19c-.32-.16-.13.16-.2.19C54.08,77.74,54.47,78.85,54.47,78.85Z"/><path class="cls-5" d="M57.8,75.14V75a2.3,2.3,0,0,0-.79-.2c-.22,0-.34.2,0,.2v.19A2.61,2.61,0,0,0,57.8,75.14Z"/><path class="cls-5" d="M51,78.85v.2h.19a2.33,2.33,0,0,1,0,.59c.24.11.22-.18.2.19,0,0-.36.17-.39.2,0,.62,0,1.14,0,1.75-.13.06-.18,0-.2,0a.5.5,0,0,1,0,.18c.21-.13.73,0,1,0,0-.53,0-1,0-1.56h.19a5.82,5.82,0,0,0,0-1.18h-.19c0-.11,0-.45,0-.58h.19a5.08,5.08,0,0,0,0-.78h.2c.08-.53-.2-1.57.19-1.76v-.2c-.21-.11-.25,0-.19-.39h.19v-.39h-.19V75h.19c.12-.48.1-.57.2-1h-.2v.19c-.28.1-.49,0-.78,0,0,.37,0,.07.2.2a5.08,5.08,0,0,1,0,.78h-.2a2.91,2.91,0,0,1,0,.59h-.19a2.81,2.81,0,0,0,0,.58h.19a3.89,3.89,0,0,1,0,1.18h-.19c0,.12,0,.48,0,.58h-.2C51.05,78.44,51.36,78.77,51,78.85Z"/><path class="cls-5" d="M55,77a.27.27,0,0,0,0,.11C55.11,77.06,55.12,77,55,77Z"/><path class="cls-5" d="M55.45,73.77c-.19-.09-.26-.08-.19-.39h.19c0-.74.52-1.14-.19-1.56h-.2c-.08.32-.08.62-.2,1h-.39c-.06,0,.09-.45-.19-.2a2.33,2.33,0,0,1,0,.59l.39.19v.39a3.56,3.56,0,0,0-1,.2.5.5,0,0,1,0,.15s.08,0,.18,0a2.91,2.91,0,0,0,0,.59h.19c0,.51-.25.27-.19.59H53.5v.39h-.2c.13-.43-.32,0-.39,0,0,.36,0,.07.2.19a.34.34,0,0,0,0,.17s-.07,0-.19,0c0,.35,0,.63,0,1,.62-.08.24-.22.59-.2v.2h.39v-.2a3.5,3.5,0,0,1,1,0L55,77c0-.2,0-.57,0-.66h.2v-.19a5.38,5.38,0,0,1-.79-.2c.07-.13.09-.76.39-.58a3.87,3.87,0,0,1,0-.59h.4s-.18-.51-.2-.59S55.73,73.91,55.45,73.77Z"/><path class="cls-5" d="M55.06,77.1v0l0,0Z"/><path class="cls-5" d="M53.71,74.12c-.06,0,0,.12,0,0Z"/><path class="cls-5" d="M55,77.1c-.57,0-.2,0,0,0Z"/><path class="cls-5" d="M57,72v-.2c.35.07.16-.26-.19-.2h-.06s0,.09-.14.19C56.2,72.15,56.6,72,57,72Z"/><path class="cls-5" d="M56.76,71.63c0-.08-.51.09,0,0Z"/><path class="cls-5" d="M55.45,71.23c-.29-.14-.16.27-.19.39S55.73,71.37,55.45,71.23Z"/><path class="cls-5" d="M55.65,70.65c-.17,0-.41.47,0,.39v-.2h.19C55.64,70.74,56.1,70.52,55.65,70.65Z"/><path class="cls-5" d="M58.38,70.06c-.17,0-.4.47,0,.39v-.19h.2C58.37,70.15,58.83,69.94,58.38,70.06Z"/><path class="cls-5" d="M58.58,68.89c-.24-.07-.36,1,0,1a6.09,6.09,0,0,1,.19-1Z"/><path class="cls-5" d="M58.77,67.13c-.22.05-.34.65,0,.59C58.77,67.72,59.3,67,58.77,67.13Z"/><path class="cls-5" d="M54.47,68.11h-.19v.19a2.25,2.25,0,0,0,.58,0v.39h-.39a11.75,11.75,0,0,1,0,1.57s-.16.07-.19.39l.39-.2a1.61,1.61,0,0,0,0-.58h.19v-.2c.46.15-.08-.31.4-.19,0,0,.29.56.58.39,0,0-.08-.47-.17-.89-.55.1-1,.11.17-.29.18-.06.42,0,.59,0V68.5c.22,0,.2.23.78.19.06-.16-.05-.41,0-.58h.2v-.39h.19c.2-.48,0-.46.39-.79.14-.13-.32-.26-.19-.58H58a6.7,6.7,0,0,0,.39-.59c-.34.14-.87,0-1.17.2v.39h-.39c-.22.07,0,.29-.2.58h-.19l-.39.59a2.27,2.27,0,0,0-.78,0,2.33,2.33,0,0,0,0-.59c.25-.15.33-.26.58-.39v-.19c.17-.07.45.08.59,0-.17-.22-.14-.26-.39-.39v-.2c-.22.16-.27.08-.59.2v.19h-.39c-.13.17-.06.74-.2,1h-.39A5.32,5.32,0,0,1,54.47,68.11Z"/><path class="cls-5" d="M55.65,68.89a.29.29,0,0,0,0,.09C56.34,68.87,57.2,68.64,55.65,68.89Z"/><path class="cls-5" d="M58,65.37v-.19c.15-.08.41,0,.59,0a3.85,3.85,0,0,1,0-.59h-.2v.2c-.15,0-.35-.17-.19-.2C57.83,64.62,57.56,65.45,58,65.37Z"/><path class="cls-5" d="M58.77,63.61c-.29-.14-.16.27-.19.39S59.05,63.75,58.77,63.61Z"/><path class="cls-5" d="M51.74,73c.42-.21-.06.35,0,.39h.19a2.75,2.75,0,0,0,.2.39h.39c.09-.64,0-1.77.39-2,.17-.09-.23-.21-.2-.39h.2c0-.34-.13-.13-.39-.2v-.39h.19v-.19h.4c0-.32,0-.66,0-1-.12-.06-.17,0-.19,0a1.18,1.18,0,0,0,0-.16c.24-.13.21.16.2-.2h-.2s.16-.55.2-.2c0-.19-.08-.4,0-.58l.39-.2v-.19h-.2c.11-.72.11-.76.2-1.57,0,0-.52,0-.2-.19.12-.08.48-.12.59-.2a7.59,7.59,0,0,1,0-2.73c-.09.07-.78.38-.78.39-.19.52.3.54.19,1h-.19a2.38,2.38,0,0,1-.2.39h-.2v.39h.2c-.15.68-.08.85-.2,1.56h-.19c-.19.09.28.18.19.39h-.19v.39c-.66.23-.54,0-.59.2a3.39,3.39,0,0,0,0,.78h.39c.19.09-.25.18-.19.39h.39a.15.15,0,0,1,.06.17,1.69,1.69,0,0,0-.42,0c-.27,0-.09.09-.14.28,0,0,.3-.07.47-.14a.58.58,0,0,1-.17.11,4,4,0,0,0-.19,1.56c.21.11.26-.17.19.2h-.19c-.07.3-.09.65-.2,1h-.39C51.42,72.81,51.82,72.74,51.74,73Z"/><path class="cls-5" d="M58.19,63.42h.19v.19c.34.15.15-.24.2-.39L58.19,63C57.7,62.8,58.19,63.42,58.19,63.42Z"/><path class="cls-5" d="M54.67,64a5.8,5.8,0,0,0,0,.59h.19V64.2h.4a6.53,6.53,0,0,0,0,1.17,2.36,2.36,0,0,1,.39-.19v-.39a1.48,1.48,0,0,1,.67,0c-.11.59-.13,1,.3-.19.14-.43.06-.58.2-1-.4-.22-.32.19-.39-.39-.33-.11-.37,0-.59-.19l-.58.39c-.07.17.08.43,0,.58A1.94,1.94,0,0,0,54.67,64Z"/><path class="cls-5" d="M54.11,63.05l.17,0c.08,0,0-.2-.08-.36.1,0,.22-.41.27-.42h-.19a3.48,3.48,0,0,1,0-.79c-.09,0-.14-.05-.17,0a.49.49,0,0,0,0-.15h.2s-.1-.42.19-.2c0,0-.06-.83-.19-.19h-.39v-.2h-.2c0,.47.18.79-.19,1s.21,0,.19.59H53.3c-.18.12.15.54.2.39v.19c.23.06.35-.08.58,0s.16.18,0,.22l0,0c-.29-.15-.16.27-.19.39S54.29,63.19,54.11,63.05Z"/><path class="cls-5" d="M59.16,62.44c-.29-.15-.16.27-.19.39S59.44,62.58,59.16,62.44Z"/><path class="cls-5" d="M56.62,54.63c.17.14-.23.83.39.58l.2-.78A5,5,0,0,1,56.62,54.63Z"/><path class="cls-5" d="M57.21,53.45c-.29-.08-.29.2,0,.2v.19C57.61,53.92,57.37,53.5,57.21,53.45Z"/><path class="cls-5" d="M69.75,1.92c0-.12-.09,0,0,0Z"/><path class="cls-5" d="M58.78,70.92a3.9,3.9,0,0,0-.73.12.61.61,0,0,1,.14,0,.06.06,0,0,0,0,0l.56,0A.53.53,0,0,0,58.78,70.92Z"/><path class="cls-5" d="M56.13,93.71c-.15,0-.42,0,0,0Z"/><path class="cls-5" d="M76.94,14.57c0-.38.2-.39.2-.39.07-.31,0-.67-.2-.78s.19-.26.2-.39h-.2c.09-.36.26-.52.2-1h-.2a5.8,5.8,0,0,0,0-.59h-.19c0-.24.1-.57,0-.78s-.53,0-.59-.19c-.17-.42,0-1-.19-1.37l-.39-.2c-.09-.29,0-.3.19-.39V8.32c-.33-.17-.15-.35-.19-.78h-.2a5.21,5.21,0,0,1,0-.79c.24-.12.21.18.2-.19-.33-.15-.13-.19-.2-.59H75v.2h-.21c.15,0,.37-.08,0-.21H74.4V5.78a2.33,2.33,0,0,0,.59,0V5.39L74.4,5c-.06-.11-.16-.75-.19-.78h-.39l-.2-.4c-.11-.08-.47-.12-.58-.19s.28-.35.19-.39h-.39V3h-.39c0-.17-.34-.32-.2-.39.33-.17.29-.42.39-.78-.37-.15-.61.26-.78.2l-.19-.79c-.19,0-.4,0-.59,0h-.19v.2a3.22,3.22,0,0,0-1,0v.39a.42.42,0,0,1-.16,0,1.17,1.17,0,0,1,0,.15h-.19v.39a3.39,3.39,0,0,1,.78,0,5.72,5.72,0,0,1,0,1.17l.39.19c.07.32-.19.14-.39.2l.2.39c.22.09.35-.09.58,0v.2c.28.14.12,0,.39.19a3.87,3.87,0,0,0,0,.59,2.83,2.83,0,0,0-.39.19v.2c-.24.08-.58-.14-.78,0v.39h-.19s-.16.3-.2.39h-.39V7h-.39v.39h-.2v.39h-.19l-.39.59c-.3.18-.58.1-1,.19v.2c-.25,0-.56-.11-.78,0s-.13.25-.2.39H66v.39c-.25.15-.74,0-1,.2l-.4.58c-.14.05-.48-.1-.58,0v.2c-.44.21-.13.71-.39,1h-.2v.2h-.39c-.1.21,0,.54,0,.78h-.19c-.13.58-.05.61-.2,1.17h-.2c-.06.3.08.49,0,.78h-.19a2.91,2.91,0,0,1,0,.59h-.2c-.08.37,0,.8,0,1.17H61.9c-.06.36.05.64,0,1h-.2c-.11.67-.05.87-.19,1.56h-.2c-.07.43.09.95,0,1.37h-.19v.39h-.2c-.19.71,0,1.22-.19,2h-.2a2.81,2.81,0,0,1,0,.58h-.19c-.07.32,0,.66,0,1h-.2c-.11.57-.07.83-.2,1.37h-.19c-.18.69-.06.86-.2,1.56h-.39c-.06.26.22.18.2.59h-.2c-.11,1,0,1.37-.19,2.34h-.2c-.05.3.11.7,0,1l-.39.19c-.07.35,0,.49.2.59v.19c-.38.19-.12.9-.2,1.37h-.19c0,.13,0,.49,0,.59H58a12.52,12.52,0,0,0,0,1.37H57.8c-.13.91-.07,1.25-.2,2.15h-.19c0,.35.06.82,0,1.17h-.2c0,.13,0,.48,0,.58H57a8,8,0,0,0,0,1h.2c0,.43-.09.26-.2.59,0,0,.51,0,.2.19H57V41c.18.08.28-.14.2.19l-.39.2c-.2.52,0,.76-.2,1.37h-.19a6.77,6.77,0,0,1,0,.78h-.2c-.17.83.05,1.65-.19,2.54h-.2v.39h-.19a3.74,3.74,0,0,0,0,.58H56a5.24,5.24,0,0,1,0,1.37h-.2c-.11.44-.07.58-.19,1h-.2c-.08.35,0,.09.2.2-.11.75-.13,1.18-.2,2.14h-.19c0,.41.23.32.19.59h-.19c0,.07,0,.12,0,.15s-.08,0-.17,0c-.32.15.2.19.2.19a.56.56,0,0,0,0,.15s-.08,0-.17,0a1.61,1.61,0,0,1,0,.58h-.2v.39h-.19c-.06.38,0,.09.19.2,0,.4.1.43-.19.59v.19s.45.26.19.39h-.19v.2c.18.08.26.08.19.39h-.39A6.5,6.5,0,0,1,54.28,57h.1c-.05,0,0,.08.09.19s.13.06.39.19v.2a2.81,2.81,0,0,0-.58,0c-.09.33,0,.1.19.19v.39l-.39.2v.39h-.19v.19H53.5c-.16.42.34.37.19.78.23-.06.4-.34.78-.19v.39l.39-.2c.18-.46,0-1.78.4-2,0,0-.23-.38-.2-.58h.2a6.94,6.94,0,0,0,0-.79h.19c0-.3,0-.29-.19-.39V55.8h.19a7.83,7.83,0,0,1,0-1.37h.2c.15-.57.06-.59.19-1.17H56s-.11-.53-.2-.2v-.39c.07-.07.36-.13.39-.19.09-.23-.06-.36,0-.59H56v-.2h-.2c.31.16-.19.2-.19.2V51.5a7,7,0,0,1,.78-.2c0-.06,0-.57,0-.58.52-.22.52.3,1,.19-.09.28.07.69,0,1h-.2v.39h-.39c-.09.17.08.43,0,.59a7.66,7.66,0,0,0,1,.19s.18.19.19.2v.39H57.8V54h-.2c-.17.43-.05.68-.19,1.17H57c-.09.25.3.18.2.59l-.39.19a4,4,0,0,1,0,1,5.79,5.79,0,0,1-.59,0,4.13,4.13,0,0,0-.19.59h-.2V58c.11,0,.51-.06.59,0v.39c.17-.06.25.12.39.19.12-.1.11-.44.39-.39-.09.07,0,.47,0,.59s-.52.13-.78.19c.61.1-.19.33-.2.4v.17c-.07,0-.08,0,0,0v.17h.39l.19-.07a3,3,0,0,0,0,.47h-.2a3.94,3.94,0,0,0-.19.58c-.32,0-.58,1,.19.59v.19a2.55,2.55,0,0,1-.78,0c0,.18-.13.49.2.39.09.39.06.52.19,1h.2c.08-.3-.09-.49,0-.78h.19c.13-.45.06-.32.2-.78a2.9,2.9,0,0,0,.59,0c.24-.52,0-1.78.19-2.35H58c0-.1,0-.45,0-.58h.2c0-.37,0-.08-.2-.2,0-.11,0-.45,0-.58a3.57,3.57,0,0,0,1,0c0,.48.1,1.08,0,1.56h-.2a5.57,5.57,0,0,1-.19.78h-.2c-.38.19.59.19.2.39-.18.09-.3-.13-.2.2h.2v.39a2.33,2.33,0,0,1,.39.39h.39v-.2c-.43.18,0-1,0-1.17a.35.35,0,0,1-.2-.39h.2v-.39h.19c.16-.6.06-.83.2-1.37a7,7,0,0,0,1.37,0,13.41,13.41,0,0,1-.2,2.15h-.19v.39h-.39v.39h.39c-.1.43-.08.37-.2.78h-.19c-.11.1.25.29.19.59h-.39v.2c.41.2,0,1.08.2,1.17h-.2a5.61,5.61,0,0,1,0,.58h-.2c0,.27.22.18.2.59h-.2c0,.32,0,.66,0,1h-.19a11.6,11.6,0,0,0,0,1.56h-.2a10.44,10.44,0,0,1,0,1.37h-.39c-.08.29.08.48,0,.78H59v.39h-.2c-.07.06.22.34.2.59h-.2c0,.25,0,.42,0,.66.44,0,.73,0-.2.31a.3.3,0,0,1-.37-.15.61.61,0,0,1-.21,0,.34.34,0,0,1-.2.15v.39c.25.06.34.35.78.2l.19-.08c0,.34,0,.73,0,1.06h-.19v2h-.2V75H58c0,.23.26.28.39.39-.06.17,0,.41,0,.58h-.19v.39H58a8,8,0,0,0,0,1.76H57.8s.16.56.19.2c-.07.25.15.4-.19.39v.19c0,.58.27.74.19,1.37H57.8a6.77,6.77,0,0,1,0,.78h-.39a3,3,0,0,0,.39,1h-.2c-.1.53-.08.86-.19,1.37h-.2a6.28,6.28,0,0,0,0,1c.21.11.23-.14.2.2h-.2a5.8,5.8,0,0,1,0,.59H57c-.06.31.06.66,0,1h-.19a14.25,14.25,0,0,0,0,2c.22.11.24-.19.19.19,0,.06-.34-.17-.39-.19a5.08,5.08,0,0,0,0,.78h-.19c-.08.42.21.35.19.78h-.19c0,.38,0,.79,0,1.17h-.2c0,.38.05.79,0,1.17H56c0,.51.21.29.19.79l-.39.19s.14.58.2.2c.06.19.08.56.19.58h-.1c.1,0,.15.07-.09.19,0-.37-.2.19-.2.19H56a7,7,0,0,1,0,1.37h-.39c0,.33,0,.66,0,1H56v.39c-.11-.31-.2.19-.2.19H56v.4h.19v.39H56c0,.3,0,.47,0,.78h.19c0,.34,0,.46-.19.58v.2a2.36,2.36,0,0,1,.39.2v.19c-.54,0,0,.2,0,.2.1.4-.14.22.19.39v.19l.16.1,0,.1h.39v-.39h.2c.09-.32-.09-.85,0-1.18h.19v-.39a3.87,3.87,0,0,0,.59,0V99h.19v-.39a3.74,3.74,0,0,1-.58,0c.11-.33.19-.59.19-.59s.62,0,.78-.19,0-.47,0-.59H59v-.39h-.2a2.91,2.91,0,0,1,0-.59H59v-.39h.19c0-.17-.06-.41,0-.58h.2c0-.36,0-.08-.2-.2a6.41,6.41,0,0,1,0-1h.39c.05-.46-.09-.91,0-1.36h.2a5.8,5.8,0,0,0,0-.59h.19c.07-.6-.31-.57-.19-1h.39c.18-.53,0-.7.39-1,.17-.13-.39-.79-.39-.79l.39-.19a2.91,2.91,0,0,1,0-.59h.39c.11-.54-.05-.81-.39-1v-.2h.2c.09-.24-.1-.52,0-.78h.19a.73.73,0,0,0,.06-.14l.14-.06v-.39h.19c.08-.3,0-.29-.19-.39V85.5c.47-.24,0-.39.19-.78h.39c0-.11,0-.46,0-.59h.2c.08-.29-.27-.15-.2-.59h.2c.13-.38.19-.58.19-.58-.2-.11-.25-.08-.19-.39h.19a5.8,5.8,0,0,0,0-.59h.2a6.77,6.77,0,0,0,0-.78h-.2v-.39h.2a8.8,8.8,0,0,0-.39-1.37c.07-.06.48,0,.58,0,.09-.29.37-.34.4-.39a4,4,0,0,0,0-1h.39c.25.13-.33.3.19.2,0,0,.28-.36.39-.39,0-.39.07-.46-.19-.59V77.1a.45.45,0,0,0,.19-.59c-.15-.43-.35.47-.19-.2l.58-.39s-.44-.61,0-.39v-.19c-.11-.06-.15,0-.18,0a1.18,1.18,0,0,0,0-.16h.19v-.39c-.27-.15-.48.11-.39-.39h.39c.12-.45.09-.65.2-1.17h.19c.06-.25-.06-.35,0-.59h.2a4.59,4.59,0,0,0,0-1c.11-.05.16-.05.18,0a.64.64,0,0,1,0-.16c-.25-.12-.22.16-.2-.2H65a5.72,5.72,0,0,1,0-1.17h.19l.06-.14.13,0v-.39h.2c.09-.33-.08-.85,0-1.18h.2c.14-.39,0-.57.19-1h.2v-.4h.19c.2-.7,0-1.11.2-1.75h.19v-.39H67c0-.35,0-.09-.2-.2a18.27,18.27,0,0,1,0-2.34H67c.09-.35,0-.21.19-.4s-.22-.34-.19-.58h.19a5.08,5.08,0,0,0,0-.78h.2a11.41,11.41,0,0,1,0-1.17h.39c.08-.31-.31-.15-.2-.59l.4-.2a3.5,3.5,0,0,0,0-1h.19A3.74,3.74,0,0,0,68,56h-.2c-.1-.41-.34-.23-.39-.39a3.53,3.53,0,0,1,0-1.17h.19v-.2c.5-.25.68-.73,1.18-1v-.2h.39c.15-.33-.06-1,0-1.37h.19c.11-.75.08-1,.2-1.75h.19c.07-.39-.06-.8,0-1.18h.2a5.08,5.08,0,0,0,0-.78h.2c0-.32-.07-.66,0-1h.19c0-.1,0-.45,0-.58h.2c0-.41-.26-.32-.2-.59h.2v-.39h.19c.08-.34,0-.11-.19-.19a.45.45,0,0,0,0-.17s.08,0,.19,0c0-.32,0-.66,0-1l.59-.19v-.06c.3.16.47.19-.2-.33h-.19V43.1h.19c.11-.74.06-1.29.2-2h.19c0-.1,0-.45,0-.58h.2c.19-1,.08-1.55.19-2.54h.2c.11-.42-.15-.42.19-.59.07,0-.26-.34-.19-.59h.19v-.39h.2c0-.17-.06-.41,0-.58h.39c.07-.32-.39-.37-.39-.39v-.2h.19a5.09,5.09,0,0,1,0-1.17h.2c.16-.39.06-.36.2-.78h.19c.09-.34-.06-.83,0-1.17h.2c.14-.71.08-.88.19-1.57h.2c.07-.5-.09-1.07,0-1.56H74c.07-.3-.06-.48,0-.78h.2a2.91,2.91,0,0,0,0-.59h.19c.16-.61,0-.84.2-1.37h.19V25.9H75c.09-.44-.21-.33-.2-.78H75c.05-.38-.07-.79,0-1.17h.19c.15-.72.08-.86.2-1.56h.2c0-.27-.1-.55,0-.79l.39-.19c0-.2-.38-.31-.2-.39H76c.11-1,0-1.43.19-2.35h.2c0-.47-.3-.3-.2-.78h.2c.14-.55.07-.61.19-1.17h.2c.07-.32-.06-.84,0-1.17h.19a5.08,5.08,0,0,0,0-.78h.2C77.19,14.38,77.17,14.68,76.94,14.57ZM60.53,56c-.49.25-.28.72-.39.78s-.54-.08-.59,0c.08-.4-.14-.61.2-.78V55.8h.78Zm-.39-2.34c-.34-.12.37-.37-.2-.2a3,3,0,0,1,.2-.58h.2v-.2c-.69,0,0-.39,0-.39,0-.21-.39-.28-.2-.39s.41-.18.39-.59h-.19a1.61,1.61,0,0,1,0-.58s.36-.17.39-.39c.29.19.37.06.78.19a2.91,2.91,0,0,0,0,.59h-.39s0,1.54.19.78v.39h-.39c.07.29.3.64.2,1,0,0-.36.14-.39.39C60.49,53.59,60.37,53.73,60.14,53.65Zm1.56,2h-.13c.11,0,.19.06-.06.19,0-.21-.22.3-.2.39h.2a3.38,3.38,0,0,1,0,.78h-.2v.2c-.06,0-.87,0-.58-.2-.35.28,0-.78,0-.78h.19c.09-.3-.08-.49,0-.78h.2c.12-.42.06-.35.19-.78h.39v.19C61.9,54.33,61.75,55.32,61.7,55.6Zm.59-9.77-.39.59c-.93.38-.48-.59,0-.78v-.2h.39v-.19c.6-.22.21.43.39.58Z"/><path class="cls-5" d="M58,71.08s0,0,0,0S58,71.07,58,71.08Z"/><path class="cls-5" d="M67.76,4.8s.48-1.27-.2-.78C67.23,3.82,67,4.92,67.76,4.8Z"/><path class="cls-5" d="M68,3.82h.39c-.06-.3.14-.58-.2-.58S68,3.52,68,3.82Z"/><path class="cls-5" d="M68.93,3.24c0-.2.32-.7,0-.59S68.3,3.41,68.93,3.24Z"/><path class="cls-6" d="M81.88,45.73l-.14-.28c-.22,0-.16.18-.27.28A2.8,2.8,0,0,1,81.88,45.73Z"/><path class="cls-6" d="M91.85,42.46v.11A.21.21,0,0,0,91.85,42.46Z"/><path class="cls-6" d="M95,42.77v-.12S95,42.79,95,42.77Z"/><path class="cls-6" d="M83.48,44.66c0-.12-.09,0,0,0Z"/><path class="cls-6" d="M104.36,59.65h-.2a5.08,5.08,0,0,0,0-.78H104a4.84,4.84,0,0,1,0-1.37h.19a5.61,5.61,0,0,0,0-.58H104v-.39h-.2c-.15-.26-.08-.25-.19-.59.17.29.19-.2.19-.2h-.19v-.39h-.2l-.39-.58h-.2v-.39h-.19c-.08-.45.28-.3.19-.59h-.39V53.4c-.48-.33.14-.24.2-.2.46-.23-.53-.19.19-.19,0-.22-.09-.61,0-.78h-.39V52c-.77-.39.52.18-.19-.39h-.39v-.39l-.39-.19c-.16-.32,0-1.33-.39-1.18-.1,0,.19-.58.19-.58h.2c.08,0,.14-.3.19-.39h.2c-.14-.43-.23-.21-.59-.39.18-.34.08-.34.2-.79.23-.06.43.17.39-.19h-.2v-.39l-.39-.2v-.39H101c-.08-.26.08-.54,0-.78.28.14.07.13.39.2l.39-.59c-.2-.14-.42-.09-.59-.2V45c-.42-.22-.54-.57-1-.78V44c-.13-.08-.42,0-.58,0v-.19h-.39v-.2c-.29-.08-.7.09-1,0l-.2-.39c-.26-.1-.7,0-1,0V43h-.59v-.19a8.13,8.13,0,0,0-1.56,0v-.08l-.2.08c-.23.08-.35-.09-.58,0s-.19.08-.2.11v-.11a2.81,2.81,0,0,1-.58,0v-.2a9.15,9.15,0,0,0-1.57,0v-.08l-.19.08a8.41,8.41,0,0,1-2.35,0v.2c-.7,0-1.43,0-2.15,0V43c-.16,0-.42-.08-.58,0s-.11.33-.2.59c-.11,0-.47-.07-.58,0s.15.53,0,.59c-.53.16-1-.14-1.37-.2v-.19H84V44l-.39.2v.39a.45.45,0,0,1-.17,0,.58.58,0,0,1,0,.14c.12.06.32-.08.2.2s-.46,0-.59.19,0,.5,0,.59l-.39.2a1.61,1.61,0,0,0,0,.58l-.15.06a.39.39,0,0,1,0,.14c-.17-.06-.4,0-.58,0v-.2H81.5v-.19c-.24-.07-.37.08-.59,0L80.72,46c-.45-.14-.91.08-1.37,0v-.2c-.44-.12-.73-.1-1.17-.2v-.19c-.42-.09-1,0-1.37,0v-.2c-.32-.06-.66.06-1,0V45a3.74,3.74,0,0,0-.58,0v-.2c-.18,0-.41.05-.59,0v-.19a9.14,9.14,0,0,0-1.17,0v-.2a6.41,6.41,0,0,1-1,0l-.39.59h-.2v.39h.39c.13.33-.11.35-.19.59l.78.58s-.16,1.12-.2,1.37h-.19c0,.38,0,.6,0,1l.39.19v.39h-.2l-.19.39a2.91,2.91,0,0,0-.59,0c-.16.24,0,1.1-.19,1.37h-.39a3.5,3.5,0,0,1-.2.39h-.39s-.19,1-.19,1c-.24.2-.68.07-1,.19l-.2.39c-.47.09-.34-.4-.78-.19v.19c-.39.19-.5.51-.78.79l-.59.39a3.53,3.53,0,0,0,0,1.17l.59.39v.39H68a6.53,6.53,0,0,1,0,1.17h-.2c-.06.36.05.64,0,1,.43.13.49.07,1,.2v.19a3.87,3.87,0,0,1-.59,0v.39a6.77,6.77,0,0,0,.78,0v-.19a3.87,3.87,0,0,1,.59,0v.19a5.6,5.6,0,0,0,.58,0v.2c.18,0,.44-.08.59,0v.39a5.8,5.8,0,0,0,.59,0V60c.16.07.42,0,.58,0v.2h.39v.19h.39c.22.16,0,.35.2.59l.78.59V62h.39c.12,0,.1.5.2.58h.39c0,.06.19.39.19.39h.4a6.61,6.61,0,0,0,.39.59H76v.2h.19c0,.07.17.37.2.39h.39l.39.58h.39l.39.59a4.59,4.59,0,0,0,1,0v-.2c.73-.05.83.23,1.56.2v-.2a6.53,6.53,0,0,1,1.17,0c.29.06,0,.07.2.59.48,0,1.08,0,1.56,0v.19c.25,0,.56-.1.78,0l.39.59c.5,0,.85-.41,1.18-.59v-.19a4,4,0,0,1,1.56.19l.19.4c.52.17,1,0,1.57.19l.19.39a3.57,3.57,0,0,0,1,0v.2a2.63,2.63,0,0,0,1-.2v-.19c.28-.1.49.09.78,0,0,0,.13-.18.19-.2s0-.57,0-.59h.2v.2c.33.09.11.08.19.39a2.93,2.93,0,0,1,1,0,.6.6,0,0,0,0-.16s.07,0,.18,0a9.29,9.29,0,0,1,0-1.18c.2,0,.39.39.39.39s1.26-.15,1.37-.19l.39-.59a3.93,3.93,0,0,1,1,0v.2c.33,0,.14-.22.59-.2a3.74,3.74,0,0,1,0-.58,5.71,5.71,0,0,1,1.37,0V64h2c0-.06,0-.11.07-.14l.13-.05c0-.18-.1-.65,0-.79a3.74,3.74,0,0,1,.58,0,.82.82,0,0,0,0-.14.42.42,0,0,0,.16,0v-.39c.47-.15.43.35,1,.19,0,0,.15-.36.39-.39a11,11,0,0,0,.2-1.17h.2v-.39s.71-.14.78-.2C104.29,60.13,104.41,60,104.36,59.65Z"/><path d="M16.24,107.49H9.35v-20H1.28V82.33h23v5.14H16.24Z"/><path d="M100.89,87.47H89.1v4.65h11v5.06h-11v5.14H101v5.17H82.43V82.33h18.46Z"/><path d="M110.36,82.33v25.16h-6.92V82.33Z"/><path d="M55.89,82.33v25.16H49V82.33Z"/><path d="M66.3,107.49H59.61V82.33H70.8c3.76,0,5.61.41,7.24,1.66a7.72,7.72,0,0,1,2.67,6.24c0,3.28-1.34,5.89-3.54,7-1.72.83-3.44,1.13-7.07,1.13H66.3Zm1.88-13.83c3.86,0,5.2-.83,5.2-3.28,0-2.23-1.27-3.14-4.49-3.14H66.3v6.42Z"/><path d="M26.83,102.58l-1.91,4.91H18.06L29,82.33h8.1l11.25,25.16H40.73l-2.07-4.91Zm5.83-14.89-3.95,10h8Z"/><path class="cls-7" d="M162.37,47c-.29.32-.65.4-1.34.43a41.28,41.28,0,0,1-4.89,2.92l-.36-.22c.29-.93.65-2.37.9-3.53H134.25c.08,2.2-.86,3.75-2.08,4.32a2.13,2.13,0,0,1-3.1-1.11,2.18,2.18,0,0,1,1.51-2.59,4.1,4.1,0,0,0,2.56-3.53h.54a10.82,10.82,0,0,1,.5,1.91h22.28l2.16-2.16Zm-4.86,11.52s2.55,1.73,4.1,3c-.07.4-.47.58-1,.58H130.19l-.33-1h13.36v-3h-9.83l-.29-1h10.12V54.34c-2.24.29-4.61.61-7.17.9A2.15,2.15,0,0,1,135,56l-1.18-3.81a4.9,4.9,0,0,0,.89-.22,12.37,12.37,0,0,0,4.43-2.34h-3.78l-.29-1h15.7l1.84-2S154.7,48,156,49.08c-.07.4-.43.58-.94.58H144.62a48.88,48.88,0,0,1-7,2.77c3.49,0,8.57-.11,14.07-.29a23.24,23.24,0,0,0-2.55-1.54l.18-.47c9.11-.25,8.89,4.68,6.51,5.07.83.58,2.06,1.51,3,2.27-.11.4-.47.58-1,.58h-10v3h7.49ZM130.69,32.24h12.56V29.11l5.83.46c-.07.51-.32.87-1.29,1v1.66h6.4l2.31-2.59s2.63,1.76,4.25,3a.92.92,0,0,1-1,.58h-5.32c.46.32,2.52,1.8,3.92,2.91-.11.4-.47.58-1,.58h-24l-.29-1.05h10.15V33.25H131Zm20.7,6.66,2-2.16,4.21,3.13a2.22,2.22,0,0,1-1.29.68v3.24a8.56,8.56,0,0,1-3.74,1h-.83V43.47H139.54v.32c0,.36-2.08,1.3-3.88,1.3h-.58v-8l4.68,1.8Zm.36,3.52V39.9H139.54v2.52ZM149,54.52c-.07.5-.32.83-1.26,1V57h5l1.73-2.09a10.7,10.7,0,0,0-1.8-1.87l-8.21,1.15Zm-1.22-21.27v2.44h4.39l2.09-2.44Z"/><path class="cls-1" d="M143.25,29.11l5.83.46c-.07.51-.32.87-1.29,1v1.66h6.4l2.31-2.59s2.63,1.76,4.25,3a.92.92,0,0,1-1,.58h-5.32c.46.32,2.52,1.8,3.92,2.91-.11.4-.47.58-1,.58h-24l-.29-1.05h10.15V33.25H131l-.29-1h12.56V29.11m11,4.14h-6.48v2.44h4.39l2.09-2.44m-.87,3.49,4.21,3.13a2.22,2.22,0,0,1-1.29.68v3.24a8.56,8.56,0,0,1-3.74,1h-.83V43.47H139.54v.32c0,.36-2.08,1.3-3.88,1.3h-.58v-8l4.68,1.8h11.63l2-2.16m-13.86,5.68h12.21V39.9H139.54v2.52m19.08,1L162.37,47c-.29.32-.65.4-1.34.43a41.28,41.28,0,0,1-4.89,2.92l-.36-.22c.29-.93.65-2.37.9-3.53H134.25c.08,2.2-.86,3.75-2.08,4.32a2.55,2.55,0,0,1-1.14.27,1.93,1.93,0,0,1-2-1.38,2.18,2.18,0,0,1,1.51-2.59,4.1,4.1,0,0,0,2.56-3.53h.54a10.82,10.82,0,0,1,.5,1.91h22.28l2.16-2.16m-6,3.2S154.7,48,156,49.08c-.07.4-.43.58-.94.58H144.62a48.88,48.88,0,0,1-7,2.77c3.49,0,8.57-.11,14.07-.29a23.24,23.24,0,0,0-2.55-1.54l.18-.47H150c8.44,0,8.17,4.7,5.85,5.08.83.58,2.06,1.51,3,2.27-.11.4-.47.58-1,.58h-10v3h7.49l2.27-2.59s2.55,1.73,4.1,3c-.07.4-.47.58-1,.58H130.19l-.33-1h13.36v-3h-9.83l-.29-1h10.12V54.34c-2.24.29-4.61.61-7.17.9A2.15,2.15,0,0,1,135,56l-1.18-3.81a4.9,4.9,0,0,0,.89-.22,12.37,12.37,0,0,0,4.43-2.34h-3.78l-.29-1h15.7l1.84-2M147.75,57h5l1.73-2.09a10.7,10.7,0,0,0-1.8-1.87l-8.21,1.15,4.5.33c-.07.5-.32.83-1.26,1V57m-5.5-29v3.22H129.36l.37,1.27.29,1,.2.73h12v.44H131.79l.35,1.27.28,1,.21.74h1.45v4.91h-2l0,1a3.13,3.13,0,0,1-1.94,2.58A3.15,3.15,0,0,0,128.1,50,2.91,2.91,0,0,0,131,52.15a3.52,3.52,0,0,0,1.57-.37l.23.73L133.92,56h-2.13l.35,1.27.28,1,.21.74h9.59v1H128.49l.42,1.31.32,1,.23.7h31.18a1.78,1.78,0,0,0,2-1.4l.11-.57-.45-.37c-.89-.75-2.07-1.61-3-2.24a1.64,1.64,0,0,0,.44-.77l.17-.61-.49-.42c-.53-.44-1.19-1-1.82-1.44a2.66,2.66,0,0,0,.61-1.95A3.47,3.47,0,0,0,157,51a43.34,43.34,0,0,0,4.42-2.64,2.34,2.34,0,0,0,1.73-.75l.65-.72-.71-.66-3.74-3.57-.7-.67-.69.69-.6.6v-2a2.72,2.72,0,0,0,1.11-.83l.57-.8-.79-.58-1.79-1.33h.94a1.84,1.84,0,0,0,2-1.32l.18-.63-.52-.41c-.44-.35-1-.75-1.47-1.13h2.25a1.87,1.87,0,0,0,1.94-1.32l.18-.64-.53-.41c-1.63-1.27-4.2-3-4.3-3.06l-.73-.49-.58.65-2,2.26H149a2,2,0,0,0,1-1.52l.15-1.06-1.06-.08-5.83-.47L142.25,28Zm6.54,6.23h3.31l-.38.44h-2.93v-.44Zm-9.26,3.49H151.1l-.15.16H140l-.42-.16Zm1,3.16h10.21v.52H140.54V40.9Zm-.24,3.57h10.45v.09H140.23l.07-.09Zm-5.08,3.09h15.12l0,.06H135.21v-.06Zm-1.78,3.69a4.39,4.39,0,0,0,1-1.15l.15.56h1a5.78,5.78,0,0,1-1.09.36l-.08,0-.08,0a3.21,3.21,0,0,1-.66.15l-.21,0Zm11.42-.59H148l-.15.4.35.19-4.88.12c.54-.24,1-.48,1.52-.71ZM150,54.43l.87-.12,1.51-.21a9,9,0,0,1,.82.81L152.32,56h-3.1a1.87,1.87,0,0,0,.78-1.34l0-.23ZM138.12,56c1.28-.15,2.52-.32,3.73-.47l.37-.05V56Zm10.63,3h6.93l-.9,1h-6v-1Z"/><path class="cls-7" d="M182.06,54.81l.07.36a143.54,143.54,0,0,1-13.53,6.62,1.67,1.67,0,0,1-1,.94l-2.08-5.4c1.8-.18,5.29-.69,9.43-1.34V41.88h-8.21l-.32-1h8.53v-11l5.47.54c-.07.51-.33.87-1.3,1V55.31Zm15.15,2.44c1.16.51,1.48,1,1.48,1.77,0,1.83-1.66,2.63-7.31,2.63h-3.2c-3.6,0-4.68-.87-4.68-4V30l5.47.61c0,.47-.36.87-1.26,1v9.32h4.86l1.87-3.31s2.13,2.3,3.21,3.74c-.11.4-.44.58-.94.58h-9V56.43c0,.86.33,1.11,1.44,1.11h2.59c1,0,1.84,0,2.31,0A1.15,1.15,0,0,0,195,57a31.9,31.9,0,0,0,1.69-5.15H197Z"/><path class="cls-1" d="M174.9,29.93l5.47.54c-.07.51-.33.87-1.3,1V55.31l3-.5.07.36a143.54,143.54,0,0,1-13.53,6.62,1.67,1.67,0,0,1-1,.94l-2.08-5.4c1.8-.18,5.29-.69,9.43-1.34V41.88h-8.21l-.32-1h8.53v-11m8.6,0,5.47.61c0,.47-.36.87-1.26,1v9.32h4.86l1.87-3.31s2.13,2.3,3.21,3.74c-.11.4-.44.58-.94.58h-9V56.43c0,.86.33,1.11,1.44,1.11h2.59c1,0,1.84,0,2.31,0A1.15,1.15,0,0,0,195,57a31.9,31.9,0,0,0,1.69-5.15H197l.18,5.36c1.16.51,1.48,1,1.48,1.77,0,1.83-1.66,2.63-7.31,2.63h-3.2c-3.6,0-4.68-.87-4.68-4V30m-9.6-1.14V39.88H165l.42,1.3.33,1,.22.69h7.94V55.14c-4.05.63-7,1-8.53,1.19l-1.31.13.47,1.23,2.09,5.4.32.82.86-.21a2.59,2.59,0,0,0,1.51-1.13,143.18,143.18,0,0,0,13.19-6.46v1.54c0,4.18,2.08,5,5.68,5h3.2c4.21,0,8.31-.28,8.31-3.63a2.64,2.64,0,0,0-1.5-2.4L198,51.86l0-1h-2.08l-.21.73-.12.41a35.68,35.68,0,0,1-1.42,4.43l0,0h0l-.17,0c-.42,0-1.25,0-2.22,0h-2.59l-.44,0V42.92h8a1.82,1.82,0,0,0,1.9-1.31l.13-.47-.29-.4c-1.1-1.46-3.18-3.72-3.27-3.82l-.93-1-.68,1.2L192,39.91h-3.28V32.34A2,2,0,0,0,190,30.66l.07-1-1-.11L183.61,29l-1.11-.13V53.72l-.61.1-1.82.31V32.26a2,2,0,0,0,1.29-1.64l.15-1-1-.1L175,28.94l-1.09-.11Z"/><path class="cls-7" d="M230.15,32.06s2.85,2.12,4.5,3.63c-.07.4-.43.58-1,.58H219.86v4.82h5.51l1.9-2.19,4.22,3.16a2.55,2.55,0,0,1-1.48.76V53.47c0,2.78-.61,4.4-5.33,4.83a5.56,5.56,0,0,0-.72-2.95A4,4,0,0,0,221.23,54v-.5s2.91.18,3.78.18c.54,0,.72-.22.72-.65V42.1h-5.87V61.83c0,.28-1.37,1.18-3.64,1.18h-.82V42.1h-5.91V56.57c0,.47-1.83,1.4-3.63,1.4h-.61V39.26l4.53,1.83h5.62V36.27H201.07l-.29-1h26.85Zm-16.59-3c10.48.1,7.09,8.06,2.84,5.47a12.46,12.46,0,0,0-3.09-5.26Z"/><path class="cls-1" d="M213.56,29.11c9,.09,7.77,6,4.54,6a3.32,3.32,0,0,1-1.7-.52,12.46,12.46,0,0,0-3.09-5.26l.25-.21m16.59,3s2.85,2.12,4.5,3.63c-.07.4-.43.58-1,.58H219.86v4.82h5.51l1.9-2.19,4.22,3.16a2.55,2.55,0,0,1-1.48.76V53.47c0,2.78-.61,4.4-5.33,4.83a5.56,5.56,0,0,0-.72-2.95A4,4,0,0,0,221.23,54v-.5s2.91.18,3.78.18c.54,0,.72-.22.72-.65V42.1h-5.87V61.83c0,.28-1.37,1.18-3.64,1.18h-.82V42.1h-5.91V56.57c0,.47-1.83,1.4-3.63,1.4h-.61V39.26l4.53,1.83h5.62V36.27H201.07l-.29-1h26.85l2.52-3.2m-17-4-.28.25-.25.21-.8.69.72.76a12.46,12.46,0,0,1,2.7,4.25H199.46l.36,1.28.29,1,.21.73H214.4v2.82H210l-4.36-1.76-1.37-.56V59h1.61c1.84,0,4.63-.95,4.63-2.4V43.1h3.91V64h1.82c2.37,0,4.49-.94,4.63-2.06V55l.21,0a3.09,3.09,0,0,1,2.11,1,5,5,0,0,1,.5,2.38l.06,1,1-.1C230,58.82,231,56.8,231,53.47v-9.9a3.26,3.26,0,0,0,1.23-.85l.71-.81-.86-.64-4.21-3.17-.75-.56-.61.7-1.61,1.85h-4V37.27h12.82a1.76,1.76,0,0,0,2-1.4l.1-.54-.41-.38c-1.67-1.52-4.46-3.61-4.58-3.69l-.78-.59-.6.77-2.22,2.82h-6a3.24,3.24,0,0,0,.36-1.48c0-2.12-2.06-4.61-7.93-4.67Zm7.67,15h3.87v9.59c-1.06,0-3.41-.18-3.44-.18l-.43,0V43.1Z"/><path class="cls-7" d="M267.63,38.54c-.68,5.58-2.12,10.51-5,14.58a24.09,24.09,0,0,0,8.35,6l-.11.36a4.47,4.47,0,0,0-3.74,3.45,21.28,21.28,0,0,1-6.7-7.16A29.14,29.14,0,0,1,247.65,63l-.25-.4a26.77,26.77,0,0,0,11.45-10A45.21,45.21,0,0,1,256,42.28a21.28,21.28,0,0,1-4,4.32l-.43-.29a24.39,24.39,0,0,0,1-2.23h-4.28V54L255,52.43l.11.43c-3.35,1.84-8.35,4.32-15.69,7.45a1.6,1.6,0,0,1-.94,1l-2.23-4.68,2.23-.44V38.93l4.53.4c-.07.39-.32.68-1,.83V55.45l2.45-.54V34h-7.13l-.29-1h11.81L251,30s2.48,2,4,3.35c-.11.4-.47.58-1,.58h-5.65V43H249l2-3s1.26,1.16,2.45,2.31a56.3,56.3,0,0,0,3.06-13.18l6,1.37c-.14.47-.57.79-1.44.83a40.15,40.15,0,0,1-2.19,6.08h5.9l2.23-2.91s2.48,2,4,3.38c-.11.4-.5.58-1,.58Zm-9.36,0a30.73,30.73,0,0,1-1.58,2.77,30.46,30.46,0,0,0,3.56,8.6A34,34,0,0,0,263,38.54Z"/><path class="cls-1" d="M256.44,29.21l6,1.37c-.14.47-.57.79-1.44.83a40.15,40.15,0,0,1-2.19,6.08h5.9l2.23-2.91s2.48,2,4,3.38c-.11.4-.5.58-1,.58h-2.27c-.68,5.58-2.12,10.51-5,14.58a24.09,24.09,0,0,0,8.35,6l-.11.36a4.47,4.47,0,0,0-3.74,3.45,21.28,21.28,0,0,1-6.7-7.16A29.14,29.14,0,0,1,247.65,63l-.25-.4a26.77,26.77,0,0,0,11.45-10A45.21,45.21,0,0,1,256,42.28a21.28,21.28,0,0,1-4,4.32l-.43-.29a24.39,24.39,0,0,0,1-2.23h-4.28V54L255,52.43l.11.43c-3.35,1.84-8.35,4.32-15.69,7.45a1.6,1.6,0,0,1-.94,1l-2.23-4.68,2.23-.44V38.93l4.53.4c-.07.39-.32.68-1,.83V55.45l2.45-.54V34h-7.13l-.29-1h11.81L251,30s2.48,2,4,3.35c-.11.4-.47.58-1,.58h-5.65V43H249l2-3s1.26,1.16,2.45,2.31a56.3,56.3,0,0,0,3.06-13.18M263,38.54h-4.68a30.73,30.73,0,0,1-1.58,2.77,30.46,30.46,0,0,0,3.56,8.6A34,34,0,0,0,263,38.54M255.56,28l-.12,1.12c-.11,1-.24,2-.4,3-1.47-1.28-3.29-2.73-3.38-2.8l-.8-.64-.62.82-1.9,2.48H235.72l.35,1.27.29,1,.2.74h6.89v3.39l-.32,0-4.53-.39-1.09-.1V55.35l-1.42.27-1.28.24.56,1.18,2.24,4.68.38.79.84-.28a2.43,2.43,0,0,0,1.35-1.14c6.17-2.64,11.36-5.11,15.44-7.35l.68-.37-.19-.75-.11-.43-.24-1-1,.23-5.39,1.29V45.08h1.74c-.12.26-.25.51-.39.77l-.42.79.75.5.44.29.62.41.57-.47a22.46,22.46,0,0,0,2.73-2.7,45.26,45.26,0,0,0,2.28,7.85A26.1,26.1,0,0,1,247,61.69l-1,.49.6.94.25.39.41.64.72-.21a31,31,0,0,0,12.29-6.58,21.89,21.89,0,0,0,6.34,6.41l1.15.76.37-1.32a3.49,3.49,0,0,1,3-2.74l.59-.12.18-.58.11-.36.25-.84-.8-.36A23.27,23.27,0,0,1,263.9,53c2.36-3.58,3.84-7.9,4.61-13.48h1.39a1.91,1.91,0,0,0,2-1.32l.16-.6-.47-.41c-1.54-1.36-4-3.33-4.06-3.41l-.8-.65-.62.82-1.94,2.52H260.3a39.27,39.27,0,0,0,1.45-4.18,2.11,2.11,0,0,0,1.62-1.43l.31-1-1.05-.24-6-1.37-1.1-.25Zm-6.15,7h4.65a3.13,3.13,0,0,0,.44,0A55.89,55.89,0,0,1,253,40.6c-.75-.71-1.34-1.25-1.35-1.25l-.86-.79-.64,1-.69,1V35Zm9.47,4.57h3a34.17,34.17,0,0,1-1.76,8.08,30.43,30.43,0,0,1-2.33-6.14c.38-.6.73-1.23,1.11-1.94ZM243,40.87a2.08,2.08,0,0,0,.45-.3V54.11l-.45.1V40.87Z"/><path class="cls-7" d="M280.13,44c0,6.05-.4,13.9-7.13,19.08l-.36-.25c3.06-5.54,3.24-12.53,3.24-18.83V33.1l4.89,1.77h9.61l-.39-.22a12.14,12.14,0,0,0-3-5.33l.29-.21c7.45.36,7.63,4.57,5.58,5.76h7.56l2.23-3s2.52,2.05,4,3.46c-.07.39-.47.57-.93.57H280.13ZM290,37.92c-.14.4-.43.62-1.29.62a43.74,43.74,0,0,1-2.81,4.93l1.91.72c-.11.32-.43.54-1.12.65V61.9c0,.29-1.69,1.08-3.24,1.08h-.72V47.68A27.52,27.52,0,0,1,280.38,50l-.36-.36a47.53,47.53,0,0,0,4.89-13.75Zm13.25,2.27s2.12,2.13,3.2,3.49c-.07.4-.43.58-.9.58h-4.24V58c0,2.84-.65,4.46-5.44,4.93A4.53,4.53,0,0,0,295,60c-.62-.65-1.48-1.08-3.39-1.41v-.5s4.1.25,4.86.25.79-.18.79-.65V44.26h-8.56l-.29-1h8.85V36.34l5.4.51c-.07.54-.43.86-1.29,1v5.4h.07Zm-13.46,5.73c9.14,3.63,5.11,10.47,1.76,7.27a17.52,17.52,0,0,0-2.12-7.09Z"/><path class="cls-1" d="M287.25,29.11c7.45.36,7.63,4.57,5.58,5.76h7.56l2.23-3s2.52,2.05,4,3.46c-.07.39-.47.57-.93.57H280.13V44c0,6.05-.4,13.9-7.13,19.08l-.36-.25c3.06-5.54,3.24-12.53,3.24-18.83V33.1l4.89,1.77h9.61l-.39-.22a12.14,12.14,0,0,0-3-5.33l.29-.21m-2.34,6.8,5.11,2c-.14.4-.43.62-1.29.62a43.74,43.74,0,0,1-2.81,4.93l1.91.72c-.11.32-.43.54-1.12.65V61.9c0,.29-1.69,1.08-3.24,1.08h-.72V47.68A27.52,27.52,0,0,1,280.38,50l-.36-.36a47.53,47.53,0,0,0,4.89-13.75m12.31.43,5.4.51c-.07.54-.43.86-1.29,1v5.4h.07l1.87-3s2.12,2.13,3.2,3.49c-.07.4-.43.58-.9.58h-4.24V58c0,2.84-.65,4.46-5.44,4.93A4.53,4.53,0,0,0,295,60c-.62-.65-1.48-1.08-3.39-1.41v-.5s4.1.25,4.86.25.79-.18.79-.65V44.26h-8.56l-.29-1h8.85V36.34m-7.41,9.58c7.48,3,6.14,8.1,3.57,8.1a2.66,2.66,0,0,1-1.81-.83,17.52,17.52,0,0,0-2.12-7.09l.36-.18m-2.87-17.83-.29.22-.29.21-.9.68.79.82a12.46,12.46,0,0,1,2.47,3.85H281l-4.73-1.71-1.34-.48V44c0,6.43-.24,13.14-3.12,18.35l-.43.78.73.52.37.25.6.42.58-.45c4.67-3.59,6.44-8.49,7.11-12.86l.31-.28c.24-.2.48-.42.72-.65V64h1.72c1.36,0,4.07-.69,4.23-2V45.6a2,2,0,0,0,.56-.34h.61l-.78.39.46.9a17.22,17.22,0,0,1,2,6.65v.42l.3.29a3.58,3.58,0,0,0,2.5,1.11,3,3,0,0,0,2.84-2.18v4.53c-.9,0-3.55-.19-4.59-.25l-1.06-.06v2.41l.83.14c1.76.3,2.41.66,2.83,1.1a3.72,3.72,0,0,1,.66,2.31l.09,1,1-.1c5.3-.52,6.34-2.57,6.34-5.93V45.26h3.24a1.78,1.78,0,0,0,1.89-1.4l.08-.44-.28-.36c-1.11-1.39-3.19-3.49-3.28-3.57l-.9-.9-.66,1.08-.09.15V38.59A1.91,1.91,0,0,0,303.61,37l0-.11h2a1.8,1.8,0,0,0,1.92-1.4l.09-.52-.38-.37c-1.46-1.42-3.92-3.43-4-3.51l-.81-.67-.62.85-1.93,2.62h-5.08a3.31,3.31,0,0,0,.05-1.74c-.27-1.11-1.55-3.73-7.56-4l-.36,0Zm3.14,8.78h6.14v5.35h-8.33c.51-.87,1-1.78,1.48-2.72A1.87,1.87,0,0,0,291,38.27l.34-.92-.91-.36-.31-.12Zm-8.95,0h2.57a50.89,50.89,0,0,1-2.58,8.22c0-.36,0-.71,0-1.05V36.87Zm9.7,8.39h5.39v5.08c-.51-1.74-2.1-3.63-5.39-5.08Z"/><path class="cls-7" d="M133.44,85.61V75.51h-4V74.16h9.68v1.35h-4v10.1Z"/><path class="cls-1" d="M139.09,74.16v1.35h-4v10.1h-1.61V75.51h-4V74.16h9.68m1-1H128.41v3.35h4v10.1h3.61V76.51h4V73.16Z"/><path class="cls-7" d="M144.38,84.59a5.63,5.63,0,0,1-1.56.9,4.61,4.61,0,0,1-1.69.31,3.53,3.53,0,0,1-2.2-.64,2.08,2.08,0,0,1-.82-1.73,2.21,2.21,0,0,1,.38-1.27,2.61,2.61,0,0,1,1.06-.87,6.79,6.79,0,0,1,2-.46,14.48,14.48,0,0,0,2.68-.49V80a1.54,1.54,0,0,0-.39-1.2,2.56,2.56,0,0,0-1.72-.5,2.82,2.82,0,0,0-1.56.34,2,2,0,0,0-.77,1.25l-1.47-.19a3,3,0,0,1,1.28-1.94,5.08,5.08,0,0,1,2.74-.61,4.89,4.89,0,0,1,2.19.4,1.92,1.92,0,0,1,1,1,5.54,5.54,0,0,1,.21,1.74v1.87a19.64,19.64,0,0,0,.09,2.48,3.13,3.13,0,0,0,.38,1h-1.56A2.84,2.84,0,0,1,144.38,84.59Zm-.12-3.14a12.57,12.57,0,0,1-2.45.53,6.07,6.07,0,0,0-1.32.28,1.34,1.34,0,0,0-.58.46,1.18,1.18,0,0,0,.27,1.62,2.16,2.16,0,0,0,1.32.36,3.36,3.36,0,0,0,1.46-.32,2.37,2.37,0,0,0,1-.86,3.13,3.13,0,0,0,.32-1.56Z"/><path class="cls-1" d="M142.38,77.13a4.89,4.89,0,0,1,2.19.4,1.92,1.92,0,0,1,1,1,5.54,5.54,0,0,1,.21,1.74v1.87a19.64,19.64,0,0,0,.09,2.48,3.13,3.13,0,0,0,.38,1h-1.56a2.84,2.84,0,0,1-.31-1,5.63,5.63,0,0,1-1.56.9,4.61,4.61,0,0,1-1.69.31,3.53,3.53,0,0,1-2.2-.64,2.08,2.08,0,0,1-.82-1.73,2.21,2.21,0,0,1,.38-1.27,2.61,2.61,0,0,1,1.06-.87,6.79,6.79,0,0,1,2-.46,14.48,14.48,0,0,0,2.68-.49V80a1.54,1.54,0,0,0-.39-1.2,2.56,2.56,0,0,0-1.72-.5,2.82,2.82,0,0,0-1.56.34,2,2,0,0,0-.77,1.25l-1.47-.19a3,3,0,0,1,1.28-1.94,5.08,5.08,0,0,1,2.74-.61m-.88,7.57a3.36,3.36,0,0,0,1.46-.32,2.37,2.37,0,0,0,1-.86,3.13,3.13,0,0,0,.32-1.56v-.51a12.57,12.57,0,0,1-2.45.53,6.07,6.07,0,0,0-1.32.28,1.34,1.34,0,0,0-.58.46,1.18,1.18,0,0,0,.27,1.62,2.16,2.16,0,0,0,1.32.36m.88-8.57a6.08,6.08,0,0,0-3.28.76,4,4,0,0,0-1.71,2.56l-.26,1.08,1.11.14.31,0a3.5,3.5,0,0,0-.88.88,3.2,3.2,0,0,0-.56,1.84A3.09,3.09,0,0,0,138.32,86a4.48,4.48,0,0,0,2.81.85,5.89,5.89,0,0,0,2-.37,4.43,4.43,0,0,0,.67-.3l.25.48H148l-.88-1.51a2,2,0,0,1-.27-.67,19.26,19.26,0,0,1-.07-2.3V80.26a6.36,6.36,0,0,0-.27-2.07A2.83,2.83,0,0,0,145,76.64a5.72,5.72,0,0,0-2.64-.51Zm-1.51,3.78a.88.88,0,0,1,.27-.45,1.85,1.85,0,0,1,1-.18,1.58,1.58,0,0,1,1.05.25l0,0c-.41.09-1,.18-1.76.27l-.6.07Zm.63,3.79a1.27,1.27,0,0,1-.72-.16.14.14,0,0,1-.08-.15.11.11,0,0,1,0-.09.35.35,0,0,1,.16-.12A5.17,5.17,0,0,1,142,83c.45-.06.86-.13,1.23-.2a.88.88,0,0,1-.1.23,1.29,1.29,0,0,1-.56.48,2.25,2.25,0,0,1-1,.22Z"/><path class="cls-7" d="M148.11,75.77V74.16h1.49v1.61Zm0,9.84v-8.3h1.49v8.3Z"/><path class="cls-1" d="M149.6,74.16v1.61h-1.49V74.16h1.49m0,3.15v8.3h-1.49v-8.3h1.49m1-4.15h-3.49V86.61h3.49V73.16Z"/><path class="cls-7" d="M151.9,88.79V77.31h1.38v1.08a3.09,3.09,0,0,1,1.13-1,3.19,3.19,0,0,1,1.42-.29,3.83,3.83,0,0,1,1.88.47,3.54,3.54,0,0,1,1.36,1.45,5,5,0,0,1,.51,2.34,4.42,4.42,0,0,1-1.15,3.26,3.72,3.72,0,0,1-2.71,1.15,3,3,0,0,1-1.29-.28,3,3,0,0,1-1-.77v4Zm1.36-7.28a3.46,3.46,0,0,0,.7,2.37,2.22,2.22,0,0,0,3.37,0,4.53,4.53,0,0,0,0-4.84,2.22,2.22,0,0,0-1.71-.78,2.17,2.17,0,0,0-1.64.84A3.59,3.59,0,0,0,153.26,81.51Z"/><path class="cls-1" d="M155.83,77.13a3.83,3.83,0,0,1,1.88.47,3.54,3.54,0,0,1,1.36,1.45,5,5,0,0,1,.51,2.34,4.42,4.42,0,0,1-1.15,3.26,3.72,3.72,0,0,1-2.71,1.15,3,3,0,0,1-1.29-.28,3,3,0,0,1-1-.77v4H151.9V77.31h1.38v1.08a3.09,3.09,0,0,1,1.13-1,3.19,3.19,0,0,1,1.42-.29m-.18,7.51a2.2,2.2,0,0,0,1.68-.79,4.53,4.53,0,0,0,0-4.84,2.22,2.22,0,0,0-1.71-.78,2.17,2.17,0,0,0-1.64.84,3.59,3.59,0,0,0-.74,2.44,3.46,3.46,0,0,0,.7,2.37,2.21,2.21,0,0,0,1.69.76m.18-8.51a4.54,4.54,0,0,0-1.55.26v-.08H150.9V89.79h3.49V86.58a4,4,0,0,0,1.33.22,4.68,4.68,0,0,0,3.41-1.44,5.37,5.37,0,0,0,1.45-4,5.9,5.9,0,0,0-.63-2.8,4.44,4.44,0,0,0-1.75-1.86,4.77,4.77,0,0,0-2.37-.6Zm-.18,7.51a1.19,1.19,0,0,1-1-.44,2.52,2.52,0,0,1-.44-1.69,2.7,2.7,0,0,1,.49-1.78,1.16,1.16,0,0,1,.89-.5,1.21,1.21,0,0,1,1,.45,3.66,3.66,0,0,1,0,3.5,1.22,1.22,0,0,1-.94.46Z"/><path class="cls-7" d="M167.43,82.94l1.54.18a3.5,3.5,0,0,1-1.39,2,4.44,4.44,0,0,1-2.51.68,4.27,4.27,0,0,1-3-1.1,4.13,4.13,0,0,1-1.16-3.17A4.33,4.33,0,0,1,162,78.26a4.07,4.07,0,0,1,3-1.13,4,4,0,0,1,2.87,1.11A4.26,4.26,0,0,1,169,81.45v.37h-6.6a3.06,3.06,0,0,0,.84,2.11,2.58,2.58,0,0,0,1.83.71A2.37,2.37,0,0,0,167.43,82.94Zm-4.93-2.27h4.94a2.68,2.68,0,0,0-.6-1.61,2.39,2.39,0,0,0-1.84-.78,2.44,2.44,0,0,0-2.5,2.39Z"/><path class="cls-1" d="M165,77.13a4,4,0,0,1,2.87,1.11A4.26,4.26,0,0,1,169,81.45v.37h-6.6a3.06,3.06,0,0,0,.84,2.11,2.58,2.58,0,0,0,1.83.71,2.37,2.37,0,0,0,2.35-1.7l1.54.18a3.5,3.5,0,0,1-1.39,2,4.44,4.44,0,0,1-2.51.68,4.27,4.27,0,0,1-3-1.1,4.13,4.13,0,0,1-1.16-3.17A4.33,4.33,0,0,1,162,78.26a4.07,4.07,0,0,1,3-1.13m-2.51,3.54h4.94a2.68,2.68,0,0,0-.6-1.61,2.39,2.39,0,0,0-1.84-.78,2.44,2.44,0,0,0-2.5,2.39M165,76.13a5.1,5.1,0,0,0-3.66,1.4,5.3,5.3,0,0,0-1.48,4,5.13,5.13,0,0,0,1.47,3.9,5.25,5.25,0,0,0,3.73,1.37,5.42,5.42,0,0,0,3.06-.85,4.44,4.44,0,0,0,1.8-2.55l.33-1.14-.26,0v-.76a5.26,5.26,0,0,0-1.45-4A4.9,4.9,0,0,0,165,76.13Zm-1,3.54a1.43,1.43,0,0,1,1-.39,1.4,1.4,0,0,1,1,.39Zm-.3,3.15h2.73a1.31,1.31,0,0,1-1.31.82,1.57,1.57,0,0,1-1.14-.44,1.39,1.39,0,0,1-.28-.38Z"/><path class="cls-7" d="M170.87,75.77V74.16h1.49v1.61Zm0,9.84v-8.3h1.49v8.3Z"/><path class="cls-1" d="M172.36,74.16v1.61h-1.49V74.16h1.49m0,3.15v8.3h-1.49v-8.3h1.49m1-4.15h-3.49V86.61h3.49V73.16Z"/><path class="cls-7" d="M188.28,81.6l1.62.38A5,5,0,0,1,188,84.86a5.56,5.56,0,0,1-3.27,1,6.15,6.15,0,0,1-2.9-.64,4.83,4.83,0,0,1-2-2,6.71,6.71,0,0,1-.77-3.32,6.14,6.14,0,0,1,.77-3.2,5,5,0,0,1,2.08-2,6.37,6.37,0,0,1,2.92-.67,5.37,5.37,0,0,1,3,.85,4.43,4.43,0,0,1,1.78,2.48l-1.58.35a3.2,3.2,0,0,0-3.27-2.38,4.38,4.38,0,0,0-2.11.48,3.41,3.41,0,0,0-1.43,1.5,5.44,5.44,0,0,0-.54,2.57,5.06,5.06,0,0,0,1.08,3.53,3.68,3.68,0,0,0,2.86,1.18,3.74,3.74,0,0,0,2.29-.72A3.7,3.7,0,0,0,188.28,81.6Z"/><path class="cls-1" d="M184.88,74a5.37,5.37,0,0,1,3,.85,4.43,4.43,0,0,1,1.78,2.48l-1.58.35a3.2,3.2,0,0,0-3.27-2.38,4.38,4.38,0,0,0-2.11.48,3.41,3.41,0,0,0-1.43,1.5,5.44,5.44,0,0,0-.54,2.57,5.06,5.06,0,0,0,1.08,3.53,3.68,3.68,0,0,0,2.86,1.18,3.74,3.74,0,0,0,2.29-.72,3.7,3.7,0,0,0,1.28-2.19l1.62.38A5,5,0,0,1,188,84.86a5.56,5.56,0,0,1-3.27,1,6.15,6.15,0,0,1-2.9-.64,4.83,4.83,0,0,1-2-2,6.71,6.71,0,0,1-.77-3.32,6.14,6.14,0,0,1,.77-3.2,5,5,0,0,1,2.08-2,6.37,6.37,0,0,1,2.92-.67m0-1a7.44,7.44,0,0,0-3.38.78A6,6,0,0,0,179,76.1a7.22,7.22,0,0,0-.9,3.7,7.84,7.84,0,0,0,.89,3.8,5.75,5.75,0,0,0,2.38,2.45,7.1,7.1,0,0,0,3.37.76,6.49,6.49,0,0,0,3.85-1.14,6,6,0,0,0,2.27-3.42l.28-1-1-.24-1.62-.38-1-.23-.22,1a2.58,2.58,0,0,1-.91,1.61,2.67,2.67,0,0,1-1.68.52,2.71,2.71,0,0,1-2.12-.85,4.17,4.17,0,0,1-.82-2.86,4.68,4.68,0,0,1,.42-2.11,2.55,2.55,0,0,1,1-1.08,3.45,3.45,0,0,1,1.64-.36A2.21,2.21,0,0,1,187.17,78l.29.84.87-.19,1.59-.35L191,78l-.32-1a5.47,5.47,0,0,0-2.18-3,6.39,6.39,0,0,0-3.6-1Z"/><path class="cls-7" d="M191.71,75.77V74.16h1.5v1.61Zm0,9.84v-8.3h1.5v8.3Z"/><path class="cls-1" d="M193.21,74.16v1.61h-1.5V74.16h1.5m0,3.15v8.3h-1.5v-8.3h1.5m1-4.15h-3.5V86.61h3.5V73.16Z"/><path class="cls-7" d="M198.83,84.35,199,85.6a6,6,0,0,1-1.12.12,2.83,2.83,0,0,1-1.26-.24,1.31,1.31,0,0,1-.66-.65,5,5,0,0,1-.17-1.65V78.41h-1.1v-1.1h1.1v-2l1.49-.84v2.89h1.51v1.1h-1.51v4.85a1.8,1.8,0,0,0,.13.87.84.84,0,0,0,.72.28A4.7,4.7,0,0,0,198.83,84.35Z"/><path class="cls-1" d="M197.32,74.42v2.89h1.51v1.1h-1.51v4.85a1.8,1.8,0,0,0,.13.87.84.84,0,0,0,.72.28,4.7,4.7,0,0,0,.66-.06L199,85.6a6,6,0,0,1-1.12.12,2.83,2.83,0,0,1-1.26-.24,1.31,1.31,0,0,1-.66-.65,5,5,0,0,1-.17-1.65V78.41h-1.1v-1.1h1.1v-2l1.49-.84m1-1.72-1.49.84-1.5.85-.5.29v1.63h-1.1v3.1h1.1v3.77a5.47,5.47,0,0,0,.25,2,2.36,2.36,0,0,0,1.13,1.16,3.78,3.78,0,0,0,1.71.34,7.23,7.23,0,0,0,1.31-.14l1-.19-.16-1-.2-1.24-.16-1-1,.13-.38,0v-4h1.51v-3.1h-1.51V72.7Z"/><path class="cls-7" d="M200.19,88.81,200,87.49a3.74,3.74,0,0,0,.85.12,1.79,1.79,0,0,0,.79-.15,1.27,1.27,0,0,0,.52-.46c0-.07.24-.53.59-1.38l-3.37-8.31H201l1.84,4.81a19.62,19.62,0,0,1,.64,1.92,19,19,0,0,1,.61-1.89L206,77.31h1.51l-3.36,8.44a12.74,12.74,0,0,1-1,2.19,2.42,2.42,0,0,1-.87.8,2.39,2.39,0,0,1-1.09.24A3.36,3.36,0,0,1,200.19,88.81Z"/><path class="cls-1" d="M207.52,77.31l-3.36,8.44a12.74,12.74,0,0,1-1,2.19,2.42,2.42,0,0,1-.87.8,2.39,2.39,0,0,1-1.09.24,3.36,3.36,0,0,1-1-.17L200,87.49a3.74,3.74,0,0,0,.85.12,1.79,1.79,0,0,0,.79-.15,1.27,1.27,0,0,0,.52-.46c0-.07.24-.53.59-1.38l-3.37-8.31H201l1.84,4.81a19.62,19.62,0,0,1,.64,1.92,19,19,0,0,1,.61-1.89L206,77.31h1.51m1.47-1h-3.66l-.25.64-1.57,4L202,77l-.25-.64h-3.78l.55,1.38,3.22,7.93-.37.87-.09.07a.89.89,0,0,1-.36,0,3.16,3.16,0,0,1-.61-.09l-1.41-.36.18,1.45.16,1.32.08.63.61.2a4.09,4.09,0,0,0,1.27.22,3.42,3.42,0,0,0,1.54-.35,3.36,3.36,0,0,0,1.24-1.12,13.4,13.4,0,0,0,1.15-2.39l3.35-8.44.55-1.37Z"/><path class="cls-7" d="M219.48,81.12V79.77h5.17V84a9.28,9.28,0,0,1-2.46,1.34,7.75,7.75,0,0,1-2.61.45,7.15,7.15,0,0,1-3.19-.69,5.38,5.38,0,0,1-2.22-2,6,6,0,0,1-.81-3.18,6.27,6.27,0,0,1,.82-3.26,5.19,5.19,0,0,1,2.15-2.06,7.17,7.17,0,0,1,3.15-.66,6.5,6.5,0,0,1,2.35.39,4.16,4.16,0,0,1,1.65,1.08,4.51,4.51,0,0,1,1,1.93l-1.46.38a3.56,3.56,0,0,0-.74-1.45,3.17,3.17,0,0,0-1.17-.76,4.76,4.76,0,0,0-1.65-.27,4.93,4.93,0,0,0-2.29.5,3.63,3.63,0,0,0-1.54,1.54,5.18,5.18,0,0,0-.59,2.56,4.44,4.44,0,0,0,1.25,3.44,4.6,4.6,0,0,0,3.25,1.15,6,6,0,0,0,2-.35,5.61,5.61,0,0,0,1.59-.84V81.12Z"/><path class="cls-1" d="M219.48,74a6.5,6.5,0,0,1,2.35.39,4.16,4.16,0,0,1,1.65,1.08,4.51,4.51,0,0,1,1,1.93l-1.46.38a3.56,3.56,0,0,0-.74-1.45,3.17,3.17,0,0,0-1.17-.76,4.76,4.76,0,0,0-1.65-.27,4.93,4.93,0,0,0-2.29.5,3.63,3.63,0,0,0-1.54,1.54,5.18,5.18,0,0,0-.59,2.56,4.44,4.44,0,0,0,1.25,3.44,4.6,4.6,0,0,0,3.25,1.15,6,6,0,0,0,2-.35,5.61,5.61,0,0,0,1.59-.84V81.12h-3.59V79.77h5.17V84a9.28,9.28,0,0,1-2.46,1.34,7.75,7.75,0,0,1-2.61.45,7.15,7.15,0,0,1-3.19-.69,5.38,5.38,0,0,1-2.22-2,6,6,0,0,1-.81-3.18,6.27,6.27,0,0,1,.82-3.26,5.19,5.19,0,0,1,2.15-2.06,7.17,7.17,0,0,1,3.15-.66m0-1a8,8,0,0,0-3.59.77,6.15,6.15,0,0,0-2.57,2.44,7.29,7.29,0,0,0-1,3.77,6.91,6.91,0,0,0,1,3.7A6.45,6.45,0,0,0,216,86a8.23,8.23,0,0,0,3.63.79,8.72,8.72,0,0,0,2.95-.51,10.37,10.37,0,0,0,2.72-1.48l.4-.3V78.76H223l.25-.06,1.46-.38,1-.25-.26-1a5.54,5.54,0,0,0-1.2-2.36,5.38,5.38,0,0,0-2-1.34,7.75,7.75,0,0,0-2.7-.45Zm0,10.49a3.63,3.63,0,0,1-2.57-.88,3.46,3.46,0,0,1-.93-2.71,4.26,4.26,0,0,1,.46-2.07,2.65,2.65,0,0,1,1.13-1.14,3.9,3.9,0,0,1,1.83-.39,3.63,3.63,0,0,1,1.29.21,2.15,2.15,0,0,1,.8.5,2.74,2.74,0,0,1,.52,1.06l.22.74h-3.79v3.35h3.59v.61a5.07,5.07,0,0,1-.93.41,4.76,4.76,0,0,1-1.62.3Z"/><path class="cls-7" d="M226.22,81.46a4.26,4.26,0,0,1,7.1-3.24,4.09,4.09,0,0,1,1.19,3.16,4.33,4.33,0,0,1-1.17,3.32,4.17,4.17,0,0,1-7.12-3.24Zm1.54,0a3.34,3.34,0,0,0,.76,2.4,2.54,2.54,0,0,0,1.89.78,2.4,2.4,0,0,0,1.81-.79,3.38,3.38,0,0,0,.76-2.39,3.3,3.3,0,0,0-.77-2.39,2.48,2.48,0,0,0-1.88-.79,2.45,2.45,0,0,0-1.82.79A3.36,3.36,0,0,0,227.76,81.46Z"/><path class="cls-1" d="M230.37,77.13a4.19,4.19,0,0,1,2.95,1.09,4.09,4.09,0,0,1,1.19,3.16,4.33,4.33,0,0,1-1.17,3.32,4.4,4.4,0,1,1-3-7.57m0,7.51a2.4,2.4,0,0,0,1.81-.79,3.38,3.38,0,0,0,.76-2.39,3.3,3.3,0,0,0-.77-2.39,2.48,2.48,0,0,0-1.88-.79,2.45,2.45,0,0,0-1.82.79,4.18,4.18,0,0,0,0,4.79,2.54,2.54,0,0,0,1.89.78m0-8.51a5.34,5.34,0,1,0,3.66,9.3,5.31,5.31,0,0,0,1.48-4.05,5.08,5.08,0,0,0-1.51-3.9,5.18,5.18,0,0,0-3.63-1.35Zm0,7.51a1.52,1.52,0,0,1-1.17-.48,2.42,2.42,0,0,1-.48-1.7,2.47,2.47,0,0,1,.47-1.7,1.42,1.42,0,0,1,1.1-.48,1.56,1.56,0,0,1,1.17.48,2.42,2.42,0,0,1,.48,1.7,2.45,2.45,0,0,1-.48,1.7,1.43,1.43,0,0,1-1.09.48Z"/><path class="cls-7" d="M238.75,85.61l-3.37-8.3H237l1.9,5c.22.57.41,1.12.57,1.67.13-.43.31-1,.55-1.57l2-5.07h1.54l-3.37,8.3Z"/><path class="cls-1" d="M243.51,77.31l-3.37,8.3h-1.39l-3.37-8.3H237l1.9,5c.22.57.41,1.12.57,1.67.13-.43.31-1,.55-1.57l2-5.07h1.54m1.48-1h-3.71L241,77l-1.58,4-1.55-4-.24-.65H233.9l.56,1.38,3.36,8.3.26.62h2.74l.25-.62,3.37-8.3.55-1.38Z"/><path class="cls-7" d="M250.85,82.94l1.55.18a3.52,3.52,0,0,1-1.4,2,4.4,4.4,0,0,1-2.5.68,4.28,4.28,0,0,1-3.05-1.1,4.17,4.17,0,0,1-1.16-3.17,4.33,4.33,0,0,1,1.17-3.27,4.11,4.11,0,0,1,3-1.13,4,4,0,0,1,2.87,1.11,4.27,4.27,0,0,1,1.15,3.21v.37h-6.6a3.06,3.06,0,0,0,.84,2.11,2.58,2.58,0,0,0,1.83.71A2.37,2.37,0,0,0,250.85,82.94Zm-4.92-2.27h4.93a2.68,2.68,0,0,0-.6-1.61,2.39,2.39,0,0,0-1.84-.78,2.45,2.45,0,0,0-1.71.65A2.41,2.41,0,0,0,245.93,80.67Z"/><path class="cls-1" d="M248.43,77.13a4,4,0,0,1,2.87,1.11,4.27,4.27,0,0,1,1.15,3.21v.37h-6.6a3.06,3.06,0,0,0,.84,2.11,2.58,2.58,0,0,0,1.83.71,2.37,2.37,0,0,0,2.34-1.7l1.55.18a3.52,3.52,0,0,1-1.4,2,4.4,4.4,0,0,1-2.5.68,4.28,4.28,0,0,1-3.05-1.1,4.17,4.17,0,0,1-1.16-3.17,4.33,4.33,0,0,1,1.17-3.27,4.11,4.11,0,0,1,3-1.13m-2.5,3.54h4.93a2.68,2.68,0,0,0-.6-1.61,2.39,2.39,0,0,0-1.84-.78,2.45,2.45,0,0,0-1.71.65,2.41,2.41,0,0,0-.78,1.74m2.5-4.54a5.1,5.1,0,0,0-3.66,1.4,5.34,5.34,0,0,0-1.48,4,5.14,5.14,0,0,0,1.48,3.9,5.23,5.23,0,0,0,3.73,1.37,5.36,5.36,0,0,0,3.05-.85,4.45,4.45,0,0,0,1.81-2.55l.33-1.14-.26,0v-.76a5.22,5.22,0,0,0-1.46-4,4.9,4.9,0,0,0-3.56-1.39Zm-1.05,3.54a1.43,1.43,0,0,1,1-.39,1.4,1.4,0,0,1,1,.39Zm-.29,3.15h2.72a1.29,1.29,0,0,1-1.3.82,1.58,1.58,0,0,1-1.15-.44,1.36,1.36,0,0,1-.27-.38Z"/><path class="cls-7" d="M254.3,85.61v-8.3h1.35v1.26a3.54,3.54,0,0,1,1-1.16,1.7,1.7,0,0,1,1-.28,3.05,3.05,0,0,1,1.53.45l-.51,1.3a2.27,2.27,0,0,0-1.09-.3,1.61,1.61,0,0,0-.87.26,1.4,1.4,0,0,0-.56.72,5,5,0,0,0-.28,1.71v4.34Z"/><path class="cls-1" d="M257.57,77.13a3.05,3.05,0,0,1,1.53.45l-.51,1.3a2.27,2.27,0,0,0-1.09-.3,1.61,1.61,0,0,0-.87.26,1.4,1.4,0,0,0-.56.72,5,5,0,0,0-.28,1.71v4.34H254.3v-8.3h1.35v1.26a3.54,3.54,0,0,1,1-1.16,1.7,1.7,0,0,1,1-.28m0-1a2.88,2.88,0,0,0-1,.18H253.3v10.3h3.49V81.27a3.92,3.92,0,0,1,.23-1.38.34.34,0,0,1,.16-.21.53.53,0,0,1,.32-.1,1.28,1.28,0,0,1,.61.18l1,.55.41-1.06.51-1.31.31-.8-.74-.43a4,4,0,0,0-2-.58Z"/><path class="cls-7" d="M260,85.61v-8.3h1.35v1.18a3.16,3.16,0,0,1,1.19-1,3.78,3.78,0,0,1,1.62-.33,4,4,0,0,1,1.31.21,2.72,2.72,0,0,1,1,.56,2.25,2.25,0,0,1,.55.91,5.89,5.89,0,0,1,.18,1.7v5.1h-1.49v-5a3.39,3.39,0,0,0-.2-1.34,1.44,1.44,0,0,0-.64-.65,2,2,0,0,0-1-.23,2.31,2.31,0,0,0-1.71.62,2.83,2.83,0,0,0-.65,2.11v4.54Z"/><path class="cls-1" d="M264.13,77.13a4,4,0,0,1,1.31.21,2.72,2.72,0,0,1,1,.56,2.25,2.25,0,0,1,.55.91,5.89,5.89,0,0,1,.18,1.7v5.1h-1.49v-5a3.39,3.39,0,0,0-.2-1.34,1.44,1.44,0,0,0-.64-.65,2,2,0,0,0-1-.23,2.31,2.31,0,0,0-1.71.62,2.83,2.83,0,0,0-.65,2.11v4.54H260v-8.3h1.35v1.18a3.16,3.16,0,0,1,1.19-1,3.78,3.78,0,0,1,1.62-.33m0-1a4.82,4.82,0,0,0-1.81.33v-.15H259v10.3h3.49V81.07c0-1,.24-1.3.34-1.39a1.4,1.4,0,0,1,1-.34,1,1,0,0,1,.53.11.47.47,0,0,1,.21.21,2.42,2.42,0,0,1,.1.9v6h3.49v-6.1a6.65,6.65,0,0,0-.23-2,3,3,0,0,0-.82-1.31,3.73,3.73,0,0,0-1.32-.78,4.92,4.92,0,0,0-1.65-.27Z"/><path class="cls-7" d="M269.47,85.61v-8.3h1.34v1.16a3,3,0,0,1,1.15-1,3.25,3.25,0,0,1,1.53-.35,3.07,3.07,0,0,1,1.57.37,2,2,0,0,1,.92,1.07,3.55,3.55,0,0,1,1.22-1.08,3.25,3.25,0,0,1,1.52-.36,2.9,2.9,0,0,1,2,.66,2.73,2.73,0,0,1,.73,2.13v5.69H280V80.38a3.32,3.32,0,0,0-.17-1.26,1.21,1.21,0,0,0-.54-.58,1.87,1.87,0,0,0-.85-.2,2.13,2.13,0,0,0-1.58.59,2.47,2.47,0,0,0-.62,1.86v4.82h-1.49v-5.4a2.08,2.08,0,0,0-.41-1.45,1.52,1.52,0,0,0-1.13-.42,2.1,2.1,0,0,0-1.62.63,3.45,3.45,0,0,0-.6,2.33v4.31Z"/><path class="cls-1" d="M278.72,77.13a2.9,2.9,0,0,1,2,.66,2.73,2.73,0,0,1,.73,2.13v5.69H280V80.38a3.32,3.32,0,0,0-.17-1.26,1.21,1.21,0,0,0-.54-.58,1.87,1.87,0,0,0-.85-.2,2.13,2.13,0,0,0-1.58.59,2.47,2.47,0,0,0-.62,1.86v4.82h-1.49v-5.4a2.08,2.08,0,0,0-.41-1.45,1.52,1.52,0,0,0-1.13-.42,2.1,2.1,0,0,0-1.62.63,3.45,3.45,0,0,0-.6,2.33v4.31h-1.49v-8.3h1.34v1.16a3,3,0,0,1,1.15-1,3.25,3.25,0,0,1,1.53-.35,3.07,3.07,0,0,1,1.57.37,2,2,0,0,1,.92,1.07,3.55,3.55,0,0,1,1.22-1.08,3.25,3.25,0,0,1,1.52-.36m0-1a4.29,4.29,0,0,0-2,.47,5.23,5.23,0,0,0-.63.41,3.06,3.06,0,0,0-.54-.38,4.15,4.15,0,0,0-2.07-.5,4.26,4.26,0,0,0-1.68.32v-.14h-3.34v10.3H272V81.3c0-1.2.25-1.56.33-1.64a1.08,1.08,0,0,1,.89-.32c.3,0,.38.09.41.12h0a1.32,1.32,0,0,1,.13.75v6.4h3.49V80.79a1.71,1.71,0,0,1,.31-1.14,1.15,1.15,0,0,1,.89-.31.72.72,0,0,1,.37.08c.08,0,.1.07.11.11a2.8,2.8,0,0,1,.08.85v6.23h3.49V79.92a3.67,3.67,0,0,0-1.06-2.87,3.88,3.88,0,0,0-2.68-.92Z"/><path class="cls-7" d="M289.71,82.94l1.54.18a3.46,3.46,0,0,1-1.39,2,4.44,4.44,0,0,1-2.51.68,4.27,4.27,0,0,1-3-1.1,4.17,4.17,0,0,1-1.16-3.17,4.33,4.33,0,0,1,1.17-3.27,4.07,4.07,0,0,1,3-1.13,4,4,0,0,1,2.87,1.11,4.26,4.26,0,0,1,1.14,3.21v.37h-6.6a3,3,0,0,0,.85,2.11,2.57,2.57,0,0,0,1.82.71A2.37,2.37,0,0,0,289.71,82.94Zm-4.93-2.27h4.94a2.68,2.68,0,0,0-.6-1.61,2.39,2.39,0,0,0-1.84-.78,2.46,2.46,0,0,0-2.5,2.39Z"/><path class="cls-1" d="M287.29,77.13a4,4,0,0,1,2.87,1.11,4.26,4.26,0,0,1,1.14,3.21v.37h-6.6a3,3,0,0,0,.85,2.11,2.57,2.57,0,0,0,1.82.71,2.37,2.37,0,0,0,2.35-1.7l1.54.18a3.46,3.46,0,0,1-1.39,2,4.44,4.44,0,0,1-2.51.68,4.27,4.27,0,0,1-3-1.1,4.17,4.17,0,0,1-1.16-3.17,4.33,4.33,0,0,1,1.17-3.27,4.07,4.07,0,0,1,3-1.13m-2.51,3.54h4.94a2.68,2.68,0,0,0-.6-1.61,2.39,2.39,0,0,0-1.84-.78,2.46,2.46,0,0,0-2.5,2.39m2.51-4.54a5.1,5.1,0,0,0-3.66,1.4,5.34,5.34,0,0,0-1.48,4,5.14,5.14,0,0,0,1.48,3.9,5.21,5.21,0,0,0,3.72,1.37,5.42,5.42,0,0,0,3.06-.85,4.44,4.44,0,0,0,1.8-2.55l.33-1.14-.26,0v-.76a5.22,5.22,0,0,0-1.45-4,4.9,4.9,0,0,0-3.56-1.39Zm-1.05,3.54a1.43,1.43,0,0,1,1-.39,1.4,1.4,0,0,1,1,.39Zm-.3,3.15h2.73a1.3,1.3,0,0,1-1.31.82,1.57,1.57,0,0,1-1.14-.44,1.39,1.39,0,0,1-.28-.38Z"/><path class="cls-7" d="M293.15,85.61v-8.3h1.35v1.18a3.19,3.19,0,0,1,1.2-1,3.73,3.73,0,0,1,1.61-.33,4,4,0,0,1,1.32.21,2.75,2.75,0,0,1,1,.56,2.25,2.25,0,0,1,.55.91,5.89,5.89,0,0,1,.18,1.7v5.1h-1.49v-5a3.39,3.39,0,0,0-.2-1.34,1.44,1.44,0,0,0-.64-.65,2,2,0,0,0-1-.23,2.31,2.31,0,0,0-1.71.62,2.83,2.83,0,0,0-.64,2.11v4.54Z"/><path class="cls-1" d="M297.31,77.13a4,4,0,0,1,1.32.21,2.75,2.75,0,0,1,1,.56,2.25,2.25,0,0,1,.55.91,5.89,5.89,0,0,1,.18,1.7v5.1h-1.49v-5a3.39,3.39,0,0,0-.2-1.34,1.44,1.44,0,0,0-.64-.65,2,2,0,0,0-1-.23,2.31,2.31,0,0,0-1.71.62,2.83,2.83,0,0,0-.64,2.11v4.54h-1.5v-8.3h1.35v1.18a3.19,3.19,0,0,1,1.2-1,3.73,3.73,0,0,1,1.61-.33m0-1a4.82,4.82,0,0,0-1.81.33v-.15h-3.35v10.3h3.5V81.07c0-1,.23-1.3.33-1.39a1.4,1.4,0,0,1,1-.34,1,1,0,0,1,.53.11.47.47,0,0,1,.21.21,2.42,2.42,0,0,1,.1.9v6h3.49v-6.1a6.65,6.65,0,0,0-.23-2,3,3,0,0,0-.82-1.31A3.64,3.64,0,0,0,299,76.4a4.92,4.92,0,0,0-1.65-.27Z"/><path class="cls-7" d="M306,84.35l.2,1.25a5.85,5.85,0,0,1-1.11.12,2.77,2.77,0,0,1-1.26-.24,1.31,1.31,0,0,1-.66-.65,4.91,4.91,0,0,1-.18-1.65V78.41h-1.09v-1.1H303v-2l1.5-.84v2.89H306v1.1h-1.51v4.85a1.8,1.8,0,0,0,.13.87.84.84,0,0,0,.72.28A4.7,4.7,0,0,0,306,84.35Z"/><path class="cls-1" d="M304.46,74.42v2.89H306v1.1h-1.51v4.85a1.8,1.8,0,0,0,.13.87.84.84,0,0,0,.72.28,4.7,4.7,0,0,0,.66-.06l.2,1.25a5.85,5.85,0,0,1-1.11.12,2.77,2.77,0,0,1-1.26-.24,1.31,1.31,0,0,1-.66-.65,4.91,4.91,0,0,1-.18-1.65V78.41h-1.09v-1.1H303v-2l1.5-.84m1-1.72-1.5.84-1.49.85-.51.29v1.63h-1.09v3.1H302v3.77a5.42,5.42,0,0,0,.26,2,2.36,2.36,0,0,0,1.13,1.16,3.78,3.78,0,0,0,1.71.34,7.23,7.23,0,0,0,1.31-.14l.95-.19-.16-1-.2-1.24-.16-1-1,.13-.38,0v-4H307v-3.1h-1.51V72.7Z"/></g></g></svg>