<svg xmlns="http://www.w3.org/2000/svg" viewBox="0 0 706 288.97"><defs><style>.cls-1{fill:#e83827;}.cls-2{fill:#898788;}.cls-3{fill:#0f2a86;}</style></defs><title>AIC-logo_外框</title><g id="圖層_1" data-name="圖層 1"><path class="cls-1" d="M259.64,108.49h1.14c3.32-.27,4.9-2.37,5.94-5.25L287,47.11h1.31l23.43,61.38H316v1.57H290v-1.57h7L290.59,90.3h-17l-4.19,12.33a7.7,7.7,0,0,0-.62,2.62c0,2.88,2.45,3.24,4.2,3.24h2.45v1.57H259.64Zm30.25-19.77-7.6-22.12h-.17l-7.79,22.12Z"/><path class="cls-1" d="M324.43,73.16h-6V71.59h6.21c3.58,0,10.06,0,11.89-2.27v9.35h.17c2.37-5.07,8.13-8.13,14-8.13,5.07,0,9.53,2.62,11.19,8.13a15.62,15.62,0,0,1,14-8.13c7.34,0,11.36,4.11,11.36,13.55v24.4h6v1.57H370.5v-1.57h4.64v-27c0-5.16-.88-7.79-4.11-7.79-5.51,0-9.18,6.91-9.18,10.85v24h4.81v1.57H344.89v-1.57h4.9v-27c0-5.16-.88-7.79-4.11-7.79-5.51,0-9.18,6.91-9.18,10.85v24H341v1.57H318.4v-1.57h6Z"/><path class="cls-1" d="M411.25,88.89v7.36c0,5.94.88,12.76,9,12.76,6.82,0,11.89-5.07,13.81-13.2h1.58c-1.93,8.65-7.26,15.3-18,15.3-11.19,0-19.49-8.48-19.49-19.85,0-11.8,8.92-20.72,19.23-20.72,9.19-.18,17.92,8.92,18,18.35Zm11-1.56V79.81c0-4.81-1.31-7.69-5.51-7.69-3,0-5.51,1.83-5.51,7.69v7.52Z"/><path class="cls-1" d="M439.76,108.49h6V73.16h-6V71.59h6c3.58,0,10,0,11.89-2.27v8.91h.18A12.53,12.53,0,0,1,469.39,70c4.11,0,6.91,2.54,6.91,6.74a6.31,6.31,0,0,1-6.64,6.38c-3.41,0-6-2.27-6-5.68a6.71,6.71,0,0,1,2.1-5.16h-.35c-5.51,2.44-7.6,7.17-7.6,13.9v22.3h8v1.57H439.76Z"/><path class="cls-1" d="M479.71,108.49h6V73.16h-6V71.59h6.21c3.59,0,10.06,0,11.89-2.27v39.17h6v1.57H479.71Zm12.07-59.63a7.08,7.08,0,1,1-7.08,7.08A7,7,0,0,1,491.78,48.86Z"/><path class="cls-1" d="M527.1,70.54c5.95,0,15,3,15,10.22,0,3.16-2,6-6.38,6-3.59,0-5.68-2.62-5.68-5.94,0-3.94,3.32-4.47,3.32-6s-2.27-2.79-6.3-2.79c-6.38,0-8.48,3.58-8.48,13.11v10c0,11.63,3.06,14.34,8.65,14.34,7.7,0,13.47-5.59,14.17-12H543c-1,8.13-7.43,13.55-16.53,13.55-11.54,0-21-8.4-21-20.11C505.51,80.68,515.57,70.54,527.1,70.54Z"/><path class="cls-1" d="M586,103.07c0,2.7.43,4.36,2,4.36,2.1,0,3-2.62,3-4.89h1.58c0,5.16-3.67,8.57-9.35,8.57a9,9,0,0,1-8.75-5.51c-2.27,4.2-8.3,5.51-11.72,5.51-6.72,0-13.54-3.06-13.54-10.67,0-9.09,8.65-11.19,16.61-11.81l8.56-.69V80.59c0-5.24-.87-8.47-7.42-8.47-3,0-8.05.69-8,2.61.09,1.49,4.45,1.23,4.45,5.43a5,5,0,0,1-5.33,5.25c-3.93,0-5.68-2.63-5.68-5.69,0-4.9,6.38-9.18,15.12-9.18C576.59,70.54,586,73,586,83ZM574.4,89.51l-6.9.7c-5.69.61-6.21,3.67-6.21,8.31s.26,10,6.21,10c4.11,0,6.73-4.2,6.9-8.84Z"/><path class="cls-1" d="M595.74,108.49h6V73.16h-6V71.59h6.2c3.59,0,10.06,0,11.9-2.27v9.35H614c2.36-5.07,8.13-8.13,14-8.13,8.31,0,12.33,4.11,12.33,13.55v24.4h6v1.57H623.28v-1.57h5V80.86c0-6.13-2.62-7.18-5.15-7.18-4.9,0-9.27,6.39-9.27,10.85v24H619v1.57H595.74Z"/><path class="cls-2" d="M263.62,127.8v-10h12.07v10Zm12.07,6.81v44H263.62v-44Z"/><path class="cls-2" d="M292.46,134.61v6.12h.25a13.83,13.83,0,0,1,6-5.57,17.28,17.28,0,0,1,7.49-1.74,20.71,20.71,0,0,1,8,1.31,11.85,11.85,0,0,1,4.89,3.66,14.35,14.35,0,0,1,2.51,5.7,35.64,35.64,0,0,1,.72,7.44v27.06H310.15V153.75q0-5.44-1.7-8.13t-6-2.67c-3.29,0-5.68,1-7.15,2.93s-2.21,5.17-2.21,9.65v23.06H281v-44Z"/><path class="cls-2" d="M338.65,134.61v6.12h.25a13.9,13.9,0,0,1,6-5.57,17.2,17.2,0,0,1,7.48-1.74,20.71,20.71,0,0,1,8,1.31,11.85,11.85,0,0,1,4.89,3.66,14.21,14.21,0,0,1,2.51,5.7,35.64,35.64,0,0,1,.72,7.44v27.06H356.34V153.75q0-5.44-1.7-8.13c-1.13-1.78-3.15-2.67-6-2.67-3.29,0-5.67,1-7.14,2.93s-2.22,5.17-2.22,9.65v23.06H327.16v-44Z"/><path class="cls-2" d="M373.61,147.07a20,20,0,0,1,11.74-12,25.05,25.05,0,0,1,9.36-1.66,25.38,25.38,0,0,1,9.4,1.66,20.47,20.47,0,0,1,7.19,4.67,20.71,20.71,0,0,1,4.59,7.32,27,27,0,0,1,1.62,9.57,26.57,26.57,0,0,1-1.62,9.53,20.91,20.91,0,0,1-4.59,7.28,20.11,20.11,0,0,1-7.19,4.63,26,26,0,0,1-9.4,1.62,25.67,25.67,0,0,1-9.36-1.62,20.3,20.3,0,0,1-7.15-4.63,20.91,20.91,0,0,1-4.59-7.28,26.57,26.57,0,0,1-1.61-9.53A27,27,0,0,1,373.61,147.07Zm11,14.72a13.54,13.54,0,0,0,1.74,4.51,9.34,9.34,0,0,0,3.27,3.19,10.09,10.09,0,0,0,5.11,1.19,10.32,10.32,0,0,0,5.15-1.19,9.21,9.21,0,0,0,3.31-3.19,13.56,13.56,0,0,0,1.75-4.51,25.78,25.78,0,0,0,.51-5.15,26.47,26.47,0,0,0-.51-5.19,13.15,13.15,0,0,0-1.75-4.51,9.73,9.73,0,0,0-3.31-3.19,10,10,0,0,0-5.15-1.23,9.26,9.26,0,0,0-8.38,4.42,13.14,13.14,0,0,0-1.74,4.51,26.47,26.47,0,0,0-.51,5.19A25.78,25.78,0,0,0,384.59,161.79Z"/><path class="cls-2" d="M432,178.59l-15.06-44h12.68l9.27,30H439l9.28-30h12l-14.89,44Z"/><path class="cls-2" d="M462.68,141.07a14.39,14.39,0,0,1,4.77-4.51,20.9,20.9,0,0,1,6.51-2.42,37,37,0,0,1,7.27-.72,49.35,49.35,0,0,1,6.71.46,20.67,20.67,0,0,1,6.22,1.83,12.23,12.23,0,0,1,4.59,3.79,10.59,10.59,0,0,1,1.79,6.43v22.88a47.21,47.21,0,0,0,.33,5.69,10.32,10.32,0,0,0,1.2,4.09H489.82a18.2,18.2,0,0,1-.56-2.08,21.79,21.79,0,0,1-.3-2.17,15.62,15.62,0,0,1-6.8,4.16,27.1,27.1,0,0,1-8,1.2,21.66,21.66,0,0,1-5.88-.77,13.4,13.4,0,0,1-4.76-2.38,11.09,11.09,0,0,1-3.19-4.08,13.74,13.74,0,0,1-1.15-5.88,12.85,12.85,0,0,1,1.32-6.17,11,11,0,0,1,3.41-3.86,14.92,14.92,0,0,1,4.76-2.17,49.86,49.86,0,0,1,5.4-1.15c1.82-.29,3.6-.51,5.36-.68a31.07,31.07,0,0,0,4.68-.77,8.22,8.22,0,0,0,3.23-1.49,3.29,3.29,0,0,0,1.11-2.85,6.45,6.45,0,0,0-.64-3.1,4.73,4.73,0,0,0-1.7-1.79,6.64,6.64,0,0,0-2.47-.85,20.56,20.56,0,0,0-3-.21A9.21,9.21,0,0,0,475,143c-1.35,1-2.15,2.72-2.38,5.11H460.55A14.06,14.06,0,0,1,462.68,141.07Zm23.86,17.06a18.13,18.13,0,0,1-2.47.64q-1.31.25-2.76.42c-1,.12-1.93.26-2.89.43a23,23,0,0,0-2.69.68,8.19,8.19,0,0,0-2.29,1.15,5.41,5.41,0,0,0-1.57,1.82,5.89,5.89,0,0,0-.6,2.82,5.67,5.67,0,0,0,.6,2.72,4.45,4.45,0,0,0,1.62,1.74,6.82,6.82,0,0,0,2.38.9,16,16,0,0,0,2.8.25,10.68,10.68,0,0,0,5.54-1.19,8.06,8.06,0,0,0,2.89-2.85,9.12,9.12,0,0,0,1.14-3.36,21.87,21.87,0,0,0,.22-2.73v-4.51A5.41,5.41,0,0,1,486.54,158.13Z"/><path class="cls-2" d="M529.8,134.61v8.08H521v21.78c0,2,.33,3.4,1,4.08s2,1,4.07,1c.69,0,1.34,0,2-.08s1.21-.15,1.78-.26v9.36a29.55,29.55,0,0,1-3.41.34c-1.24.06-2.46.09-3.65.09a36.1,36.1,0,0,1-5.32-.38,12.82,12.82,0,0,1-4.42-1.49,7.9,7.9,0,0,1-3-3.15,11.21,11.21,0,0,1-1.1-5.36V142.69h-7.32v-8.08h7.32V121.42H521v13.19Z"/><path class="cls-2" d="M533.8,127.8v-10h12.08v10Zm12.08,6.81v44H533.8v-44Z"/><path class="cls-2" d="M553.53,147.07a20.1,20.1,0,0,1,11.74-12,25.05,25.05,0,0,1,9.36-1.66,25.34,25.34,0,0,1,9.4,1.66,20,20,0,0,1,11.78,12,27,27,0,0,1,1.62,9.57,26.57,26.57,0,0,1-1.62,9.53,20.62,20.62,0,0,1-4.59,7.28,20,20,0,0,1-7.19,4.63,26,26,0,0,1-9.4,1.62,25.67,25.67,0,0,1-9.36-1.62,20.08,20.08,0,0,1-7.14-4.63,20.79,20.79,0,0,1-4.6-7.28,26.57,26.57,0,0,1-1.61-9.53A27,27,0,0,1,553.53,147.07Zm11,14.72a13.56,13.56,0,0,0,1.75,4.51,9.31,9.31,0,0,0,3.26,3.19,10.09,10.09,0,0,0,5.11,1.19,10.27,10.27,0,0,0,5.15-1.19,9.32,9.32,0,0,0,3.32-3.19,13.76,13.76,0,0,0,1.74-4.51,25.78,25.78,0,0,0,.51-5.15,26.47,26.47,0,0,0-.51-5.19,13.34,13.34,0,0,0-1.74-4.51,9.86,9.86,0,0,0-3.32-3.19,10,10,0,0,0-5.15-1.23,9.23,9.23,0,0,0-8.37,4.42,13.15,13.15,0,0,0-1.75,4.51,26.48,26.48,0,0,0-.52,5.19A25.78,25.78,0,0,0,564.51,161.79Z"/><path class="cls-2" d="M612.49,134.61v6.12h.25a13.9,13.9,0,0,1,6-5.57,17.25,17.25,0,0,1,7.49-1.74,20.69,20.69,0,0,1,7.95,1.31,11.79,11.79,0,0,1,4.89,3.66,14.21,14.21,0,0,1,2.51,5.7,35.64,35.64,0,0,1,.72,7.44v27.06H630.18V153.75q0-5.44-1.7-8.13t-6-2.67c-3.29,0-5.67,1-7.15,2.93s-2.21,5.17-2.21,9.65v23.06H601v-44Z"/><path class="cls-2" d="M284.29,211.05a8.48,8.48,0,0,0-4.84,1.31,10.38,10.38,0,0,0-3.2,3.42,14.57,14.57,0,0,0-1.74,4.59,24.12,24.12,0,0,0-.52,5,23.2,23.2,0,0,0,.52,4.85,15.08,15.08,0,0,0,1.65,4.47,9.54,9.54,0,0,0,3.11,3.27,8.52,8.52,0,0,0,4.76,1.28,8.83,8.83,0,0,0,6.68-2.43,11.45,11.45,0,0,0,2.94-6.5H305.3q-1.19,8.76-6.8,13.36t-14.38,4.59a24.18,24.18,0,0,1-9.06-1.66,20.11,20.11,0,0,1-7-4.64,21.07,21.07,0,0,1-4.51-7.1,24.78,24.78,0,0,1-1.62-9.06,29.18,29.18,0,0,1,1.5-9.49,21,21,0,0,1,4.38-7.57,19.77,19.77,0,0,1,7.06-5,23.79,23.79,0,0,1,9.53-1.79,27.58,27.58,0,0,1,7.52,1,20.3,20.3,0,0,1,6.47,3.1,16.87,16.87,0,0,1,4.63,5.2,16.25,16.25,0,0,1,2,7.35H293.22Q292,211.06,284.29,211.05Z"/><path class="cls-2" d="M320.79,236.57q2.71,2.64,7.82,2.64a10.73,10.73,0,0,0,6.29-1.83,7.62,7.62,0,0,0,3.24-3.87h10.63q-2.55,7.91-7.82,11.32a23.15,23.15,0,0,1-12.77,3.4,25.24,25.24,0,0,1-9.35-1.66,19.57,19.57,0,0,1-7.07-4.72,21.34,21.34,0,0,1-4.46-7.32,26.76,26.76,0,0,1-1.58-9.36,25.75,25.75,0,0,1,1.62-9.18A21.21,21.21,0,0,1,319,203.74a22.62,22.62,0,0,1,9.14-1.79,21,21,0,0,1,9.79,2.17,19.47,19.47,0,0,1,6.85,5.82,24.36,24.36,0,0,1,3.87,8.34,31.36,31.36,0,0,1,.85,9.78H317.81C318,232,319,234.81,320.79,236.57Zm13.65-23.14q-2.18-2.38-6.6-2.38a10.49,10.49,0,0,0-4.8,1,8.94,8.94,0,0,0-3.06,2.42,8.85,8.85,0,0,0-1.62,3.07,12.86,12.86,0,0,0-.55,2.89h19.64A13.94,13.94,0,0,0,334.44,213.43Z"/><path class="cls-2" d="M363.91,203.14v6.13h.26a13.85,13.85,0,0,1,5.95-5.58,17.28,17.28,0,0,1,7.49-1.74,20.57,20.57,0,0,1,8,1.32,12,12,0,0,1,4.89,3.65,14.14,14.14,0,0,1,2.5,5.7,35,35,0,0,1,.73,7.45v27.05H381.61V222.28q0-5.44-1.7-8.12c-1.14-1.8-3.15-2.69-6.05-2.69-3.28,0-5.67,1-7.14,2.94s-2.21,5.18-2.21,9.66v23.05H352.43v-44Z"/><path class="cls-2" d="M422.78,203.14v8.08h-8.84V233c0,2,.33,3.4,1,4.08s2,1,4.08,1c.68,0,1.33,0,2-.08s1.21-.14,1.78-.25v9.35a27.51,27.51,0,0,1-3.4.34q-1.87.09-3.66.09a35.86,35.86,0,0,1-5.31-.38,12.47,12.47,0,0,1-4.42-1.49,7.82,7.82,0,0,1-3-3.16,11.14,11.14,0,0,1-1.11-5.35V211.22h-7.31v-8.08h7.31V190h12.09v13.19Z"/><path class="cls-2" d="M437.24,236.57q2.73,2.64,7.83,2.64a10.75,10.75,0,0,0,6.29-1.83,7.57,7.57,0,0,0,3.24-3.87h10.64q-2.57,7.91-7.83,11.32a23.14,23.14,0,0,1-12.76,3.4,25.22,25.22,0,0,1-9.36-1.66,19.53,19.53,0,0,1-7.06-4.72,21.21,21.21,0,0,1-4.47-7.32,26.76,26.76,0,0,1-1.57-9.36A25.53,25.53,0,0,1,423.8,216a21.21,21.21,0,0,1,11.7-12.25,22.64,22.64,0,0,1,9.15-1.79,21,21,0,0,1,9.78,2.17,19.56,19.56,0,0,1,6.85,5.82,24.36,24.36,0,0,1,3.87,8.34,31.36,31.36,0,0,1,.85,9.78H434.27C434.44,232,435.43,234.81,437.24,236.57Zm13.66-23.14q-2.17-2.38-6.6-2.38a10.54,10.54,0,0,0-4.8,1,8.94,8.94,0,0,0-3.06,2.42,8.68,8.68,0,0,0-1.62,3.07,13.44,13.44,0,0,0-.55,2.89h19.65A14,14,0,0,0,450.9,213.43Z"/><path class="cls-2" d="M480.38,203.14v8.17h.16a15.19,15.19,0,0,1,5.62-6.77,16,16,0,0,1,4-1.91,14.18,14.18,0,0,1,4.42-.68,9.49,9.49,0,0,1,2.64.42V213.6c-.57-.12-1.25-.2-2-.29a20.46,20.46,0,0,0-2.3-.13,12.89,12.89,0,0,0-5.62,1.1,9.92,9.92,0,0,0-3.7,3,12.16,12.16,0,0,0-2,4.46,24.31,24.31,0,0,0-.6,5.54v19.82H468.89v-44Z"/><rect class="cls-3" x="233.91" y="47.11" width="1.18" height="200.02"/><path class="cls-3" d="M122.74,116.76V56.49h20.37v60.27Z"/><path class="cls-3" d="M209.89,79.54H190.63a10.68,10.68,0,0,0-3.31-7A10.29,10.29,0,0,0,180.2,70a10.92,10.92,0,0,0-8.8,4.07Q168,78.13,168,87.27q0,6.27,1.46,9.55a10.46,10.46,0,0,0,4,4.88,12,12,0,0,0,6.43,1.6,10.75,10.75,0,0,0,7.49-2.51c1.86-1.68,3-4.16,3.3-7.46h19.6a33.19,33.19,0,0,1-2.31,9.43,25,25,0,0,1-5.59,7.65,27.41,27.41,0,0,1-9.33,5.91,34.41,34.41,0,0,1-12.51,2.1,40.33,40.33,0,0,1-13.12-2.06,28.36,28.36,0,0,1-10.1-5.79A27.93,27.93,0,0,1,151,102a34.33,34.33,0,0,1-3.25-15,35.79,35.79,0,0,1,2.35-13.08,29.29,29.29,0,0,1,6.46-10.18,28.22,28.22,0,0,1,9.12-6.19,36.91,36.91,0,0,1,14.12-2.62,40.39,40.39,0,0,1,12.63,2,24.78,24.78,0,0,1,9.7,5.72,25.72,25.72,0,0,1,5.82,8.66A29.79,29.79,0,0,1,209.89,79.54Z"/><polygon class="cls-3" points="118.14 116.76 101.19 70.78 95.94 56.51 75.23 56.51 71.94 65.45 53.02 116.76 53.03 116.76 53.02 116.78 72.92 116.78 72.95 116.68 75.82 108.89 75.82 108.89 77.86 103.35 67.3 95.68 80.69 95.68 85.58 82.39 90.48 95.68 103.86 95.68 93.3 103.35 95.34 108.89 95.34 108.89 98.25 116.78 118.14 116.78 118.13 116.76 118.14 116.76"/></g></svg>