<svg xmlns="http://www.w3.org/2000/svg" viewBox="0 0 689.24 216.67"><defs><style>.cls-1{fill:#ce151b;}.cls-2{fill:#fff;}</style></defs><title>white</title><g id="圖層_2" data-name="圖層 2"><g id="圖層_1-2" data-name="圖層 1"><path class="cls-1" d="M672,139.77H430.77A17.23,17.23,0,0,0,413.54,157v28.38H353.22L320.53,152.7a6.06,6.06,0,0,0-4.29-1.78H75a6.08,6.08,0,1,0,0,12.16H313.72l22.3,22.3H6.08a6.08,6.08,0,0,0,0,12.16H413.54v1.9a17.23,17.23,0,0,0,17.23,17.23H672a17.23,17.23,0,0,0,17.23-17.23V157A17.23,17.23,0,0,0,672,139.77Z"/><path class="cls-2" d="M453.85,155a23.84,23.84,0,0,1,12,2.84,18.33,18.33,0,0,1,7.57,8.06,27.64,27.64,0,0,1,2.56,12.29,30,30,0,0,1-1.4,9.47,20.49,20.49,0,0,1-4.22,7.4,18.37,18.37,0,0,1-6.9,4.78,25,25,0,0,1-9.39,1.66,24.55,24.55,0,0,1-9.41-1.71,18.51,18.51,0,0,1-6.93-4.8,20.38,20.38,0,0,1-4.21-7.45,30.37,30.37,0,0,1-1.42-9.41,29.09,29.09,0,0,1,1.49-9.51,20.2,20.2,0,0,1,4.29-7.36,18.48,18.48,0,0,1,6.84-4.65A24.66,24.66,0,0,1,453.85,155Zm12.9,23.13a21.13,21.13,0,0,0-1.59-8.56,11.92,11.92,0,0,0-4.54-5.48,12.5,12.5,0,0,0-6.77-1.85,12.17,12.17,0,0,0-5,1,11,11,0,0,0-4,3,14.48,14.48,0,0,0-2.63,5,22.84,22.84,0,0,0-1,6.86,23.41,23.41,0,0,0,1,6.93,14.3,14.3,0,0,0,2.72,5.13,11.59,11.59,0,0,0,4,3.06,12.71,12.71,0,0,0,11.4-.74,12.08,12.08,0,0,0,4.64-5.4A20.93,20.93,0,0,0,466.75,178.1Z"/><path class="cls-2" d="M495.53,160.43,513,186.93V160.18a5.87,5.87,0,0,1,1.12-3.91,3.77,3.77,0,0,1,3-1.3,3.89,3.89,0,0,1,3.08,1.3,5.81,5.81,0,0,1,1.13,3.91v35.37c0,3.94-1.63,5.92-4.89,5.92a6.35,6.35,0,0,1-2.2-.36A5.52,5.52,0,0,1,512.4,200a10.68,10.68,0,0,1-1.59-1.79c-.49-.68-1-1.39-1.47-2.1l-17-26.19v26.34a5.62,5.62,0,0,1-1.19,3.9,4.21,4.21,0,0,1-6.14,0,5.76,5.76,0,0,1-1.16-3.88V161.57a9.76,9.76,0,0,1,.49-3.47,5,5,0,0,1,1.92-2.26,5.27,5.27,0,0,1,2.91-.87,4.93,4.93,0,0,1,2.09.4,5.14,5.14,0,0,1,1.53,1.07,12,12,0,0,1,1.34,1.75Z"/><path class="cls-2" d="M540.15,160.49v32.73h18.39a4.83,4.83,0,0,1,3.38,1.07,3.51,3.51,0,0,1,1.17,2.7,3.38,3.38,0,0,1-1.16,2.68,4.93,4.93,0,0,1-3.39,1H536.63c-2,0-3.4-.44-4.26-1.32a5.89,5.89,0,0,1-1.3-4.26V160.49a6,6,0,0,1,1.24-4.14,4.15,4.15,0,0,1,3.25-1.38,4.33,4.33,0,0,1,3.32,1.37A5.94,5.94,0,0,1,540.15,160.49Z"/><path class="cls-2" d="M569.42,195.92V160.49a6,6,0,0,1,1.25-4.14,4.19,4.19,0,0,1,3.24-1.38,4.33,4.33,0,0,1,3.32,1.37,5.94,5.94,0,0,1,1.26,4.15v35.43a6,6,0,0,1-1.26,4.17,4.3,4.3,0,0,1-3.32,1.38,4.16,4.16,0,0,1-3.22-1.4A6,6,0,0,1,569.42,195.92Z"/><path class="cls-2" d="M600.47,160.43l17.44,26.5V160.18a5.92,5.92,0,0,1,1.12-3.91,3.78,3.78,0,0,1,3-1.3,3.92,3.92,0,0,1,3.09,1.3,5.87,5.87,0,0,1,1.13,3.91v35.37c0,3.94-1.63,5.92-4.89,5.92a6.31,6.31,0,0,1-2.2-.36,5.46,5.46,0,0,1-1.84-1.12,10.68,10.68,0,0,1-1.59-1.79c-.48-.68-1-1.39-1.46-2.1l-17-26.19v26.34a5.67,5.67,0,0,1-1.19,3.9,4,4,0,0,1-3.06,1.32,3.91,3.91,0,0,1-3.09-1.34,5.76,5.76,0,0,1-1.16-3.88V161.57a10,10,0,0,1,.49-3.47,5,5,0,0,1,1.93-2.26,5.22,5.22,0,0,1,2.9-.87,4.93,4.93,0,0,1,2.09.4,5.14,5.14,0,0,1,1.53,1.07,11.35,11.35,0,0,1,1.35,1.75C599.5,158.91,600,159.65,600.47,160.43Z"/><path class="cls-2" d="M665.71,162.76H645.26v11h18.83a4.44,4.44,0,0,1,3.1.94,3.18,3.18,0,0,1,1,2.47,3.29,3.29,0,0,1-1,2.5,4.37,4.37,0,0,1-3.11,1H645.26v12.79h21.15a4.58,4.58,0,0,1,3.22,1,3.4,3.4,0,0,1,1.09,2.65,3.33,3.33,0,0,1-1.09,2.59,4.58,4.58,0,0,1-3.22,1H641.75q-3,0-4.26-1.32a5.89,5.89,0,0,1-1.3-4.26v-33.8a7.58,7.58,0,0,1,.58-3.21,3.55,3.55,0,0,1,1.82-1.8,7.57,7.57,0,0,1,3.16-.57h24a4.66,4.66,0,0,1,3.22,1,3.29,3.29,0,0,1,1.05,2.53,3.33,3.33,0,0,1-1.05,2.57A4.66,4.66,0,0,1,665.71,162.76Z"/><path class="cls-2" d="M78.64,14.55V76.62A115.9,115.9,0,0,1,78,90.36a43.34,43.34,0,0,1-3.11,11.47A31,31,0,0,1,61.5,117.07q-9.28,5.46-22.63,5.45-12,0-20.08-3.8a29.39,29.39,0,0,1-13-12.28A44.19,44.19,0,0,1,1.62,96,42.37,42.37,0,0,1,0,84.78q0-5.66,3.15-8.65a11.29,11.29,0,0,1,8.08-3q4.77,0,7.2,2.75t3.71,8.57a80.35,80.35,0,0,0,2.75,9.94,14.86,14.86,0,0,0,4.61,6.38q3.22,2.67,9.21,2.67,15.93,0,15.92-23.36V14.55q0-7.28,3.2-10.91A11,11,0,0,1,66.52,0a11.32,11.32,0,0,1,8.85,3.64Q78.64,7.27,78.64,14.55Z"/><path class="cls-2" d="M306.39,21.82H280.2V107.9q0,7.42-3.31,11a11.13,11.13,0,0,1-8.57,3.59,11.27,11.27,0,0,1-8.68-3.63q-3.36-3.65-3.36-11V21.82H230.1c-4.1,0-7.14-.9-9.14-2.71A9.17,9.17,0,0,1,218,12a9.09,9.09,0,0,1,3.11-7.27c2.08-1.78,5.08-2.67,9-2.67h76.29q6.23,0,9.25,2.75a9.22,9.22,0,0,1,3,7.19,9,9,0,0,1-3.08,7.15C313.56,20.92,310.48,21.82,306.39,21.82Z"/><path class="cls-2" d="M357.07,14.55V48.49h51.8V14.55q0-7.28,3.27-10.91A11,11,0,0,1,420.75,0a11.44,11.44,0,0,1,8.77,3.6q3.36,3.59,3.35,11V107.9q0,7.35-3.39,11a11.41,11.41,0,0,1-8.73,3.63,11,11,0,0,1-8.65-3.67q-3.23-3.67-3.23-10.95V68.05h-51.8V107.9q0,7.35-3.4,11a11.41,11.41,0,0,1-8.73,3.63,11,11,0,0,1-8.65-3.67q-3.23-3.67-3.23-10.95V14.55q0-7.28,3.19-10.91A11,11,0,0,1,344.94,0a11.44,11.44,0,0,1,8.77,3.6Q357.07,7.19,357.07,14.55Z"/><path class="cls-2" d="M153.46,0q18.42,0,31.64,7.48a48.41,48.41,0,0,1,20,21.25q6.79,13.79,6.79,32.37a79.06,79.06,0,0,1-3.72,25A53.81,53.81,0,0,1,197,105.55a48.69,48.69,0,0,1-18.26,12.61,66,66,0,0,1-24.82,4.36A65.42,65.42,0,0,1,129.05,118a49.45,49.45,0,0,1-18.35-12.65A54.13,54.13,0,0,1,99.59,85.75a79.43,79.43,0,0,1-3.76-24.81,76.71,76.71,0,0,1,3.92-25.06,53.81,53.81,0,0,1,11.36-19.39,49.1,49.1,0,0,1,18.1-12.25A65.21,65.21,0,0,1,153.46,0Zm34.11,60.94q0-13-4.21-22.55a31.36,31.36,0,0,0-12-14.43,33,33,0,0,0-17.9-4.89,32.51,32.51,0,0,0-13.3,2.71,29.24,29.24,0,0,0-10.5,7.88,37.48,37.48,0,0,0-7,13.21,59.72,59.72,0,0,0-2.55,18.07,61,61,0,0,0,2.55,18.26,37.23,37.23,0,0,0,7.19,13.54,30.12,30.12,0,0,0,10.67,8,33.66,33.66,0,0,0,30.14-1.94q7.72-4.61,12.29-14.22T187.57,60.94Z"/><path class="cls-2" d="M621,14.39l46.14,69.83V13.74q0-6.87,3-10.31a10,10,0,0,1,8-3.43,10.31,10.31,0,0,1,8.16,3.43q3,3.45,3,10.31v93.19q0,15.58-12.93,15.59a17.34,17.34,0,0,1-5.82-.92,14.89,14.89,0,0,1-4.85-3,28.38,28.38,0,0,1-4.2-4.72c-1.3-1.81-2.59-3.65-3.88-5.54l-45-69v69.42q0,6.8-3.15,10.27a10.44,10.44,0,0,1-8.08,3.47,10.32,10.32,0,0,1-8.17-3.51c-2-2.35-3.07-5.75-3.07-10.23V17.38a26,26,0,0,1,1.29-9.14,13.08,13.08,0,0,1,5.1-5.94A13.89,13.89,0,0,1,604.13,0a12.57,12.57,0,0,1,9.58,3.88,29,29,0,0,1,3.56,4.61Q619.09,11.31,621,14.39Z"/><path class="cls-1" d="M512.41,13.49A48.45,48.45,0,1,1,464,61.94a48.5,48.5,0,0,1,48.45-48.45m0-12.15A60.61,60.61,0,1,0,573,61.94a60.6,60.6,0,0,0-60.6-60.6Z"/><circle class="cls-1" cx="512.41" cy="61.94" r="24.2"/></g></g></svg>